<?xml version="1.0" encoding="UTF-8" standalone="no"?>
<!-- Created with Inkscape (http://www.inkscape.org/) -->

<svg
   version="1.1"
   id="svg2"
   width="1047.272"
   height="980.41467"
   viewBox="0 0 1047.272 980.41467"
   sodipodi:docname="ARKKI-SHIELD-LOGO-black.ai"
   xmlns:inkscape="http://www.inkscape.org/namespaces/inkscape"
   xmlns:sodipodi="http://sodipodi.sourceforge.net/DTD/sodipodi-0.dtd"
   xmlns="http://www.w3.org/2000/svg"
   xmlns:svg="http://www.w3.org/2000/svg">
  <defs
     id="defs6">
    <clipPath
       clipPathUnits="userSpaceOnUse"
       id="clipPath20">
      <path
         d="M 0,735.311 H 785.454 V 0 H 0 Z"
         id="path18" />
    </clipPath>
  </defs>
  <sodipodi:namedview
     id="namedview4"
     pagecolor="#ffffff"
     bordercolor="#000000"
     borderopacity="0.25"
     inkscape:showpageshadow="2"
     inkscape:pageopacity="0.0"
     inkscape:pagecheckerboard="0"
     inkscape:deskcolor="#d1d1d1" />
  <g
     id="g8"
     inkscape:groupmode="layer"
     inkscape:label="ARKKI-SHIELD-LOGO-black"
     transform="matrix(1.3333333,0,0,-1.3333333,0,980.41467)">
    <g
       id="g10"
       transform="translate(317.049,195.4093)">
      <path
         d="M 0,0 H 8 L 4.08,18.48 Z m 11.76,-17.6 -1.6,7.681 H -2.16 L -3.84,-17.6 H -17.6 L -4.4,33.759 H 12.64 L 25.839,-17.6 Z"
         style="fill:#000000;fill-opacity:1;fill-rule:nonzero;stroke:none"
         id="path12" />
    </g>
    <g
       id="g14">
      <g
         id="g16"
         clip-path="url(#clipPath20)">
        <g
           id="g22"
           transform="translate(365.608,219.1688)">
          <path
             d="M 0,0 H -5.52 V -13.6 H 0 c 1.332,0 2,0.587 2,1.76 V -1.76 C 2,-0.587 1.332,0 0,0 m -5.52,-23.12 v -18.239 h -14 V 10 H 4.24 C 12.079,10 16,6.692 16,0.08 v -13.279 c 0,-5.068 -2.294,-8.188 -6.88,-9.36 l 9.439,-18.8 H 3.52 l -8.16,18.239 z"
             style="fill:#000000;fill-opacity:1;fill-rule:nonzero;stroke:none"
             id="path24" />
        </g>
        <g
           id="g26"
           transform="translate(415.8467,204.0491)">
          <path
             d="M 0,0 10.08,-26.239 H -4.961 L -14.56,0 -5.04,25.119 H 10 Z m -28.64,25.119 h 14 V -26.24 h -14 z"
             style="fill:#000000;fill-opacity:1;fill-rule:nonzero;stroke:none"
             id="path28" />
        </g>
        <g
           id="g30"
           transform="translate(458.2448,204.0491)">
          <path
             d="M 0,0 10.08,-26.239 H -4.96 L -14.559,0 -5.04,25.119 h 15.041 z m -28.639,25.119 h 14 V -26.24 h -14 z"
             style="fill:#000000;fill-opacity:1;fill-rule:nonzero;stroke:none"
             id="path32" />
        </g>
        <path
           d="m 472.005,229.168 h 14 v -51.359 h -14 z"
           style="fill:#000000;fill-opacity:1;fill-rule:nonzero;stroke:none"
           id="path34" />
        <g
           id="g36"
           transform="translate(430.9936,271.3117)">
          <path
             d="m 0,0 c -3.579,-2.273 -7.606,-4.15 -11.924,-5.632 -1.62,-0.556 -3.28,-1.056 -4.973,-1.501 -1.129,-0.297 -2.273,-0.568 -3.428,-0.815 -0.578,-0.124 -1.159,-0.241 -1.742,-0.352 -2.918,-0.556 -5.904,-0.958 -8.921,-1.205 -0.603,-0.049 -1.208,-0.092 -1.813,-0.129 -1.817,-0.111 -3.641,-0.167 -5.466,-0.167 -3.041,0 -6.081,0.154 -9.084,0.463 -4.805,0.494 -9.512,1.384 -13.967,2.668 -1.114,0.321 -2.212,0.667 -3.291,1.038 -0.54,0.185 -1.075,0.376 -1.606,0.574 -1.06,0.395 -2.102,0.815 -3.121,1.26 -7.136,3.113 -13.2,7.436 -17.357,12.969 1.127,1.897 2.093,3.898 2.881,5.985 -5.593,-9.298 -14.688,-15.599 -24.871,-17.896 -3.054,-0.689 -6.207,-1.018 -9.393,-0.959 -0.53,0.01 -1.062,0.03 -1.595,0.062 -1.065,0.063 -2.132,0.169 -3.199,0.32 -1.601,0.227 -3.202,0.554 -4.795,0.984 l -10.622,4.659 c -3.807,-2.782 -8.851,-3.619 -14.216,-3.119 -3.832,0.357 -7.828,1.397 -11.653,2.897 -1.531,0.6 -3.034,1.274 -4.488,2.008 -0.728,0.367 -1.443,0.749 -2.143,1.143 -0.7,0.395 -1.386,0.803 -2.054,1.223 0.475,0.274 0.935,0.584 1.374,0.927 1.319,1.029 2.455,2.359 3.282,3.931 2.943,0.181 5.69,2.475 6.944,5.185 6.498,-5.07 13.34,-7.339 20.198,-7.474 10.023,-0.196 20.081,4.168 29.149,11.013 v 0 c 4.054,-1.943 11.539,-4.472 16.215,3.862 5.537,-2.616 9.842,-2.79 12.277,3.507 9.832,-9.632 19.512,-14.811 33.485,-19.055 -0.723,0.431 -1.456,0.884 -2.198,1.359 -8.157,5.222 -17.309,13.041 -24.926,21.069 -1.386,1.459 -2.72,2.926 -3.988,4.385 -1.269,1.459 -2.471,2.91 -3.593,4.34 l -0.461,0.224 c -0.112,-1.319 -0.392,-2.537 -0.816,-3.625 -0.989,-2.54 -2.765,-4.373 -5.043,-5.115 -1.952,-0.636 -4.273,-0.471 -6.784,0.737 -0.785,-2.609 -2.422,-4.57 -4.42,-5.821 -1.599,-1.001 -3.429,-1.548 -5.24,-1.61 -3.169,-0.108 -6.28,1.272 -7.99,4.308 -0.52,-0.363 -1.04,-0.681 -1.558,-0.955 -1.036,-0.548 -2.065,-0.922 -3.074,-1.14 -0.253,-0.055 -0.504,-0.099 -0.754,-0.135 -0.499,-0.071 -0.993,-0.103 -1.48,-0.101 -4.385,0.026 -8.204,2.937 -10.392,7.102 -0.364,0.695 -0.683,1.424 -0.952,2.18 -0.18,0.504 -0.336,1.021 -0.47,1.547 -0.568,2.247 -0.738,4.667 -0.51,7.042 0.029,0.297 0.064,0.593 0.105,0.888 0.122,0.885 0.301,1.761 0.536,2.614 0.156,0.569 0.338,1.129 0.544,1.676 0.206,0.546 0.437,1.08 0.692,1.597 2.046,4.138 5.677,7.231 10.886,7.542 0.599,0.036 1.103,0.005 1.519,-0.028 0.277,-0.022 0.515,-0.045 0.717,-0.049 0.202,-0.004 0.368,0.01 0.5,0.063 0.066,0.026 0.124,0.062 0.173,0.11 0.42,0.407 0.258,1.381 0.458,2.511 0.025,0.141 0.056,0.285 0.094,0.43 0.268,1.017 0.905,2.113 2.543,3.011 2.634,1.445 5.17,2.013 7.58,2.06 0.301,0.006 0.601,0.004 0.898,-0.006 1.784,-0.058 3.495,-0.383 5.122,-0.825 0.542,-0.147 1.075,-0.307 1.598,-0.475 0.261,-0.084 0.52,-0.169 0.777,-0.256 3.335,-1.129 6.247,-2.453 8.614,-2.438 0.182,10e-4 0.361,0.01 0.537,0.027 1.117,0.113 0.984,1.257 1.172,2.521 0.146,0.983 0.486,2.039 1.758,2.74 1.986,1.094 4.578,0.738 7.542,-0.627 12.106,-5.576 30.427,-27.996 39.07,-37.374 0.53,-0.574 1.023,-1.099 1.476,-1.569 0.457,-0.474 0.92,-0.93 1.388,-1.369 v 0 c 0.469,0.439 0.932,0.895 1.389,1.369 1.041,1.08 2.295,2.455 3.714,4.04 0.043,0.049 0.087,0.097 0.13,0.146 0.283,0.316 0.573,0.642 0.869,0.974 5.951,6.687 14.388,16.426 22.509,23.945 0.023,0.021 0.045,0.042 0.068,0.064 3.531,3.264 6.999,6.105 10.175,8.088 0.266,0.166 0.529,0.326 0.791,0.479 1.045,0.615 2.056,1.129 3.023,1.527 0.966,0.398 1.89,0.68 2.761,0.829 0.436,0.075 0.858,0.116 1.267,0.122 0.204,0.003 0.404,-0.002 0.602,-0.017 0.787,-0.059 1.517,-0.262 2.179,-0.627 0.363,-0.2 0.651,-0.429 0.879,-0.677 0.114,-0.125 0.214,-0.253 0.301,-0.386 0.174,-0.265 0.297,-0.543 0.388,-0.826 0.498,-1.556 -0.003,-3.233 1.362,-3.372 0.76,-0.076 1.583,0.013 2.461,0.202 0.299,0.065 0.604,0.14 0.915,0.227 0.073,0.02 0.145,0.04 0.218,0.061 0.724,0.209 1.482,0.468 2.27,0.75 0.259,0.092 0.522,0.187 0.788,0.283 0.222,0.081 0.447,0.162 0.673,0.244 0.215,0.077 0.432,0.155 0.65,0.233 0.224,0.08 0.449,0.159 0.677,0.238 0.419,0.146 0.843,0.29 1.276,0.429 0.336,0.108 0.678,0.211 1.022,0.311 0.39,0.114 0.785,0.221 1.186,0.321 1.169,0.291 2.378,0.517 3.626,0.618 2.932,0.238 6.071,-0.198 9.363,-2.004 0.937,-0.513 1.546,-1.091 1.946,-1.682 0.156,-0.23 0.273,-0.462 0.372,-0.693 0.106,-0.246 0.188,-0.49 0.246,-0.73 0.062,-0.257 0.106,-0.51 0.133,-0.751 0.032,-0.272 0.047,-0.53 0.063,-0.769 0.038,-0.597 0.073,-1.073 0.336,-1.327 0.395,-0.382 1.31,0 2.909,-0.096 1.302,-0.078 2.506,-0.33 3.61,-0.728 1.934,-0.697 3.565,-1.843 4.893,-3.294 0.38,-0.414 0.735,-0.853 1.065,-1.314 2.145,-2.994 3.243,-6.894 3.291,-10.767 0.007,-0.596 -0.01,-1.192 -0.053,-1.783 -0.042,-0.591 -0.11,-1.179 -0.202,-1.759 -0.092,-0.579 -0.21,-1.152 -0.352,-1.714 -0.066,-0.263 -0.139,-0.524 -0.217,-0.782 -1.213,-3.996 -3.813,-7.326 -7.116,-8.96 -0.232,-0.115 -0.468,-0.222 -0.707,-0.319 -0.166,-0.068 -0.332,-0.132 -0.5,-0.191 -0.372,-0.13 -0.748,-0.244 -1.133,-0.331 -0.231,-0.052 -0.465,-0.097 -0.701,-0.133 -0.245,-0.037 -0.493,-0.064 -0.743,-0.083 -0.95,-0.072 -1.931,-0.01 -2.93,0.206 -1.515,0.327 -3.072,1.006 -4.633,2.095 -0.977,-1.735 -2.411,-2.929 -4.052,-3.613 -0.606,-0.253 -1.245,-0.413 -1.895,-0.529 -0.273,-0.048 -0.545,-0.1 -0.823,-0.125 -3.536,-0.314 -7.366,1.286 -9.56,4.574 -0.555,0.832 -1.005,1.772 -1.319,2.816 -3.348,-1.61 -6.358,-1.367 -8.607,0.157 -0.563,0.381 -1.077,0.843 -1.538,1.375 -0.46,0.532 -0.866,1.136 -1.211,1.801 -0.691,1.332 -1.138,2.912 -1.288,4.67 L 8.088,39.527 C 6.967,38.097 5.764,36.646 4.496,35.187 -4.383,24.973 -16.492,14.396 -26.617,8.374 c 13.974,4.244 23.654,9.423 33.485,19.055 2.435,-6.297 6.74,-6.123 12.278,-3.507 4.676,-8.334 12.16,-5.805 16.214,-3.862 v 0 C 44.429,13.215 54.486,8.851 64.51,9.047 c 6.858,0.135 13.7,2.404 20.198,7.474 1.254,-2.71 4.001,-5.004 6.943,-5.185 C 92.754,9.24 94.407,7.575 96.308,6.478 95.306,5.849 94.264,5.245 93.193,4.673 82.833,-0.855 69.639,-3.436 61.753,2.326 v 0 L 51.131,-2.333 c -4.778,-1.291 -9.63,-1.65 -14.334,-1.167 -1.046,0.107 -2.084,0.256 -3.112,0.445 -0.515,0.095 -1.027,0.2 -1.536,0.315 -1.018,0.23 -2.025,0.499 -3.02,0.808 -0.497,0.154 -0.99,0.319 -1.48,0.492 -2.451,0.869 -4.811,1.979 -7.042,3.314 -0.447,0.267 -0.888,0.543 -1.324,0.827 -4.793,3.134 -8.929,7.341 -12.005,12.455 0,0 0,0 0,0 0,0 0,0 0,0 0.495,-1.309 1.067,-2.58 1.697,-3.817 C 9.35,10.604 9.74,9.878 10.159,9.171 8.081,6.404 5.526,3.94 2.598,1.779 1.762,1.161 0.895,0.568 0,0 m -187.251,9.1 c -4.666,0.047 -8.423,6.273 -8.115,11.872 0.057,1.05 0.258,2.077 0.622,3.038 0.85,2.242 2.592,4.119 5.489,5.061 0.956,0.311 1.558,0.225 1.75,0.52 0.103,0.157 0.101,0.376 0.072,0.646 -0.008,0.067 -0.017,0.138 -0.027,0.211 -0.067,0.515 -0.16,1.174 0.14,1.911 0.172,0.421 0.471,0.868 0.977,1.327 1.776,1.616 3.625,2.377 5.429,2.699 0.721,0.128 1.435,0.186 2.135,0.2 1.05,0.021 2.066,-0.056 3.025,-0.144 0.958,-0.087 1.858,-0.185 2.675,-0.202 0.817,-0.018 1.551,0.044 2.176,0.275 0.221,0.082 0.344,0.211 0.409,0.377 0.086,0.22 0.068,0.505 0.039,0.827 -0.065,0.725 -0.186,1.641 0.697,2.448 0.713,0.651 1.665,0.956 2.799,0.982 2.27,0.052 5.269,-1.012 8.54,-2.652 1.636,-0.82 3.341,-1.783 5.056,-2.824 0.858,-0.52 1.718,-1.059 2.574,-1.609 0.428,-0.275 0.855,-0.553 1.28,-0.832 1.275,-0.838 2.532,-1.69 3.747,-2.528 0.405,-0.28 0.806,-0.558 1.201,-0.833 0.789,-0.55 1.557,-1.091 2.295,-1.612 1.845,-1.303 3.507,-2.489 4.875,-3.425 0.546,-0.375 1.046,-0.709 1.491,-0.995 l 0.258,-0.163 c 0.8,-0.393 1.582,-0.746 2.35,-1.073 0.549,-0.234 1.094,-0.461 1.618,-0.651 1.46,-0.53 2.809,-0.874 4.098,-1.059 0.644,-0.092 1.274,-0.144 1.895,-0.16 0.621,-0.015 1.233,0.006 1.844,0.06 1.832,0.164 3.646,0.629 5.166,1.114 0.507,0.162 0.981,0.326 1.413,0.482 1.725,0.624 2.765,1.12 3.284,1.368 0.13,0.062 0.228,0.108 0.299,0.139 0.071,0.031 0.116,0.048 0.142,0.05 0.05,0.003 0.022,-0.051 -0.035,-0.16 -0.114,-0.218 -0.343,-0.654 -1.341,-1.477 -0.998,-0.822 -2.765,-2.032 -5.041,-3.121 -1.992,-0.955 -4.373,-1.818 -6.588,-2.43 l -0.02,-0.006 c -0.472,-0.142 -0.94,-0.268 -1.403,-0.376 -0.464,-0.109 -0.923,-0.202 -1.377,-0.279 l -0.029,-0.005 c -0.611,-0.119 -1.188,-0.214 -1.744,-0.298 -0.111,-0.017 -0.228,-0.037 -0.337,-0.053 -0.656,-0.133 -1.422,-0.278 -2.242,-0.425 -2.54,-0.457 -4.875,-0.684 -7.057,-0.713 -0.727,-0.009 -1.438,0.004 -2.133,0.037 -3.477,0.168 -6.577,0.858 -9.541,1.926 -1.185,0.427 -2.349,0.914 -3.506,1.453 -1.158,0.538 -2.309,1.128 -3.469,1.759 -1.74,0.947 -3.5,1.988 -5.332,3.092 v 0 h -0.001 c 0.044,-1.485 -0.313,-2.837 -0.994,-3.904 -0.341,-0.534 -0.763,-0.997 -1.255,-1.369 -0.822,-0.621 -1.841,-0.991 -3.014,-1.022 -0.47,-0.013 -0.964,0.028 -1.479,0.13 v 0 c 0,0 0,0 0,0 -0.249,-2.704 -2.023,-4.778 -4.137,-5.724 -1.586,-0.71 -3.362,-0.787 -4.83,-0.021 -0.489,0.255 -0.944,0.604 -1.346,1.055 v 0 c -0.613,-0.694 -1.23,-1.25 -1.846,-1.684 -1.231,-0.867 -2.454,-1.242 -3.621,-1.23 m 18.842,120.763 c 2.574,0.01 5.144,0.056 7.71,0.132 0.832,0.024 1.662,0.071 2.493,0.103 1.733,0.065 3.466,0.131 5.195,0.227 0.998,0.055 1.993,0.133 2.989,0.198 1.559,0.103 3.119,0.203 4.674,0.331 1.065,0.086 2.126,0.193 3.188,0.292 1.485,0.137 2.969,0.274 4.45,0.434 1.096,0.118 2.188,0.253 3.281,0.384 1.444,0.172 2.887,0.346 4.327,0.539 1.112,0.149 2.221,0.313 3.33,0.475 1.416,0.206 2.831,0.418 4.243,0.645 1.119,0.18 2.235,0.371 3.35,0.564 1.4,0.241 2.797,0.49 4.192,0.753 1.118,0.21 2.234,0.427 3.349,0.65 1.387,0.278 2.77,0.565 4.152,0.862 1.114,0.239 2.226,0.484 3.337,0.736 1.379,0.314 2.755,0.64 4.129,0.973 1.103,0.268 2.205,0.537 3.305,0.817 1.379,0.352 2.755,0.72 4.129,1.092 1.084,0.293 2.168,0.585 3.249,0.891 1.387,0.392 2.769,0.804 4.15,1.217 1.059,0.317 2.119,0.629 3.175,0.957 1.406,0.439 2.805,0.899 4.205,1.359 1.021,0.335 2.044,0.661 3.061,1.008 1.452,0.494 2.897,1.015 4.342,1.533 0.954,0.341 1.911,0.671 2.861,1.023 1.587,0.587 3.163,1.203 4.74,1.819 0.799,0.311 1.602,0.608 2.398,0.926 2.36,0.945 4.71,1.918 7.048,2.925 v 0 c 2.425,1.045 4.837,2.124 7.237,3.236 v -25.801 0 c -3.369,-1.662 -6.786,-3.24 -10.23,-4.769 -0.928,-0.412 -1.851,-0.834 -2.785,-1.236 -1.386,-0.597 -2.786,-1.171 -4.184,-1.746 -1.25,-0.515 -2.504,-1.021 -3.763,-1.518 -1.494,-0.59 -2.988,-1.179 -4.495,-1.744 -0.914,-0.342 -1.838,-0.664 -2.756,-0.997 -1.216,-0.441 -2.43,-0.887 -3.654,-1.312 -0.977,-0.339 -1.962,-0.659 -2.943,-0.987 -1.179,-0.394 -2.356,-0.792 -3.541,-1.17 -1.006,-0.322 -2.02,-0.627 -3.031,-0.938 -1.173,-0.36 -2.346,-0.72 -3.526,-1.065 -1.024,-0.3 -2.054,-0.586 -3.083,-0.874 -1.18,-0.33 -2.36,-0.659 -3.545,-0.974 -1.035,-0.274 -2.074,-0.539 -3.113,-0.802 -1.194,-0.302 -2.39,-0.6 -3.591,-0.887 -1.038,-0.248 -2.08,-0.489 -3.123,-0.726 -1.214,-0.276 -2.431,-0.543 -3.651,-0.803 -1.039,-0.221 -2.079,-0.438 -3.122,-0.647 -1.239,-0.249 -2.481,-0.487 -3.726,-0.719 -1.034,-0.193 -2.068,-0.385 -3.107,-0.566 -1.271,-0.223 -2.547,-0.431 -3.825,-0.636 -1.02,-0.164 -2.039,-0.33 -3.062,-0.483 -1.316,-0.196 -2.638,-0.375 -3.96,-0.552 -0.995,-0.134 -1.987,-0.274 -2.985,-0.397 -1.392,-0.172 -2.791,-0.323 -4.19,-0.474 -0.935,-0.102 -1.867,-0.212 -2.804,-0.304 -1.56,-0.153 -3.128,-0.281 -4.695,-0.408 -0.785,-0.064 -1.566,-0.14 -2.352,-0.197 -2.358,-0.172 -4.722,-0.317 -7.096,-0.43 -0.619,1.067 -1.226,2.142 -1.82,3.225 -2.377,4.332 -4.548,8.791 -6.503,13.363 -1.467,3.429 -2.811,6.922 -4.028,10.473 m 69.896,48.638 c 17.969,4.461 35.504,10.627 52.393,18.455 V 185.239 173.06 c -2.48,-1.223 -4.982,-2.408 -7.502,-3.559 -2.025,-0.925 -4.063,-1.827 -6.114,-2.704 -0.137,-0.059 -0.274,-0.12 -0.412,-0.179 -2.034,-0.867 -4.083,-1.706 -6.142,-2.525 -0.26,-0.104 -0.519,-0.21 -0.78,-0.313 -1.99,-0.785 -3.993,-1.545 -6.004,-2.285 -0.331,-0.122 -0.662,-0.246 -0.993,-0.366 -1.981,-0.721 -3.972,-1.417 -5.973,-2.094 -0.358,-0.121 -0.717,-0.242 -1.076,-0.362 -1.998,-0.666 -4.005,-1.311 -6.023,-1.933 -0.356,-0.11 -0.713,-0.218 -1.07,-0.327 -2.04,-0.62 -4.089,-1.22 -6.148,-1.794 -0.32,-0.089 -0.642,-0.176 -0.962,-0.264 -2.111,-0.58 -4.23,-1.141 -6.361,-1.673 -0.238,-0.059 -0.478,-0.115 -0.716,-0.174 -2.225,-0.549 -4.459,-1.077 -6.705,-1.573 -0.079,-0.017 -0.158,-0.033 -0.237,-0.05 -2.248,-0.494 -4.506,-0.959 -6.774,-1.398 -0.174,-0.034 -0.347,-0.07 -0.522,-0.103 -2.219,-0.426 -4.45,-0.821 -6.688,-1.193 -0.287,-0.048 -0.574,-0.098 -0.862,-0.146 -2.176,-0.355 -4.362,-0.682 -6.555,-0.987 -0.345,-0.048 -0.691,-0.097 -1.037,-0.144 -2.167,-0.293 -4.343,-0.56 -6.526,-0.802 -0.365,-0.041 -0.73,-0.081 -1.096,-0.121 -2.186,-0.234 -4.378,-0.444 -6.579,-0.628 -0.352,-0.029 -0.704,-0.057 -1.057,-0.085 -2.23,-0.178 -4.468,-0.332 -6.713,-0.457 -0.3,-0.017 -0.601,-0.031 -0.901,-0.046 -2.309,-0.122 -4.624,-0.22 -6.948,-0.284 -0.198,-0.006 -0.397,-0.008 -0.595,-0.013 -2.437,-0.063 -4.88,-0.1 -7.332,-0.1 v 0 c -1.024,0 -2.046,0.006 -3.068,0.017 -1.944,8.278 -3.215,16.809 -3.746,25.534 2.271,-0.052 4.543,-0.077 6.814,-0.077 v 0 c 13.381,0 26.68,0.899 39.82,2.682 10.512,1.427 20.922,3.419 31.19,5.967 M 96.058,144.395 c -1.022,-0.011 -2.044,-0.017 -3.068,-0.017 -2.455,0 -4.9,0.037 -7.34,0.1 -0.194,0.005 -0.39,0.007 -0.584,0.013 -2.327,0.064 -4.645,0.163 -6.958,0.284 -0.297,0.016 -0.594,0.029 -0.89,0.045 -2.249,0.126 -4.489,0.281 -6.723,0.459 -0.349,0.028 -0.699,0.054 -1.048,0.084 -2.202,0.184 -4.397,0.394 -6.585,0.629 -0.364,0.039 -0.728,0.079 -1.092,0.119 -2.185,0.243 -4.362,0.51 -6.531,0.804 -0.343,0.046 -0.686,0.095 -1.029,0.142 -2.195,0.306 -4.384,0.633 -6.563,0.989 -0.285,0.047 -0.57,0.097 -0.855,0.144 -2.239,0.373 -4.471,0.768 -6.692,1.194 -0.174,0.033 -0.347,0.069 -0.52,0.103 -2.268,0.439 -4.527,0.904 -6.775,1.398 -0.079,0.017 -0.159,0.033 -0.238,0.05 -2.248,0.497 -4.485,1.025 -6.713,1.575 -0.234,0.058 -0.469,0.113 -0.703,0.171 -2.133,0.533 -4.255,1.094 -6.368,1.675 -0.319,0.088 -0.64,0.174 -0.959,0.263 -2.06,0.574 -4.109,1.174 -6.15,1.795 -0.355,0.108 -0.711,0.215 -1.066,0.325 -2.02,0.623 -4.03,1.268 -6.029,1.935 -0.357,0.119 -0.712,0.239 -1.068,0.359 -2.003,0.678 -3.997,1.376 -5.98,2.097 -0.329,0.12 -0.657,0.242 -0.986,0.363 -2.013,0.741 -4.017,1.501 -6.009,2.287 -0.259,0.103 -0.518,0.208 -0.777,0.311 -2.059,0.82 -4.109,1.66 -6.145,2.527 -0.137,0.059 -0.273,0.119 -0.411,0.178 -2.052,0.879 -4.092,1.78 -6.118,2.706 -2.519,1.151 -5.02,2.336 -7.498,3.558 v 12.179 11.717 c 16.889,-7.828 34.424,-13.994 52.393,-18.455 2.567,-0.637 5.143,-1.239 7.727,-1.807 20.673,-4.539 41.873,-6.843 63.283,-6.843 2.271,0 4.542,0.026 6.813,0.078 -0.132,-2.181 -0.311,-4.35 -0.535,-6.506 -0.225,-2.156 -0.494,-4.299 -0.807,-6.428 -0.471,-3.194 -1.04,-6.356 -1.706,-9.484 -0.222,-1.042 -0.454,-2.081 -0.697,-3.116 m -9.717,-28.412 c -1.031,-2.258 -2.116,-4.486 -3.252,-6.683 -1.137,-2.198 -2.326,-4.364 -3.565,-6.498 -2.373,0.113 -4.738,0.258 -7.095,0.43 -0.787,0.057 -1.568,0.133 -2.353,0.197 -1.567,0.128 -3.134,0.254 -4.694,0.408 -0.938,0.092 -1.87,0.202 -2.805,0.304 -1.399,0.151 -2.798,0.302 -4.19,0.474 -0.997,0.123 -1.99,0.263 -2.984,0.397 -1.322,0.178 -2.644,0.356 -3.96,0.552 -1.024,0.153 -2.043,0.319 -3.063,0.483 -1.277,0.205 -2.554,0.413 -3.825,0.636 -1.038,0.181 -2.073,0.373 -3.107,0.566 -1.244,0.232 -2.487,0.47 -3.725,0.719 -1.043,0.209 -2.083,0.426 -3.121,0.647 -1.221,0.26 -2.439,0.528 -3.654,0.803 -1.042,0.237 -2.083,0.478 -3.121,0.726 -1.201,0.287 -2.398,0.585 -3.593,0.887 -1.038,0.263 -2.077,0.528 -3.111,0.802 -1.186,0.315 -2.366,0.644 -3.545,0.974 -1.029,0.288 -2.059,0.574 -3.084,0.874 -1.18,0.345 -2.353,0.706 -3.526,1.066 -1.011,0.31 -2.024,0.615 -3.03,0.937 -1.184,0.378 -2.36,0.775 -3.537,1.168 -0.984,0.329 -1.971,0.65 -2.949,0.99 -1.218,0.422 -2.426,0.866 -3.636,1.304 -0.924,0.336 -1.854,0.66 -2.775,1.005 -1.506,0.564 -2.999,1.154 -4.493,1.743 -1.251,0.494 -2.497,0.997 -3.74,1.508 -1.406,0.579 -2.813,1.156 -4.208,1.756 -0.934,0.403 -1.857,0.825 -2.786,1.238 -3.443,1.528 -6.859,3.105 -10.227,4.767 v 0 25.801 c 2.399,-1.112 4.812,-2.191 7.237,-3.236 v 0 c 2.337,-1.007 4.687,-1.98 7.046,-2.924 0.799,-0.32 1.604,-0.617 2.405,-0.93 1.575,-0.614 3.15,-1.23 4.735,-1.816 0.95,-0.352 1.907,-0.682 2.86,-1.023 1.446,-0.518 2.89,-1.039 4.343,-1.533 1.018,-0.347 2.042,-0.674 3.063,-1.009 1.399,-0.459 2.796,-0.919 4.201,-1.357 1.058,-0.33 2.121,-0.642 3.183,-0.96 1.378,-0.412 2.757,-0.823 4.14,-1.214 1.084,-0.307 2.172,-0.6 3.26,-0.894 1.37,-0.371 2.742,-0.738 4.118,-1.089 1.102,-0.281 2.207,-0.551 3.312,-0.819 1.373,-0.333 2.747,-0.659 4.125,-0.972 1.111,-0.252 2.224,-0.497 3.338,-0.736 1.381,-0.297 2.763,-0.584 4.147,-0.861 1.118,-0.223 2.237,-0.442 3.357,-0.652 1.393,-0.262 2.789,-0.51 4.186,-0.752 1.117,-0.193 2.233,-0.384 3.352,-0.564 1.412,-0.227 2.827,-0.438 4.243,-0.645 1.11,-0.162 2.219,-0.326 3.331,-0.475 1.44,-0.193 2.882,-0.367 4.326,-0.539 1.093,-0.131 2.186,-0.266 3.281,-0.384 1.481,-0.16 2.966,-0.297 4.45,-0.434 1.063,-0.099 2.124,-0.206 3.188,-0.292 1.556,-0.128 3.115,-0.228 4.674,-0.33 0.996,-0.066 1.991,-0.143 2.989,-0.199 1.73,-0.096 3.463,-0.162 5.196,-0.227 0.831,-0.032 1.66,-0.079 2.492,-0.103 2.567,-0.076 5.137,-0.122 7.711,-0.132 -1.623,-4.734 -3.472,-9.366 -5.535,-13.88 M -23.165,67.074 c 2.43,-1.047 4.872,-2.06 7.327,-3.04 -2.625,-2.647 -4.939,-5.199 -6.773,-7.213 -2.671,-2.93 -5.246,-5.945 -7.802,-8.974 v 22.467 c 2.399,-1.112 4.812,-2.19 7.237,-3.235 v 0 c 0.004,-0.002 0.007,-0.003 0.011,-0.005 M -53.922,56.821 c -1.835,2.014 -4.148,4.566 -6.773,7.213 2.454,0.98 4.897,1.993 7.328,3.04 0.003,0.002 0.006,0.003 0.01,0.005 v 0 c 2.425,1.045 4.838,2.123 7.237,3.235 V 47.847 c -2.557,3.029 -5.131,6.044 -7.802,8.974 m -20.426,18.463 c -0.164,0.098 -0.33,0.192 -0.495,0.287 -0.168,0.097 -0.336,0.195 -0.505,0.288 -0.154,0.086 -0.309,0.169 -0.464,0.252 -0.188,0.1 -0.375,0.199 -0.563,0.295 -0.142,0.073 -0.285,0.145 -0.428,0.215 -0.219,0.108 -0.438,0.211 -0.657,0.312 -0.117,0.054 -0.233,0.109 -0.351,0.161 -0.687,0.306 -1.375,0.578 -2.061,0.812 -0.095,0.032 -0.191,0.061 -0.287,0.093 -0.253,0.082 -0.507,0.16 -0.759,0.231 -0.115,0.033 -0.229,0.064 -0.344,0.094 -0.247,0.065 -0.494,0.123 -0.74,0.177 -0.107,0.024 -0.214,0.05 -0.321,0.071 -0.339,0.068 -0.678,0.127 -1.015,0.173 -0.077,0.01 -0.154,0.015 -0.232,0.024 -0.261,0.031 -0.521,0.057 -0.78,0.074 -0.145,0.009 -0.289,0.014 -0.433,0.019 -0.194,0.006 -0.389,0.009 -0.582,0.008 -0.157,-0.002 -0.313,-0.004 -0.469,-0.011 -0.194,-0.009 -0.388,-0.025 -0.581,-0.043 -0.186,-0.017 -0.372,-0.035 -0.557,-0.061 -0.242,-0.033 -0.483,-0.07 -0.723,-0.118 -0.02,-0.004 -0.039,-0.01 -0.059,-0.015 -0.164,-0.034 -0.326,-0.078 -0.489,-0.119 -0.18,-0.046 -0.36,-0.093 -0.538,-0.148 -0.152,-0.046 -0.302,-0.097 -0.453,-0.15 -0.202,-0.071 -0.401,-0.15 -0.599,-0.232 -0.125,-0.052 -0.25,-0.102 -0.374,-0.159 -0.325,-0.149 -0.645,-0.309 -0.956,-0.489 -1.204,-0.695 -2.186,-1.489 -2.957,-2.464 -0.258,-0.326 -0.491,-0.671 -0.702,-1.04 -1.512,0.563 -3.022,1.173 -4.529,1.644 -1.733,0.542 -3.441,0.94 -5.127,1.175 -0.844,0.118 -1.682,0.194 -2.515,0.228 -0.417,0.017 -0.832,0.022 -1.247,0.017 -2.9,-0.036 -5.747,-0.618 -8.563,-1.849 -0.804,-0.352 -1.606,-0.756 -2.406,-1.217 -2.494,-1.435 -4.187,-3.15 -5.161,-5.691 -1.14,-0.193 -2.223,-0.481 -3.251,-0.85 -1.328,1.229 -2.626,2.489 -3.909,3.763 -5.56,5.525 -10.702,11.466 -15.361,17.784 0.008,10e-4 0.016,0.002 0.025,0.003 2.096,0.16 4.189,0.345 6.279,0.55 0.692,0.067 1.382,0.15 2.073,0.222 1.405,0.148 2.81,0.296 4.212,0.464 0.823,0.098 1.644,0.211 2.466,0.316 1.268,0.163 2.536,0.325 3.801,0.504 0.874,0.124 1.746,0.26 2.619,0.391 1.208,0.183 2.417,0.366 3.622,0.563 0.899,0.147 1.796,0.304 2.693,0.459 1.178,0.204 2.355,0.411 3.53,0.629 0.908,0.169 1.814,0.345 2.72,0.522 1.161,0.227 2.32,0.459 3.478,0.7 0.909,0.189 1.816,0.383 2.723,0.581 1.156,0.252 2.309,0.512 3.461,0.778 0.899,0.207 1.798,0.417 2.695,0.633 1.157,0.279 2.311,0.568 3.465,0.86 0.887,0.225 1.774,0.45 2.658,0.683 1.168,0.308 2.333,0.629 3.497,0.952 0.861,0.238 1.722,0.473 2.58,0.72 1.204,0.345 2.404,0.707 3.603,1.068 0.813,0.244 1.627,0.483 2.437,0.734 1.293,0.402 2.581,0.822 3.868,1.242 0.71,0.231 1.421,0.453 2.129,0.69 1.642,0.549 3.278,1.12 4.91,1.698 0.349,0.124 0.7,0.239 1.049,0.364 1.973,0.708 3.94,1.439 5.899,2.19 0.611,0.234 1.217,0.482 1.826,0.72 1.348,0.527 2.696,1.055 4.038,1.603 0.771,0.315 1.536,0.643 2.305,0.965 0.957,0.401 1.919,0.792 2.873,1.203 v 0.013 c 2.423,1.044 4.839,2.111 7.237,3.222 v -28.657 0 c -4.236,-2.09 -8.535,-4.069 -12.889,-5.947 -0.592,-0.255 -1.188,-0.502 -1.782,-0.754 -1.494,-0.632 -2.995,-1.252 -4.502,-1.859 -0.653,-0.263 -1.306,-0.527 -1.962,-0.785 -1.91,-0.752 -3.827,-1.488 -5.757,-2.199 -0.135,-0.05 -0.269,-0.103 -0.405,-0.153 -0.18,0.115 -0.365,0.224 -0.548,0.336 -0.128,0.078 -0.255,0.159 -0.383,0.235 m 36.081,141.798 c -0.708,-0.378 -1.424,-0.744 -2.136,-1.116 -7.979,-4.168 -16.181,-7.964 -24.589,-11.361 -14.507,-5.859 -29.615,-10.542 -45.211,-13.917 l 7.018,44.767 c 15.911,3.201 31.154,8.13 46.157,13.807 6.285,2.378 12.53,4.886 18.761,7.457 3.582,-1.478 7.168,-2.933 10.764,-4.358 0.667,-0.264 1.334,-0.527 2.001,-0.788 16.94,-6.643 34.119,-12.489 52.153,-16.118 l 7.018,-44.767 c -15.209,3.292 -29.954,7.83 -44.13,13.488 -9.538,3.806 -18.82,8.113 -27.806,12.906 M 51.088,67.278 c -1.029,0.369 -2.111,0.657 -3.252,0.85 -0.122,0.317 -0.255,0.622 -0.399,0.915 -0.289,0.586 -0.623,1.124 -1.004,1.624 -0.381,0.5 -0.809,0.96 -1.285,1.391 -0.714,0.646 -1.537,1.223 -2.473,1.761 -1.199,0.691 -2.404,1.256 -3.615,1.705 -4.439,1.646 -8.963,1.725 -13.661,0.644 -0.855,-0.197 -1.715,-0.432 -2.581,-0.703 -1.508,-0.471 -3.017,-1.081 -4.529,-1.644 -0.844,1.475 -2.054,2.577 -3.659,3.504 -0.002,10e-4 -0.005,0.002 -0.007,0.003 -0.309,0.179 -0.627,0.338 -0.949,0.486 -0.125,0.057 -0.25,0.107 -0.375,0.159 -0.197,0.083 -0.396,0.161 -0.597,0.232 -0.151,0.053 -0.303,0.104 -0.454,0.151 -0.178,0.054 -0.358,0.101 -0.539,0.147 -0.162,0.041 -0.325,0.085 -0.488,0.119 -0.02,0.005 -0.039,0.011 -0.059,0.015 -0.24,0.048 -0.482,0.085 -0.724,0.118 -0.185,0.026 -0.37,0.044 -0.556,0.061 C 9.689,78.834 9.495,78.85 9.3,78.859 9.144,78.866 8.987,78.868 8.831,78.869 8.638,78.871 8.444,78.868 8.251,78.862 8.106,78.857 7.962,78.852 7.817,78.843 7.559,78.826 7.3,78.8 7.041,78.769 6.962,78.76 6.883,78.755 6.804,78.744 6.467,78.699 6.129,78.64 5.79,78.572 5.682,78.551 5.576,78.525 5.469,78.501 5.222,78.447 4.976,78.389 4.728,78.324 4.614,78.294 4.5,78.263 4.385,78.23 4.133,78.159 3.88,78.081 3.627,77.999 3.53,77.968 3.434,77.938 3.337,77.905 2.652,77.672 1.965,77.4 1.277,77.094 1.16,77.042 1.043,76.987 0.926,76.933 0.707,76.832 0.489,76.729 0.27,76.621 0.127,76.551 -0.016,76.479 -0.159,76.406 -0.346,76.31 -0.533,76.212 -0.72,76.111 c -0.156,-0.083 -0.312,-0.167 -0.467,-0.253 -0.167,-0.093 -0.333,-0.189 -0.5,-0.285 -0.166,-0.096 -0.333,-0.19 -0.498,-0.289 -0.128,-0.076 -0.256,-0.157 -0.384,-0.235 -0.182,-0.112 -0.367,-0.221 -0.548,-0.336 -0.135,0.05 -0.269,0.103 -0.405,0.153 -1.929,0.711 -3.847,1.447 -5.756,2.199 -0.656,0.258 -1.309,0.522 -1.963,0.785 -1.507,0.607 -3.008,1.227 -4.503,1.86 -0.593,0.251 -1.188,0.498 -1.78,0.753 -4.353,1.878 -8.653,3.857 -12.889,5.947 v 0 28.657 c 2.398,-1.111 4.813,-2.178 7.237,-3.222 v -0.013 c 0.954,-0.411 1.915,-0.802 2.873,-1.203 0.768,-0.322 1.534,-0.65 2.305,-0.965 1.341,-0.548 2.689,-1.076 4.038,-1.603 0.609,-0.238 1.215,-0.486 1.825,-0.72 1.96,-0.751 3.927,-1.482 5.901,-2.19 0.344,-0.123 0.691,-0.238 1.035,-0.36 1.637,-0.58 3.277,-1.151 4.923,-1.702 0.706,-0.236 1.417,-0.458 2.126,-0.689 1.289,-0.42 2.577,-0.841 3.871,-1.243 0.81,-0.251 1.623,-0.489 2.435,-0.734 1.2,-0.361 2.4,-0.722 3.604,-1.068 0.858,-0.246 1.719,-0.481 2.579,-0.72 1.165,-0.322 2.33,-0.644 3.499,-0.952 0.884,-0.233 1.771,-0.458 2.657,-0.683 1.154,-0.292 2.308,-0.581 3.465,-0.86 0.898,-0.216 1.797,-0.426 2.697,-0.634 1.151,-0.265 2.304,-0.525 3.459,-0.777 0.907,-0.198 1.815,-0.391 2.723,-0.581 1.158,-0.241 2.318,-0.473 3.479,-0.7 0.906,-0.177 1.812,-0.353 2.719,-0.522 1.175,-0.218 2.353,-0.425 3.531,-0.629 0.897,-0.155 1.794,-0.312 2.692,-0.459 1.206,-0.197 2.414,-0.38 3.623,-0.563 0.873,-0.131 1.745,-0.267 2.619,-0.391 1.265,-0.179 2.533,-0.341 3.801,-0.504 0.822,-0.105 1.642,-0.218 2.465,-0.316 1.402,-0.168 2.808,-0.316 4.213,-0.464 0.691,-0.072 1.381,-0.155 2.073,-0.222 2.09,-0.205 4.183,-0.39 6.279,-0.55 0.008,-0.001 0.016,-0.002 0.025,-0.003 C 65.581,82.347 60.296,76.263 54.573,70.62 53.427,69.49 52.269,68.371 51.088,67.278 M 68.028,29.87 c 1.422,0.992 2.917,2.016 4.442,3.026 0.444,0.294 0.889,0.586 1.337,0.876 1.177,0.762 2.362,1.504 3.541,2.209 4.965,2.969 9.788,5.242 13.077,5.167 1.135,-0.026 2.087,-0.331 2.8,-0.982 1.274,-1.166 0.455,-2.559 0.736,-3.275 0.065,-0.166 0.188,-0.295 0.409,-0.377 1.041,-0.385 2.385,-0.3 3.913,-0.16 0.611,0.056 1.252,0.121 1.915,0.168 0.994,0.071 2.038,0.103 3.107,0.006 1.069,-0.097 2.162,-0.323 3.255,-0.767 0.364,-0.148 0.728,-0.32 1.091,-0.52 0.726,-0.399 1.448,-0.909 2.159,-1.555 0.885,-0.804 1.138,-1.568 1.179,-2.226 0.051,-0.846 -0.25,-1.516 -0.018,-1.869 0.087,-0.132 0.268,-0.186 0.515,-0.235 0.303,-0.061 0.71,-0.114 1.236,-0.285 2.483,-0.808 4.117,-2.302 5.069,-4.124 2.696,-5.163 -0.088,-12.956 -4.566,-15.214 -0.042,-0.021 -0.086,-0.034 -0.128,-0.054 -0.359,-0.171 -0.73,-0.299 -1.107,-0.395 -2.092,-0.532 -4.444,0.134 -6.739,2.73 -3.216,-3.603 -9.817,-0.719 -10.313,4.69 0,0 0,0 0,0 v 0 c -0.516,-0.102 -1.01,-0.143 -1.479,-0.13 -3.285,0.088 -5.365,2.831 -5.264,6.295 -2.154,-1.298 -4.208,-2.501 -6.247,-3.574 -2.443,-1.286 -4.868,-2.373 -7.411,-3.177 -0.752,-0.237 -1.51,-0.459 -2.287,-0.644 -1.867,-0.446 -3.817,-0.734 -5.903,-0.835 -2.782,-0.134 -5.804,0.067 -9.191,0.676 -0.41,0.074 -0.806,0.147 -1.182,0.218 -0.376,0.071 -0.732,0.14 -1.06,0.207 -0.653,0.095 -1.348,0.209 -2.08,0.351 l -0.029,0.005 c -0.909,0.154 -1.836,0.37 -2.781,0.655 l -0.02,0.006 c -1.66,0.459 -3.415,1.059 -5.029,1.733 -0.538,0.225 -1.061,0.458 -1.559,0.697 -2.275,1.089 -4.043,2.299 -5.04,3.121 -0.499,0.412 -0.806,0.726 -1.002,0.965 -0.196,0.239 -0.282,0.403 -0.339,0.512 -0.029,0.054 -0.05,0.095 -0.058,0.122 -0.008,0.027 -0.002,0.039 0.023,0.038 0.051,-0.004 0.18,-0.066 0.44,-0.189 0.195,-0.093 0.463,-0.221 0.813,-0.377 0.117,-0.053 0.242,-0.108 0.377,-0.166 0.216,-0.093 0.463,-0.195 0.727,-0.302 0.4,-0.161 0.849,-0.335 1.368,-0.523 0.431,-0.156 0.905,-0.32 1.412,-0.482 0.76,-0.243 1.594,-0.48 2.466,-0.678 0.582,-0.131 1.181,-0.245 1.787,-0.33 0.303,-0.043 0.608,-0.078 0.914,-0.106 0.916,-0.081 1.836,-0.088 2.783,-0.009 1.577,0.133 3.228,0.505 5.054,1.168 0.628,0.229 1.277,0.491 1.941,0.781 0.663,0.289 1.341,0.606 2.027,0.943 l 0.257,0.163 c 1.782,1.144 4.432,3.063 7.495,5.215 0.383,0.269 0.772,0.542 1.167,0.817 m 60.395,-10.1 c 0.098,1.177 0.091,2.361 -0.025,3.528 -0.058,0.583 -0.142,1.162 -0.254,1.734 -0.674,3.44 -2.274,6.148 -4.789,8.564 -1.133,1.089 -3.002,2.347 -3.877,3.56 -1.016,1.41 -1.229,2.997 -2.544,4.532 -1.841,2.146 -4.545,3.008 -7.26,3.363 -2.2,0.288 -4.617,0.177 -6.755,0.681 -1.36,0.32 -2.396,1.039 -3.524,1.829 -0.228,0.159 -0.451,0.312 -0.67,0.457 -1.539,1.021 -2.931,1.708 -4.853,2.147 -1.531,0.349 -3.139,0.496 -4.746,0.47 -0.959,-0.016 -1.916,-0.101 -2.857,-0.234 -0.637,-0.091 -1.268,-0.2 -1.885,-0.339 -4.102,-0.931 -7.788,-2.972 -11.186,-5.391 -0.485,-0.346 -0.965,-0.699 -1.439,-1.058 -1.307,-0.989 -2.581,-2.023 -3.845,-3.071 -1.264,-1.048 -2.517,-2.109 -3.783,-3.154 0.013,0.053 0.026,0.106 0.039,0.158 1.465,6.076 0.849,12.95 -1.742,18.677 -0.19,0.42 -0.364,0.848 -0.575,1.255 7.103,6.667 13.622,13.949 19.474,21.759 1.672,2.232 3.289,4.507 4.85,6.823 1.561,2.316 3.066,4.673 4.511,7.069 2.169,3.595 4.207,7.278 6.106,11.043 1.899,3.764 3.66,7.611 5.276,11.532 0.538,1.307 1.061,2.622 1.567,3.946 7.087,18.529 10.97,38.643 10.97,59.666 v 0 c 0,1.966 -0.047,3.92 -0.114,5.869 -7.097,-0.539 -14.268,-0.815 -21.503,-0.815 -14.998,0 -29.718,1.184 -44.074,3.461 l -7.23,45.518 c 1.776,-0.229 3.556,-0.441 5.339,-0.629 l 4.341,-0.459 3.594,13.584 v 0 l -1.302,0.138 c -4.784,0.506 -9.545,1.14 -14.28,1.9 l -0.005,0.029 c -25.22,4.019 -49.299,11.865 -71.614,22.899 -1.284,0.635 -2.561,1.282 -3.834,1.938 -0.73,0.376 -1.465,0.746 -2.192,1.129 -8.569,-4.524 -17.421,-8.561 -26.507,-12.094 -16.343,-6.353 -33.457,-11.055 -51.133,-13.872 l -0.004,-0.029 c -4.736,-0.76 -9.497,-1.394 -14.28,-1.9 l -1.302,-0.138 3.594,-13.584 4.34,0.459 c 1.784,0.188 3.564,0.4 5.34,0.629 l -3.615,-22.759 -3.615,-22.759 c -0.045,-0.007 -0.089,-0.013 -0.134,-0.02 -14.296,-2.26 -28.953,-3.438 -43.885,-3.44 -0.018,0 -0.037,-0.001 -0.055,-0.001 -1.809,0 -3.614,0.017 -5.414,0.052 -5.402,0.102 -10.766,0.359 -16.089,0.763 -0.034,-0.974 -0.062,-1.95 -0.082,-2.928 -0.02,-0.978 -0.032,-1.958 -0.032,-2.941 0,-42.045 15.53,-80.456 41.164,-109.823 3.663,-4.195 7.531,-8.205 11.589,-12.015 -3.095,-5.953 -3.889,-13.411 -2.316,-19.932 0.012,-0.052 0.025,-0.105 0.039,-0.158 -2.532,2.089 -5.014,4.246 -7.628,6.225 -0.474,0.359 -0.954,0.712 -1.44,1.058 -2.912,2.073 -6.036,3.869 -9.453,4.926 -0.569,0.176 -1.147,0.332 -1.733,0.465 -1.527,0.346 -3.134,0.546 -4.741,0.573 -0.402,0.006 -0.804,0.002 -1.204,-0.014 -1.203,-0.046 -2.394,-0.195 -3.543,-0.456 -1.373,-0.314 -2.475,-0.754 -3.553,-1.352 -0.216,-0.119 -0.431,-0.245 -0.647,-0.378 -0.431,-0.264 -0.867,-0.555 -1.322,-0.874 -1.128,-0.79 -2.164,-1.509 -3.525,-1.829 -0.267,-0.063 -0.538,-0.117 -0.813,-0.162 -1.926,-0.32 -4.016,-0.267 -5.941,-0.519 -0.679,-0.089 -1.357,-0.209 -2.021,-0.374 -0.996,-0.246 -1.961,-0.591 -2.849,-1.076 -0.888,-0.484 -1.7,-1.108 -2.39,-1.913 -0.822,-0.959 -1.213,-1.939 -1.639,-2.883 -0.086,-0.189 -0.172,-0.376 -0.264,-0.562 -0.183,-0.371 -0.387,-0.734 -0.641,-1.087 -0.11,-0.151 -0.235,-0.304 -0.372,-0.456 -0.137,-0.153 -0.286,-0.306 -0.444,-0.459 -0.948,-0.917 -2.212,-1.828 -3.062,-2.645 -0.628,-0.604 -1.2,-1.226 -1.714,-1.873 -0.514,-0.648 -0.971,-1.32 -1.37,-2.025 -0.799,-1.409 -1.367,-2.946 -1.704,-4.666 -0.448,-2.288 -0.46,-4.691 -0.053,-7.019 0.406,-2.328 1.23,-4.582 2.454,-6.573 0.181,-0.293 0.395,-0.567 0.592,-0.851 2.567,-3.688 6.478,-6.525 10.641,-8.26 0.641,-0.267 1.287,-0.508 1.934,-0.723 2.808,-0.931 5.677,-1.339 8.57,-1.388 1.737,-0.03 3.482,0.069 5.229,0.261 7.157,-4.426 16.696,-8.082 25.73,-8.084 4.106,-10e-4 8.109,0.753 11.735,2.533 l 5.859,-2.693 1.465,-0.674 c 0.065,-0.03 0.133,-0.045 0.198,-0.073 0.26,-0.11 0.519,-0.216 0.793,-0.293 3.666,-1.04 7.394,-1.589 11.102,-1.673 11.123,-0.253 22.067,3.678 30.626,11.103 5.479,-5.486 12.352,-9.528 19.791,-12.338 2.125,-0.803 4.297,-1.506 6.496,-2.113 5.496,-1.518 11.161,-2.439 16.693,-2.842 2.213,-0.161 4.404,-0.239 6.555,-0.239 v 0 c 7.529,0 15.554,0.956 23.249,3.081 1.099,0.303 2.192,0.631 3.275,0.983 2.167,0.704 4.297,1.505 6.372,2.41 4.149,1.81 8.074,4.031 11.621,6.704 1.774,1.337 3.453,2.786 5.019,4.354 8.558,-7.425 19.502,-11.356 30.626,-11.103 0.15,0.003 0.301,0.019 0.452,0.024 1.314,0.044 2.629,0.155 3.943,0.316 2.246,0.276 4.488,0.703 6.707,1.333 0.342,0.097 0.667,0.217 0.991,0.366 l 7.323,3.367 c 3.627,-1.78 7.629,-2.534 11.735,-2.533 0.893,0.001 1.791,0.039 2.691,0.108 0.657,0.05 1.315,0.119 1.972,0.203 1.039,0.133 2.078,0.306 3.113,0.517 2.05,0.417 4.083,0.978 6.068,1.65 0.633,0.214 1.261,0.44 1.883,0.676 0.278,0.105 0.553,0.214 0.829,0.323 3.301,1.312 6.416,2.901 9.175,4.607 1.747,-0.192 3.492,-0.291 5.228,-0.261 0.024,0 0.047,0.002 0.071,0.003 1.082,0.02 2.161,0.094 3.234,0.224 1.199,0.145 2.391,0.36 3.574,0.664 0.566,0.146 1.13,0.311 1.692,0.497 0.647,0.215 1.293,0.456 1.933,0.723 4.484,1.869 8.703,4.998 11.233,9.111 0.306,0.498 0.587,1.012 0.843,1.54 0.45,0.927 0.807,1.901 1.099,2.896 0.07,0.24 0.138,0.479 0.199,0.721 0.263,1.041 0.451,2.103 0.54,3.173"
             style="fill:#000000;fill-opacity:1;fill-rule:evenodd;stroke:none"
             id="path38" />
        </g>
        <g
           id="g40"
           transform="translate(354.6228,501.4151)">
          <path
             d="m 0,0 c -5.208,0 -9.428,-4.221 -9.428,-9.429 0,-5.207 4.22,-9.428 9.428,-9.428 5.208,0 9.429,4.221 9.429,9.428 C 9.429,-4.221 5.208,0 0,0"
             style="fill:#000000;fill-opacity:1;fill-rule:evenodd;stroke:none"
             id="path42" />
        </g>
        <g
           id="g44"
           transform="translate(430.831,501.4151)">
          <path
             d="m 0,0 c -5.208,0 -9.429,-4.221 -9.429,-9.429 0,-5.207 4.221,-9.428 9.429,-9.428 5.208,0 9.428,4.221 9.428,9.428 C 9.428,-4.221 5.208,0 0,0"
             style="fill:#000000;fill-opacity:1;fill-rule:evenodd;stroke:none"
             id="path46" />
        </g>
        <g
           id="g48"
           transform="translate(392.0586,516.415)">
          <path
             d="m 0,0 c -5.208,0 -9.429,-4.221 -9.429,-9.429 0,-5.207 4.221,-9.428 9.429,-9.428 5.207,0 9.428,4.221 9.428,9.428 C 9.428,-4.221 5.207,0 0,0"
             style="fill:#000000;fill-opacity:1;fill-rule:evenodd;stroke:none"
             id="path50" />
        </g>
        <g
           id="g52"
           transform="translate(175.8588,311.1041)">
          <path
             d="M 0,0 C 1.784,-105.058 139.683,-187.887 216.867,-219.034 294.052,-187.887 431.952,-105.058 433.736,0 393.271,120.951 405.99,206.059 422.093,254.052 354.697,250.732 276.528,253.011 216.867,324.89 157.211,253.016 79.034,250.728 11.642,254.052 27.744,206.059 40.463,120.953 0,0 m 212.205,-244.86 c -88.378,34.369 -237.949,125.052 -237.949,246.914 0,1.402 0.229,2.795 0.679,4.123 44.693,132.061 22.824,217.51 5.812,256.69 -3.779,8.699 2.861,18.48 12.55,17.965 72.583,-4.24 154.857,-9.049 213.097,72.615 5.121,7.176 15.81,7.197 20.947,0 58.24,-81.664 140.508,-76.856 213.097,-72.615 9.685,0.504 16.332,-9.259 12.549,-17.965 -17.012,-39.18 -38.88,-124.629 5.815,-256.69 0.449,-1.328 0.678,-2.721 0.678,-4.123 0,-121.864 -149.572,-212.545 -237.951,-246.914 -2.912,-1.131 -6.234,-1.2 -9.324,0"
             style="fill:#000000;fill-opacity:1;fill-rule:nonzero;stroke:none"
             id="path54" />
        </g>
      </g>
    </g>
  </g>
</svg>
