<svg width="369.125px" height="363.8px" xmlns="http://www.w3.org/2000/svg" viewBox="65.4375 -106.9 369.125 363.8" style="background: none;" preserveAspectRatio="xMidYMid"><defs><filter id="editing-offset"><feFlood flood-color="#927ee1" flood-opacity="0.5" result="c1"></feFlood><feFlood flood-color="#9f6cc5" flood-opacity="0.5" result="c2"></feFlood><feFlood flood-color="#510159" flood-opacity="0.5" result="c3"></feFlood><feComposite operator="in" in="c1" in2="SourceAlpha" result="text-c1"></feComposite><feComposite operator="in" in="c2" in2="SourceAlpha" result="text-c2"></feComposite><feComposite operator="in" in="c3" in2="SourceAlpha" result="text-c3"></feComposite><feOffset in="text-c1" dx="-10" dy="0" result="text1"></feOffset><feOffset in="text-c2" dx="10" dy="0" result="text2"></feOffset><feOffset in="text-c3" dx="0" dy="0" result="text3"></feOffset><feMerge><feMergeNode in="text1"></feMergeNode><feMergeNode in="text2"></feMergeNode><feMergeNode in="text3"></feMergeNode></feMerge></filter></defs><g filter="url(#editing-offset)"><g transform="translate(122.48998379707336, 139.64500045776367)"><path d="M52.73-107.65L52.73-107.65L55.60-107.65L55.60-107.65Q60.84-106.64 60.84-102.41L60.84-102.41L60.84-102.41Q60.84-101.23 57.63-97.51L57.63-97.51L57.63-89.06L57.63-89.06Q57.63-76.90 63.38-15.21L63.38-15.21L63.38-15.21Q63.38 8.45 49.18 8.45L49.18 8.45L49.18 8.45Q37.35 8.45 14.37-24.67L14.37-24.67L14.37-24.67Q6.93-24.67 4.90-29.91L4.90-29.91L3.72-34.14L3.72-34.14Q5.24-40.56 9.46-40.56L9.46-40.56L9.46-40.56Q18.93-36.67 37.01-10.48L37.01-10.48L37.01-10.48Q45.97-1.52 49.18-1.52L49.18-1.52L50.19-1.52L50.19-1.52Q52.73-2.70 52.73-9.46L52.73-9.46L52.73-20.11L47.49-83.49L47.15-94.47L47.15-94.47Q47.15-107.65 52.73-107.65ZM97.34-110.19L97.34-110.19L97.34-110.19Q100.39-110.19 102.58-104.95L102.58-104.95L102.58-104.95Q95.82-86.36 95.82-70.14L95.82-70.14L95.82-64.39L95.82-64.39Q95.82-45.46 105.46-45.46L105.46-45.46L105.46-45.46Q117.79-45.46 122.36-88.73L122.36-88.73L122.36-88.73Q122.36-108.84 125.91-108.84L125.91-108.84L128.61-109.17L128.61-109.17Q132.16-109.17 132.83-103.43L132.83-103.43L132.83-46.48L132.83-46.48Q132.83 6.76 114.92 15.89L114.92 15.89L114.92 15.89Q111.54 17.75 104.78 19.10L104.78 19.10L104.78 19.10Q89.91 19.10 70.98 1.69L70.98 1.69L70.47-0.34L70.47-0.34Q70.47-4.23 76.22-5.24L76.22-5.24L89.57 4.23L89.57 4.23Q97.34 8.45 101.23 8.45L101.23 8.45L105.79 8.45L105.79 8.45Q122.69 8.45 122.69-43.77L122.69-43.77L122.69-45.80L121.17-45.80L121.17-45.80Q114.75-35.83 104.78-35.83L104.78-35.83L104.78-35.83Q92.44-35.83 87.37-51.71L87.37-51.71L87.37-51.71Q85.68-57.97 85.68-64.39L85.68-64.39L85.68-65.91L85.68-65.91Q88.39-110.19 97.34-110.19ZM171.03-96.16L171.03-96.16L171.70-96.16L171.70-96.16Q192.15-92.44 192.15-76.39L192.15-76.39L192.15-73.35L192.15-73.35Q192.15-55.60 169.51-38.03L169.51-38.03L169.51-37.35L169.51-37.35Q206.18-4.56 220.21-4.56L220.21-4.56L220.21-4.56Q222.74-2.70 222.74 0L222.74 0L222.74 0Q222.74 3.89 217.00 4.90L217.00 4.90L217.00 4.90Q202.97 4.90 164.61-28.90L164.61-28.90L157.34-32.79L156.83-32.79L156.83-32.79Q161.56-13.86 161.56-3.55L161.56-3.55L161.56-3.55Q161.56 0.85 156.16 2.70L156.16 2.70L156.16 2.70Q148.38 2.70 146.35-35.32L146.35-35.32L146.35-35.32Q140.95-52.90 140.95-63.38L140.95-63.38L140.95-64.90L140.95-64.90Q140.95-80.28 147.71-80.28L147.71-80.28L150.92-78.59L151.93-78.59L151.93-78.59Q160.04-96.16 171.03-96.16ZM157.34-51.04L157.34-51.04L156.83-44.79L156.83-44.79Q172.55-44.79 182.18-70.81L182.18-70.81L182.18-77.06L182.18-77.06Q182.18-84.50 172.04-86.02L172.04-86.02L171.03-86.02L171.03-86.02Q160.38-86.02 157.34-51.04ZM237.95-93.63L237.95-93.63L237.95-93.63Q242.01-93.63 243.19-89.40L243.19-89.40L242.18-79.43L242.18-76.22L242.18-76.22Q246.40-41.24 247.42-21.80L247.42-21.80L247.42-21.80Q249.28-3.72 251.30-3.72L251.30-3.72L251.30-3.72Q251.30-0.17 245.39 0.85L245.39 0.85L245.39 0.85Q236.94 0.85 236.94-33.29L236.94-33.29L232.21-77.23L232.21-78.75L232.21-78.75Q232.21-93.63 237.95-93.63Z"></path></g></g><style>text {
  font-size: 64px;
  font-family: Arial Black;
  dominant-baseline: central;
  text-anchor: middle;
}</style></svg>