<?xml version="1.0" standalone="no"?>
<!DOCTYPE svg PUBLIC "-//W3C//DTD SVG 20010904//EN"
 "http://www.w3.org/TR/2001/REC-SVG-20010904/DTD/svg10.dtd">
<svg version="1.0" xmlns="http://www.w3.org/2000/svg"
 width="1226.000000pt" height="1116.000000pt" viewBox="0 0 1226.000000 1116.000000"
 preserveAspectRatio="xMidYMid meet">

<g transform="translate(0.000000,1116.000000) scale(0.100000,-0.100000)"
fill="#000000" stroke="none">
<path d="M5088 10263 c7 -3 16 -2 19 1 4 3 -2 6 -13 5 -11 0 -14 -3 -6 -6z"/>
<path d="M5115 10254 c-20 -15 -12 -17 19 -5 11 4 15 10 10 13 -5 4 -18 0 -29
-8z"/>
<path d="M5458 10263 c23 -2 59 -2 80 0 20 2 1 4 -43 4 -44 0 -61 -2 -37 -4z"/>
<path d="M5298 10253 c6 -2 18 -2 25 0 6 3 1 5 -13 5 -14 0 -19 -2 -12 -5z"/>
<path d="M5981 10230 c26 -4 56 -13 67 -19 11 -6 27 -11 34 -10 30 1 -80 38
-112 37 -31 0 -30 -1 11 -8z"/>
<path d="M4833 10203 c9 -2 23 -2 30 0 6 3 -1 5 -18 5 -16 0 -22 -2 -12 -5z"/>
<path d="M5700 10205 c0 -2 33 -14 73 -26 126 -37 296 -130 410 -223 32 -26
61 -46 63 -43 2 2 -29 36 -70 75 -54 51 -98 82 -158 111 -115 55 -318 123
-318 106z"/>
<path d="M5930 10192 c0 -9 109 -62 128 -62 5 0 54 -29 108 -65 54 -36 103
-65 109 -65 29 1 -191 152 -252 174 -61 21 -93 27 -93 18z"/>
<path d="M6108 10193 c7 -3 16 -2 19 1 4 3 -2 6 -13 5 -11 0 -14 -3 -6 -6z"/>
<path d="M6261 10196 c2 -2 31 -6 64 -9 39 -4 54 -3 45 3 -14 9 -119 15 -109
6z"/>
<path d="M6173 10183 c15 -2 37 -2 50 0 12 2 0 4 -28 4 -27 0 -38 -2 -22 -4z"/>
<path d="M4511 10075 c-52 -57 -56 -89 -6 -48 16 13 17 15 3 10 -27 -10 -22 3
19 45 20 21 34 38 31 38 -3 0 -24 -20 -47 -45z"/>
<path d="M6260 10089 c19 -17 67 -53 106 -79 78 -53 127 -107 199 -218 26 -40
49 -71 52 -68 11 11 -63 130 -119 190 -32 35 -103 96 -157 135 -104 74 -141
92 -81 40z"/>
<path d="M6550 10096 c0 -2 14 -14 30 -26 17 -12 30 -19 30 -16 0 2 -13 14
-30 26 -16 12 -30 19 -30 16z"/>
<path d="M5706 10061 c5 -4 38 -16 74 -25 104 -28 246 -75 307 -101 31 -14 58
-23 60 -21 18 18 -176 92 -342 131 -103 24 -109 25 -99 16z"/>
<path d="M6488 10001 c121 -140 155 -216 183 -410 11 -74 22 -137 25 -140 31
-32 -21 300 -68 426 -20 54 -97 135 -169 177 -29 17 -25 10 29 -53z"/>
<path d="M6089 9980 c21 -18 51 -27 51 -15 0 6 -56 35 -67 35 -4 -1 3 -10 16
-20z"/>
<path d="M5390 9981 c0 -8 50 -11 159 -11 174 0 245 -12 436 -73 98 -31 102
-33 181 -112 44 -44 104 -115 132 -158 49 -75 71 -83 36 -14 -36 71 -183 238
-243 277 -26 16 -89 43 -141 61 -95 33 -96 33 -327 37 -166 3 -233 1 -233 -7z"/>
<path d="M6730 9986 c0 -2 8 -10 18 -17 15 -13 16 -12 3 4 -13 16 -21 21 -21
13z"/>
<path d="M4905 9933 c-75 -18 -286 -126 -273 -139 5 -4 283 128 296 140 3 3 3
5 1 5 -2 -1 -13 -3 -24 -6z"/>
<path d="M5125 9930 c-11 -4 -36 -13 -55 -18 -27 -8 -8 -9 80 -5 180 8 396
-26 468 -73 13 -9 26 -13 29 -11 9 10 -71 56 -131 77 -100 34 -337 53 -391 30z"/>
<path d="M5580 9935 c0 -2 42 -26 93 -52 66 -34 114 -69 170 -122 89 -85 138
-155 208 -296 40 -80 52 -114 56 -165 6 -84 11 -100 23 -80 12 19 13 77 1 84
-4 3 -11 27 -14 54 -18 157 -142 336 -350 508 -84 70 -92 74 -138 74 -27 0
-49 -2 -49 -5z"/>
<path d="M6680 9926 c0 -4 17 -39 37 -79 23 -46 38 -66 41 -55 4 19 -42 111
-65 129 -7 6 -13 9 -13 5z"/>
<path d="M4925 9823 c-33 -8 -64 -20 -70 -25 -7 -7 -3 -8 10 -5 11 3 55 13 98
22 42 9 77 19 77 21 0 8 -57 2 -115 -13z"/>
<path d="M5951 9808 c120 -108 151 -131 158 -119 11 17 82 -65 126 -144 58
-104 80 -194 80 -325 0 -76 -5 -126 -14 -148 -7 -18 -11 -35 -7 -39 3 -3 13
11 23 33 13 29 17 69 17 159 0 106 -3 129 -28 200 -36 104 -84 182 -164 267
-62 66 -151 128 -203 142 -21 6 -19 2 12 -26z"/>
<path d="M6940 9807 c0 -3 12 -12 26 -22 15 -9 23 -12 20 -6 -7 11 -46 35 -46
28z"/>
<path d="M5100 9789 c-108 -13 -179 -31 -192 -47 -11 -13 -10 -15 12 -8 70 20
204 35 360 41 l175 6 85 -30 c46 -17 86 -29 88 -27 11 11 -122 60 -183 67 -86
10 -258 9 -345 -2z"/>
<path d="M4032 9716 c-20 -19 -35 -36 -32 -39 3 -3 23 13 45 34 49 48 39 52
-13 5z"/>
<path d="M7060 9704 c0 -3 18 -27 40 -53 48 -57 52 -76 8 -35 l-32 29 28 -35
c47 -58 73 -62 45 -7 -12 23 -89 110 -89 101z"/>
<path d="M6378 9627 c21 -41 49 -114 62 -163 28 -105 40 -95 14 12 -18 80 -80
215 -101 222 -7 2 4 -30 25 -71z"/>
<path d="M5526 9671 c-4 -5 0 -12 6 -15 7 -3 -68 -2 -167 1 -105 3 -190 1
-205 -4 -17 -7 24 -12 150 -16 230 -8 289 -22 415 -102 l30 -19 -30 33 c-16
17 -61 47 -99 66 -44 23 -61 35 -46 35 19 0 20 2 10 15 -14 17 -56 20 -64 6z"/>
<path d="M5700 9620 c35 -28 65 -48 68 -45 8 8 -17 32 -66 65 -70 47 -72 36
-2 -20z"/>
<path d="M6894 9650 c3 -14 6 -33 6 -43 0 -10 5 -15 10 -12 15 9 12 39 -6 61
-15 18 -15 18 -10 -6z"/>
<path d="M3937 9602 c-39 -40 -47 -72 -22 -92 8 -7 15 -26 15 -43 0 -51 9 -25
21 58 6 44 15 87 20 97 14 26 7 22 -34 -20z"/>
<path d="M5924 9610 c2 -8 16 -42 30 -75 14 -33 26 -68 26 -77 0 -9 5 -20 10
-23 27 -16 -14 122 -47 161 -13 16 -22 22 -19 14z"/>
<path d="M4973 9601 c-135 -10 -103 -19 49 -14 195 7 296 21 143 20 -60 0
-147 -3 -192 -6z"/>
<path d="M6114 9565 c4 -16 12 -34 18 -40 7 -7 8 -1 4 20 -4 17 -12 35 -18 40
-7 7 -8 1 -4 -20z"/>
<path d="M5117 9550 c-20 -4 -40 -10 -44 -14 -9 -8 135 3 187 14 28 7 22 8
-35 8 -38 0 -87 -4 -108 -8z"/>
<path d="M7136 9504 c-3 -9 -2 -12 5 -9 5 4 16 1 24 -5 18 -15 20 1 3 18 -16
16 -25 15 -32 -4z"/>
<path d="M6136 9415 c4 -49 8 -92 10 -94 8 -9 2 145 -7 164 -5 13 -7 -12 -3
-70z"/>
<path d="M5090 9431 c0 -4 31 -13 69 -20 98 -18 226 -64 280 -102 25 -18 80
-60 121 -94 88 -72 100 -80 100 -66 0 5 -43 48 -96 95 -106 93 -220 158 -305
174 -78 15 -169 22 -169 13z"/>
<path d="M7210 9394 c0 -6 7 -19 16 -30 14 -18 14 -18 3 6 -14 31 -19 36 -19
24z"/>
<path d="M5028 9367 c-54 -6 -98 -14 -98 -18 0 -5 14 -9 31 -9 91 0 307 -45
418 -88 10 -4 13 -1 8 11 -5 14 -2 16 20 11 43 -11 18 13 -50 48 -115 58 -152
63 -329 45z"/>
<path d="M7241 9324 c0 -11 3 -14 6 -6 3 7 2 16 -1 19 -3 4 -6 -2 -5 -13z"/>
<path d="M5975 9276 c-8 -59 1 -136 16 -136 5 0 9 43 9 95 0 104 -15 127 -25
41z"/>
<path d="M5040 9311 c0 -4 40 -27 89 -49 114 -54 141 -63 141 -53 0 10 -198
111 -217 111 -7 0 -13 -4 -13 -9z"/>
<path d="M7299 9253 c5 -10 22 -29 37 -43 17 -15 22 -17 14 -6 -14 18 -13 19
8 14 30 -8 28 -5 -18 26 -47 31 -54 32 -41 9z"/>
<path d="M4875 9226 c-22 -7 -54 -21 -70 -31 -34 -22 -164 -120 -210 -159 -56
-48 -10 -26 75 35 114 81 172 110 239 116 31 3 67 12 81 20 22 12 34 11 95 -6
38 -11 71 -18 73 -16 7 7 -36 25 -94 40 -69 18 -134 18 -189 1z"/>
<path d="M5630 9222 c0 -21 32 -50 158 -143 32 -23 42 -27 42 -15 0 9 -19 28
-42 43 -24 15 -69 52 -100 82 -50 48 -58 52 -58 33z"/>
<path d="M3796 9167 c-28 -65 -83 -209 -90 -239 l-6 -28 35 17 c19 9 35 24 35
32 0 9 14 36 30 61 27 39 30 41 24 16 -4 -19 -3 -27 4 -25 23 8 164 143 153
147 -6 2 -38 -14 -71 -36 -33 -22 -60 -37 -60 -32 0 5 5 10 10 12 9 3 -33 118
-42 118 -2 0 -11 -19 -22 -43z"/>
<path d="M4403 9118 c-74 -52 -196 -158 -189 -165 3 -3 40 26 83 64 43 37 99
84 126 102 42 31 53 41 44 41 -2 0 -31 -19 -64 -42z"/>
<path d="M4840 9118 c-84 -32 -257 -138 -226 -138 3 0 49 23 102 51 53 29 128
65 168 80 55 22 64 28 41 28 -16 0 -55 -10 -85 -21z"/>
<path d="M4861 9074 c-53 -14 -86 -32 -77 -41 7 -7 166 41 166 49 0 11 -27 9
-89 -8z"/>
<path d="M6715 9074 c-16 -8 -21 -11 -10 -8 11 3 45 10 75 14 l55 7 -45 1
c-25 1 -58 -6 -75 -14z"/>
<path d="M7605 9083 c6 -6 28 -20 50 -32 22 -13 31 -15 20 -6 -22 18 -86 53
-70 38z"/>
<path d="M5985 9067 c-4 -10 -5 -21 -1 -24 10 -10 18 4 13 24 -4 17 -4 17 -12
0z"/>
<path d="M6899 9049 c35 -16 66 -28 68 -26 4 5 -111 57 -123 57 -5 -1 20 -14
55 -31z"/>
<path d="M5901 9008 c1 -37 2 -39 9 -18 7 22 8 20 10 -15 3 -59 14 -100 25
-98 5 1 11 7 13 15 3 10 2 10 -6 -1 -7 -9 -11 1 -16 35 -14 107 -18 124 -27
124 -5 0 -9 -19 -8 -42z"/>
<path d="M6598 9033 c7 -3 16 -2 19 1 4 3 -2 6 -13 5 -11 0 -14 -3 -6 -6z"/>
<path d="M6006 9000 c10 -58 18 -63 36 -25 8 19 11 35 6 35 -5 0 -12 -8 -15
-17 -6 -14 -9 -12 -20 12 l-13 30 6 -35z"/>
<path d="M6462 8998 c-51 -17 -91 -32 -89 -34 2 -3 51 11 108 30 57 19 97 35
89 35 -8 0 -57 -14 -108 -31z"/>
<path d="M7700 9027 c0 -2 25 -21 55 -42 30 -20 55 -42 55 -47 0 -5 -4 -6 -10
-3 -5 3 -10 4 -10 2 0 -5 68 -47 76 -47 2 0 -3 11 -11 24 -17 25 -155 127
-155 113z"/>
<path d="M7045 8982 c100 -54 174 -103 233 -156 29 -25 65 -52 80 -60 56 -29
149 -144 260 -323 61 -99 128 -214 147 -254 20 -41 33 -63 29 -49 -12 45 -54
122 -168 305 -86 140 -128 197 -187 255 -125 124 -266 228 -396 294 -79 40
-78 31 2 -12z"/>
<path d="M5255 8993 c-11 -2 -55 -11 -97 -19 -76 -14 -214 -56 -226 -69 -4 -3
-1 -9 5 -13 8 -5 -17 -25 -64 -52 -62 -37 -93 -65 -169 -155 -51 -60 -123
-144 -160 -185 -117 -131 -260 -330 -237 -330 5 0 46 34 92 75 47 41 87 72 89
70 6 -6 -20 -45 -103 -155 -78 -102 -115 -159 -115 -175 0 -5 11 9 25 33 13
23 60 89 104 146 82 105 109 151 98 162 -7 7 -28 -8 -116 -84 -28 -24 -51 -40
-51 -35 0 16 160 221 253 325 51 57 117 132 146 168 104 128 214 187 420 225
101 18 143 20 121 4 -11 -8 -7 -9 19 -5 18 3 45 6 59 6 19 0 23 3 15 11 -8 8
-43 10 -102 7 -50 -2 -89 -3 -88 -2 1 2 38 10 82 19 110 23 285 1 377 -47 l43
-23 -35 -7 -35 -6 39 1 c48 2 57 19 19 34 l-28 11 30 2 c28 2 27 3 -10 11 -22
4 -94 19 -160 33 -111 24 -190 30 -240 19z"/>
<path d="M5963 8955 c0 -27 2 -38 4 -22 2 15 2 37 0 50 -2 12 -4 0 -4 -28z"/>
<path d="M6083 8993 c9 -2 25 -2 35 0 9 3 1 5 -18 5 -19 0 -27 -2 -17 -5z"/>
<path d="M6215 8970 c39 -31 75 -36 125 -20 16 6 7 7 -27 3 -46 -5 -57 -2 -87
21 -48 36 -57 33 -11 -4z"/>
<path d="M7710 8986 c0 -3 9 -10 20 -16 11 -6 20 -8 20 -6 0 3 -9 10 -20 16
-11 6 -20 8 -20 6z"/>
<path d="M5879 8925 c-11 -23 -12 -32 -3 -28 11 4 29 52 22 58 -2 1 -10 -12
-19 -30z"/>
<path d="M5765 8921 c33 -3 67 -10 75 -14 8 -5 6 -1 -4 7 -14 11 -38 16 -75
14 l-56 -1 60 -6z"/>
<path d="M5127 8904 c-65 -16 -117 -40 -117 -55 0 -19 28 -20 66 -3 22 9 84
23 139 30 l100 13 -89 -5 c-52 -3 -109 -13 -138 -25 -54 -21 -68 -23 -68 -10
0 14 77 41 161 56 44 8 60 13 39 13 -19 0 -61 -6 -93 -14z"/>
<path d="M5403 8873 c37 -2 97 -2 135 0 37 2 6 3 -68 3 -74 0 -105 -1 -67 -3z"/>
<path d="M7880 8825 c19 -19 36 -35 39 -35 3 0 -10 16 -29 35 -19 19 -36 35
-39 35 -3 0 10 -16 29 -35z"/>
<path d="M4296 8785 c-32 -25 -62 -45 -67 -45 -5 0 -43 -32 -84 -71 -131 -125
-262 -318 -328 -485 -40 -100 -81 -233 -75 -239 2 -3 19 32 37 78 53 129 126
267 214 400 66 99 107 148 226 264 80 79 143 143 140 143 -3 0 -32 -20 -63
-45z"/>
<path d="M7852 8683 c63 -66 99 -121 111 -173 7 -29 62 -98 71 -89 9 8 -30 93
-76 166 -38 61 -139 163 -160 163 -6 0 18 -30 54 -67z"/>
<path d="M3425 8518 l-40 -43 43 40 c23 21 42 40 42 42 0 8 -9 0 -45 -39z"/>
<path d="M8072 8495 c0 -5 6 -26 13 -45 7 -19 14 -28 14 -20 0 8 -6 29 -14 45
-7 17 -13 26 -13 20z"/>
<path d="M7790 8406 c0 -3 28 -24 63 -47 87 -59 114 -83 160 -140 45 -57 57
-58 29 -2 -24 47 -115 134 -168 161 -45 23 -84 36 -84 28z"/>
<path d="M7740 8377 c0 -1 39 -43 88 -92 95 -99 179 -171 188 -162 12 12 -35
94 -72 126 -59 53 -204 143 -204 128z"/>
<path d="M8117 8355 c3 -16 9 -65 12 -107 3 -42 10 -80 15 -85 14 -13 -1 127
-18 177 -9 25 -13 32 -9 15z"/>
<path d="M3301 8324 c0 -11 3 -14 6 -6 3 7 2 16 -1 19 -3 4 -6 -2 -5 -13z"/>
<path d="M3291 8264 c0 -11 3 -14 6 -6 3 7 2 16 -1 19 -3 4 -6 -2 -5 -13z"/>
<path d="M3283 8155 c0 -22 2 -30 4 -17 2 12 2 30 0 40 -3 9 -5 -1 -4 -23z"/>
<path d="M8183 8130 c0 -36 2 -50 4 -32 2 17 2 47 0 65 -2 17 -4 3 -4 -33z"/>
<path d="M7826 8030 c9 -36 66 -172 70 -167 3 3 -43 122 -67 172 -8 17 -8 16
-3 -5z"/>
<path d="M8183 7950 c0 -41 2 -58 4 -37 2 20 2 54 0 75 -2 20 -4 3 -4 -38z"/>
<path d="M8213 7940 c0 -25 2 -35 4 -22 2 12 2 32 0 45 -2 12 -4 2 -4 -23z"/>
<path d="M4261 7954 c0 -11 3 -14 6 -6 3 7 2 16 -1 19 -3 4 -6 -2 -5 -13z"/>
<path d="M4253 7865 c0 -38 2 -53 4 -32 2 20 2 52 0 70 -2 17 -4 1 -4 -38z"/>
<path d="M3313 7870 c0 -30 2 -43 4 -27 2 15 2 39 0 55 -2 15 -4 2 -4 -28z"/>
<path d="M7900 7849 c0 -4 11 -31 25 -60 14 -30 22 -43 19 -29 -7 26 -43 100
-44 89z"/>
<path d="M6860 7791 c0 -11 67 -71 80 -71 20 0 9 29 -21 54 -30 26 -59 34 -59
17z m70 -36 c7 -8 11 -18 8 -20 -7 -7 -58 34 -58 46 0 12 32 -4 50 -26z"/>
<path d="M4241 7778 c0 -9 -4 -25 -7 -35 -5 -17 -5 -17 6 0 6 10 9 25 7 35 -4
15 -5 15 -6 0z"/>
<path d="M7957 7683 c5 -45 3 -51 -13 -50 -15 2 -20 -8 -26 -58 -4 -33 -6 -64
-4 -70 2 -5 7 18 11 53 6 51 11 62 26 62 15 0 19 7 18 33 -1 17 -5 43 -9 57
-6 17 -7 8 -3 -27z"/>
<path d="M4220 7683 c0 -21 -8 -33 -30 -45 -35 -20 -70 -73 -71 -108 0 -25 0
-25 -9 -2 -5 12 -12 22 -15 22 -9 0 -45 -82 -44 -100 0 -8 7 3 15 25 18 50 34
67 34 36 0 -36 24 -19 31 21 7 47 32 84 69 103 23 12 30 22 30 45 0 17 -2 30
-5 30 -3 0 -5 -12 -5 -27z"/>
<path d="M8181 7610 c-7 -28 -17 -92 -21 -143 -5 -50 -15 -119 -24 -152 -21
-80 -37 -196 -28 -209 9 -16 20 31 21 94 1 30 10 80 21 110 11 32 22 95 26
150 3 52 10 117 16 143 14 64 5 70 -11 7z"/>
<path d="M3261 7544 c0 -11 3 -14 6 -6 3 7 2 16 -1 19 -3 4 -6 -2 -5 -13z"/>
<path d="M3272 7470 c0 -14 2 -19 5 -12 2 6 2 18 0 25 -3 6 -5 1 -5 -13z"/>
<path d="M7904 7305 c0 -99 2 -138 3 -87 2 51 2 132 0 180 -1 48 -3 6 -3 -93z"/>
<path d="M4036 7394 c-4 -20 -5 -38 -3 -40 3 -3 8 11 11 32 4 20 5 38 3 40 -3
3 -8 -11 -11 -32z"/>
<path d="M3292 7370 c0 -14 2 -19 5 -12 2 6 2 18 0 25 -3 6 -5 1 -5 -13z"/>
<path d="M4022 7305 c0 -16 2 -22 5 -12 2 9 2 23 0 30 -3 6 -5 -1 -5 -18z"/>
<path d="M4012 7240 c0 -19 2 -27 5 -17 2 9 2 25 0 35 -3 9 -5 1 -5 -18z"/>
<path d="M4002 7160 c0 -19 2 -27 5 -17 2 9 2 25 0 35 -3 9 -5 1 -5 -18z"/>
<path d="M3332 7115 c0 -16 2 -22 5 -12 2 9 2 23 0 30 -3 6 -5 -1 -5 -18z"/>
<path d="M3991 7104 c0 -11 3 -14 6 -6 3 7 2 16 -1 19 -3 4 -6 -2 -5 -13z"/>
<path d="M3989 7038 c13 -18 100 -49 130 -47 9 0 -12 8 -46 18 -34 10 -70 24
-80 32 -16 13 -17 12 -4 -3z"/>
<path d="M4148 6983 c7 -3 16 -2 19 1 4 3 -2 6 -13 5 -11 0 -14 -3 -6 -6z"/>
<path d="M3342 6960 c0 -14 2 -19 5 -12 2 6 2 18 0 25 -3 6 -5 1 -5 -13z"/>
<path d="M4205 6970 c17 -4 39 -8 50 -8 16 0 15 2 -5 8 -14 4 -36 8 -50 8 -22
0 -22 -1 5 -8z"/>
<path d="M4293 6953 c9 -2 25 -2 35 0 9 3 1 5 -18 5 -19 0 -27 -2 -17 -5z"/>
<path d="M4358 6943 c7 -3 16 -2 19 1 4 3 -2 6 -13 5 -11 0 -14 -3 -6 -6z"/>
<path d="M4410 6930 c34 -11 60 -11 35 0 -11 5 -29 8 -40 8 -16 0 -15 -2 5 -8z"/>
<path d="M3351 6920 c0 -8 4 -22 9 -30 12 -18 12 -2 0 25 -6 13 -9 15 -9 5z"/>
<path d="M4478 6913 c7 -3 16 -2 19 1 4 3 -2 6 -13 5 -11 0 -14 -3 -6 -6z"/>
<path d="M4525 6900 c11 -5 27 -9 35 -9 9 0 8 4 -5 9 -11 5 -27 9 -35 9 -9 0
-8 -4 5 -9z"/>
<path d="M6555 6836 c-34 -37 -81 -102 -109 -154 -27 -50 -61 -106 -76 -124
l-28 -33 -77 38 c-43 21 -79 36 -81 34 -2 -2 28 -19 67 -37 54 -27 66 -36 52
-41 -12 -5 -3 -8 25 -8 28 -1 41 3 37 10 -4 6 2 20 13 32 11 12 41 60 66 105
50 93 100 164 140 201 51 48 35 12 -48 -105 -47 -65 -97 -143 -112 -171 -14
-29 -31 -53 -37 -53 -6 0 -8 -2 -6 -5 3 -2 47 16 98 41 52 24 95 43 98 41 2
-3 -19 -19 -47 -37 -79 -51 -68 -63 40 -45 41 7 62 13 45 13 -16 1 -49 -3 -72
-7 -24 -5 -43 -4 -43 0 0 5 37 33 83 63 45 30 94 67 107 82 l25 28 -45 -26
c-139 -78 -182 -100 -186 -95 -3 3 6 13 21 24 78 55 77 54 71 91 -9 59 23 101
93 123 21 6 22 7 6 8 -48 2 -119 -71 -114 -117 4 -41 -4 -53 -62 -97 -34 -25
-63 -44 -66 -42 -6 7 45 86 135 211 40 54 72 102 72 107 0 23 -30 4 -85 -55z
m65 -206 c-24 -19 -40 -25 -40 -15 0 5 51 34 60 34 3 0 -6 -8 -20 -19z"/>
<path d="M4650 6864 c41 -13 80 -23 85 -23 6 1 -24 12 -65 25 -41 13 -79 23
-85 23 -5 -1 24 -12 65 -25z"/>
<path d="M4758 6833 c7 -3 16 -2 19 1 4 3 -2 6 -13 5 -11 0 -14 -3 -6 -6z"/>
<path d="M4907 6833 c-4 -3 -24 -10 -44 -14 l-38 -8 35 4 c19 2 51 8 70 13 31
9 32 10 9 11 -14 1 -29 -2 -32 -6z"/>
<path d="M6730 6833 c19 -2 51 -11 70 -20 30 -14 48 -14 162 -3 70 7 126 15
123 18 -2 3 -58 -1 -123 -8 -106 -11 -121 -11 -150 4 -17 9 -50 15 -74 14 -40
-1 -41 -1 -8 -5z"/>
<path d="M7202 6830 c109 -6 158 -19 77 -21 -24 0 -64 -4 -89 -8 l-45 -8 41
-2 c22 0 90 -4 150 -7 115 -7 128 -1 47 21 l-48 13 115 3 115 2 -140 8 c-77 3
-183 6 -235 6 l-95 0 107 -7z"/>
<path d="M4798 6823 c7 -3 16 -2 19 1 4 3 -2 6 -13 5 -11 0 -14 -3 -6 -6z"/>
<path d="M5009 6810 c41 -19 161 -132 161 -152 0 -5 -16 0 -36 12 -19 12 -37
20 -40 18 -2 -3 9 -22 26 -43 17 -21 29 -44 26 -51 -11 -28 176 -144 231 -144
40 0 22 21 -52 62 l-69 37 94 -5 c91 -6 96 -7 124 -37 15 -18 24 -23 18 -12
-21 41 -45 53 -127 58 -44 3 -89 7 -99 9 -44 7 -20 -20 49 -56 42 -21 74 -41
71 -43 -20 -21 -216 85 -216 116 0 11 -12 33 -26 50 -28 34 -23 38 16 16 53
-30 50 -12 -11 57 -64 71 -139 128 -168 128 -9 0 4 -9 28 -20z"/>
<path d="M6210 6812 c0 -5 17 -32 38 -60 20 -29 49 -70 65 -92 27 -40 52 -58
63 -47 3 3 -9 33 -26 66 -42 77 -140 171 -140 133z m84 -63 c35 -41 80 -129
66 -129 -6 0 -23 18 -38 41 -15 22 -42 60 -59 85 -18 24 -33 47 -33 49 0 12
39 -16 64 -46z"/>
<path d="M7648 6776 c46 -24 90 -52 97 -62 17 -23 19 -101 4 -141 -11 -31 -66
-82 -89 -83 -10 -1 -11 -3 -3 -7 19 -7 91 56 102 90 6 16 11 52 11 79 0 38 -5
54 -24 73 -22 22 -156 95 -173 95 -5 0 29 -20 75 -44z"/>
<path d="M8020 6798 c0 -16 5 -28 10 -28 13 0 13 20 0 40 -8 12 -10 9 -10 -12z"/>
<path d="M5142 6755 c38 -35 61 -45 53 -22 -6 14 -67 57 -81 57 -5 0 8 -16 28
-35z"/>
<path d="M6870 6783 c-14 -3 -29 -9 -35 -15 -12 -12 156 -1 190 12 21 9 -108
11 -155 3z"/>
<path d="M7315 6729 c-4 -6 -5 -12 -3 -14 4 -5 141 15 147 21 2 2 -28 4 -67 4
-39 0 -74 -5 -77 -11z"/>
<path d="M3547 6700 c-4 -14 -6 -41 -6 -60 l1 -35 9 40 c12 48 8 96 -4 55z"/>
<path d="M5284 6685 c-18 -14 -18 -14 7 -15 14 0 34 7 45 15 18 14 18 14 -7
15 -14 0 -34 -7 -45 -15z"/>
<path d="M7430 6674 c-76 -24 -169 -44 -213 -45 -26 -1 -33 -3 -18 -6 13 -3
31 -11 38 -19 18 -17 74 -17 173 1 l75 14 -70 -4 c-56 -4 -65 -3 -45 6 14 6
70 12 125 14 79 3 90 2 50 -5 -43 -7 -38 -8 33 -5 46 2 98 -1 115 -6 30 -8 31
-7 12 7 -19 14 -19 15 3 21 28 7 24 25 -9 34 -45 13 -222 8 -269 -7z m-107
-71 c-13 -2 -33 -2 -45 0 -13 2 -3 4 22 4 25 0 35 -2 23 -4z"/>
<path d="M5992 6664 c2 -9 10 -20 18 -24 8 -4 59 -28 113 -54 53 -25 101 -46
105 -45 13 0 -183 98 -199 98 -18 1 -35 31 -18 31 5 0 41 -16 79 -35 38 -19
73 -35 77 -35 15 1 -142 79 -160 80 -12 0 -17 -6 -15 -16z"/>
<path d="M3391 6654 c0 -11 3 -14 6 -6 3 7 2 16 -1 19 -3 4 -6 -2 -5 -13z"/>
<path d="M4080 6647 c18 -10 40 -12 80 -7 50 7 51 7 15 9 -22 1 -58 4 -80 7
-39 5 -39 5 -15 -9z"/>
<path d="M4298 6653 c23 -2 61 -2 85 0 23 2 4 4 -43 4 -47 0 -66 -2 -42 -4z"/>
<path d="M5330 6645 c-25 -8 -58 -14 -75 -15 -29 -1 -29 -1 -11 -15 21 -16 89
-19 121 -5 12 5 -1 6 -34 3 -63 -7 -65 11 -2 21 22 3 47 9 57 13 14 5 16 3 11
-11 -5 -12 -3 -16 5 -14 21 7 15 33 -7 34 -11 1 -40 -4 -65 -11z"/>
<path d="M4438 6643 c6 -2 18 -2 25 0 6 3 1 5 -13 5 -14 0 -19 -2 -12 -5z"/>
<path d="M4945 6640 c9 -15 95 -63 102 -57 3 3 -16 20 -43 36 -49 32 -70 39
-59 21z"/>
<path d="M6230 6637 c0 -17 21 -37 38 -37 21 0 9 32 -15 41 -16 6 -23 5 -23
-4z"/>
<path d="M4488 6633 c6 -2 18 -2 25 0 6 3 1 5 -13 5 -14 0 -19 -2 -12 -5z"/>
<path d="M4120 6621 c0 -5 -13 -14 -30 -20 -38 -13 -38 -21 0 -46 33 -22 39
-55 13 -76 -9 -8 -41 -16 -72 -19 l-56 -5 32 -18 c38 -20 59 -22 23 -2 l-25
14 36 1 c44 0 89 33 89 64 0 13 -13 32 -32 46 l-32 24 34 11 c32 11 54 35 31
35 -6 0 -11 -4 -11 -9z"/>
<path d="M4538 6623 c7 -3 16 -2 19 1 4 3 -2 6 -13 5 -11 0 -14 -3 -6 -6z"/>
<path d="M4583 6613 c9 -2 23 -2 30 0 6 3 -1 5 -18 5 -16 0 -22 -2 -12 -5z"/>
<path d="M7098 6613 c12 -2 32 -2 45 0 12 2 2 4 -23 4 -25 0 -35 -2 -22 -4z"/>
<path d="M4655 6599 c57 -16 140 -37 215 -54 41 -9 101 -27 134 -41 33 -13 61
-22 63 -20 12 12 -208 83 -298 96 -30 4 -65 12 -77 19 -11 6 -31 11 -44 10
-20 -1 -19 -2 7 -10z"/>
<path d="M6720 6600 c-13 -8 -12 -10 3 -10 9 0 17 5 17 10 0 12 -1 12 -20 0z"/>
<path d="M7033 6603 c9 -2 23 -2 30 0 6 3 -1 5 -18 5 -16 0 -22 -2 -12 -5z"/>
<path d="M7903 6570 c0 -25 2 -35 4 -22 2 12 2 32 0 45 -2 12 -4 2 -4 -23z"/>
<path d="M6963 6593 c9 -2 25 -2 35 0 9 3 1 5 -18 5 -19 0 -27 -2 -17 -5z"/>
<path d="M7711 6576 c-6 -15 -20 -25 -40 -29 -21 -4 -29 -11 -25 -20 4 -11 -8
-16 -45 -21 -49 -6 -81 -26 -43 -26 11 0 35 -2 53 -5 32 -5 33 -5 9 6 -25 12
-24 12 18 21 23 5 42 15 42 21 0 7 8 17 19 24 10 6 21 21 24 32 7 29 -1 27
-12 -3z"/>
<path d="M6825 6573 c-22 -9 -71 -19 -110 -23 l-70 -7 61 -1 c36 -1 79 5 105
14 24 9 64 20 89 24 l45 7 -40 1 c-22 1 -58 -6 -80 -15z"/>
<path d="M4920 6565 c49 -19 71 -19 46 0 -11 8 -34 15 -50 14 l-31 -1 35 -13z"/>
<path d="M8097 6553 c-9 -15 -29 -154 -23 -160 3 -4 7 7 8 23 1 21 3 17 8 -16
7 -45 7 -44 8 18 1 34 7 62 12 62 6 0 10 18 10 40 0 36 -12 52 -23 33z"/>
<path d="M6250 6530 c8 -5 20 -10 25 -10 6 0 3 5 -5 10 -8 5 -19 10 -25 10 -5
0 -3 -5 5 -10z"/>
<path d="M7911 6504 c0 -11 3 -14 6 -6 3 7 2 16 -1 19 -3 4 -6 -2 -5 -13z"/>
<path d="M5100 6465 c14 -8 30 -14 35 -14 6 0 -1 6 -15 14 -14 8 -29 14 -35
14 -5 0 1 -6 15 -14z"/>
<path d="M7922 6470 c0 -8 4 -26 8 -40 6 -20 8 -21 8 -5 0 11 -3 29 -8 40 -5
12 -8 14 -8 5z"/>
<path d="M3422 6445 c0 -16 2 -22 5 -12 2 9 2 23 0 30 -3 6 -5 -1 -5 -18z"/>
<path d="M5501 6465 c0 -5 8 -26 19 -45 11 -19 19 -30 19 -25 0 6 -8 26 -19
45 -11 19 -19 31 -19 25z"/>
<path d="M5208 6414 c36 -21 72 -50 83 -68 10 -17 19 -26 19 -20 0 22 -43 65
-94 94 -28 17 -55 30 -61 30 -5 0 18 -16 53 -36z"/>
<path d="M8137 6427 c-3 -8 -1 -32 4 -53 4 -22 9 -66 9 -99 0 -33 5 -78 10
-100 15 -65 52 -704 46 -782 -3 -40 -13 -106 -22 -145 -15 -68 -20 -77 -73
-125 -31 -29 -51 -53 -45 -53 6 0 17 7 25 16 7 8 25 22 39 29 34 17 69 97 81
180 5 33 11 78 15 100 7 46 -32 687 -46 755 -5 25 -11 94 -15 154 -6 110 -16
154 -28 123z"/>
<path d="M4550 6419 c-149 -16 -236 -31 -304 -50 -37 -11 -66 -22 -64 -25 3
-2 24 3 47 11 101 35 424 70 589 63 59 -2 96 -1 82 3 -34 9 -257 8 -350 -2z"/>
<path d="M4108 6400 c31 -13 28 -33 -14 -70 -20 -17 -34 -34 -31 -36 3 -3 28
5 56 17 29 12 50 24 47 26 -2 3 -18 -3 -35 -11 -44 -23 -48 -20 -16 14 24 25
27 34 19 48 -6 9 -20 18 -30 19 -15 2 -14 1 4 -7z"/>
<path d="M4555 6395 c-90 -13 -210 -43 -202 -51 2 -2 28 1 58 8 30 6 124 12
209 12 152 1 156 0 231 -31 42 -17 109 -53 148 -78 90 -58 206 -107 246 -103
l30 3 -41 41 c-56 56 -180 131 -264 161 -59 20 -279 56 -315 52 -5 -1 -50 -7
-100 -14z"/>
<path d="M4955 6399 c17 -6 83 -36 148 -66 65 -31 119 -54 121 -52 6 6 -236
117 -269 124 l-30 5 30 -11z"/>
<path d="M7942 6370 c0 -19 2 -27 5 -17 2 9 2 25 0 35 -3 9 -5 1 -5 -18z"/>
<path d="M3411 6374 c0 -11 3 -14 6 -6 3 7 2 16 -1 19 -3 4 -6 -2 -5 -13z"/>
<path d="M6690 6381 l85 -6 -43 -13 c-53 -16 -264 -113 -258 -119 2 -2 31 9
65 26 90 46 96 37 11 -15 -116 -72 -152 -103 -145 -125 5 -14 0 -21 -17 -28
-13 -5 -34 -14 -48 -20 -24 -10 -24 -10 5 -4 17 3 47 15 67 26 37 20 39 20 94
3 64 -20 152 -60 244 -111 57 -32 72 -36 121 -33 46 3 71 13 153 64 54 32 117
75 140 96 l42 36 24 -19 c42 -33 101 -60 123 -57 16 2 -4 19 -83 71 -139 91
-155 90 -225 -11 -39 -57 -61 -78 -101 -97 -119 -59 -226 -16 -304 123 -13 22
-29 43 -35 46 -7 2 -41 -10 -76 -29 -139 -72 -147 -53 -15 35 199 130 326 153
556 98 125 -30 161 -49 250 -133 88 -82 120 -94 120 -46 0 38 -47 79 -142 125
-99 47 -183 74 -273 87 -41 6 -73 15 -70 18 10 17 247 -24 324 -56 18 -8 35
-12 37 -10 5 5 -62 31 -121 47 -96 26 -246 40 -415 38 -133 -1 -154 -3 -90 -7z
m53 -41 c-40 -10 -81 -24 -92 -29 -21 -12 -38 -15 -29 -5 16 16 127 53 158 53
27 0 19 -4 -37 -19z"/>
<path d="M5540 6376 c0 -2 12 -35 26 -72 15 -38 30 -96 34 -129 7 -60 7 -60 9
-13 1 30 -10 77 -30 132 -26 73 -39 100 -39 82z"/>
<path d="M6578 6373 c7 -3 16 -2 19 1 4 3 -2 6 -13 5 -11 0 -14 -3 -6 -6z"/>
<path d="M8062 6360 c0 -14 2 -19 5 -12 2 6 2 18 0 25 -3 6 -5 1 -5 -13z"/>
<path d="M6465 6334 c-38 -20 -97 -55 -130 -79 -33 -23 -78 -48 -99 -55 -41
-13 -119 -78 -138 -114 -6 -12 10 2 36 31 31 34 63 58 94 69 26 10 74 37 107
60 52 36 169 100 215 117 13 5 13 5 0 6 -8 0 -46 -16 -85 -35z"/>
<path d="M8051 6314 c0 -11 3 -14 6 -6 3 7 2 16 -1 19 -3 4 -6 -2 -5 -13z"/>
<path d="M8082 6295 c0 -16 2 -22 5 -12 2 9 2 23 0 30 -3 6 -5 -1 -5 -18z"/>
<path d="M5287 6296 c-3 -8 -16 -16 -29 -19 -21 -4 -21 -4 -2 -6 21 -1 52 24
42 35 -3 3 -8 -2 -11 -10z"/>
<path d="M7382 6265 c31 -20 66 -51 77 -69 34 -55 24 -117 -22 -136 -16 -6
-18 -9 -5 -9 24 -1 58 47 58 83 0 17 -9 45 -20 63 -18 30 -113 103 -135 103
-5 0 16 -16 47 -35z"/>
<path d="M8041 6274 c0 -11 3 -14 6 -6 3 7 2 16 -1 19 -3 4 -6 -2 -5 -13z"/>
<path d="M4745 6250 c-19 -31 33 -40 60 -10 18 20 17 20 -18 20 -20 0 -39 -4
-42 -10z"/>
<path d="M4383 6224 c-15 -23 -15 -29 -2 -52 8 -15 45 -47 82 -72 37 -25 61
-46 53 -48 -8 -2 -55 17 -105 42 -50 25 -94 46 -97 46 -12 0 29 -41 70 -71 21
-16 44 -29 49 -29 6 0 -11 14 -37 31 -27 16 -46 32 -44 35 3 2 44 -14 91 -37
47 -22 96 -39 109 -37 19 2 9 13 -63 62 -101 69 -116 88 -98 122 7 13 17 24
23 24 7 0 40 -34 75 -75 70 -82 104 -109 129 -102 13 4 11 5 -5 6 -13 1 -53
35 -105 91 -47 50 -90 90 -96 90 -6 0 -19 -12 -29 -26z"/>
<path d="M4875 6190 c-41 -68 -79 -98 -144 -117 -46 -13 -46 -13 -7 -9 57 7
113 49 154 117 21 32 43 59 50 59 6 0 65 -28 130 -62 l117 -63 -40 -6 c-39 -6
-39 -6 13 -8 28 0 52 2 52 7 0 9 -260 143 -277 142 -6 0 -28 -27 -48 -60z"/>
<path d="M6890 6200 c0 -27 4 -50 10 -50 14 0 23 45 16 75 -11 42 -26 28 -26
-25z"/>
<path d="M8072 6230 c0 -14 2 -19 5 -12 2 6 2 18 0 25 -3 6 -5 1 -5 -13z"/>
<path d="M6390 6214 c-30 -13 -79 -28 -108 -34 -30 -7 -51 -14 -49 -17 8 -8
128 26 182 52 64 30 47 30 -25 -1z"/>
<path d="M3757 6202 c-10 -10 -17 -25 -17 -33 0 -8 6 -3 13 11 18 36 50 36
113 0 30 -17 59 -28 64 -25 5 3 16 -7 24 -22 8 -15 15 -23 16 -18 0 6 -12 28
-27 50 -21 30 -28 36 -31 23 -4 -22 -2 -23 -53 7 -52 30 -80 31 -102 7z"/>
<path d="M8001 6124 c-13 -52 -21 -97 -19 -99 2 -3 15 38 27 91 13 52 21 97
19 99 -2 3 -15 -38 -27 -91z"/>
<path d="M3373 6140 c0 -36 2 -50 4 -32 2 17 2 47 0 65 -2 17 -4 3 -4 -33z"/>
<path d="M8063 6140 c0 -36 2 -50 4 -32 2 17 2 47 0 65 -2 17 -4 3 -4 -33z"/>
<path d="M6155 6115 c-25 -24 -45 -52 -44 -62 0 -16 1 -15 8 2 5 11 29 39 55
63 25 23 41 42 36 42 -6 0 -31 -20 -55 -45z"/>
<path d="M3734 6035 c0 -66 1 -92 3 -57 2 34 2 88 0 120 -2 31 -3 3 -3 -63z"/>
<path d="M4920 6101 c-68 -22 -100 -38 -100 -52 0 -7 10 -8 28 -4 15 4 54 11
87 16 l60 8 -68 -4 c-38 -1 -65 1 -60 5 16 15 89 34 158 40 l70 7 -60 1 c-33
1 -85 -7 -115 -17z"/>
<path d="M5594 5940 c0 -96 2 -136 3 -87 2 48 2 126 0 175 -1 48 -3 8 -3 -88z"/>
<path d="M3976 6080 c3 -14 11 -32 16 -40 6 -10 7 -7 2 10 -3 14 -11 32 -16
40 -6 10 -7 7 -2 -10z"/>
<path d="M7165 6071 c-62 -37 -112 -77 -104 -85 3 -3 51 6 108 20 57 14 109
23 119 19 12 -6 1 -12 -38 -21 -88 -20 -266 -72 -250 -73 8 0 56 11 105 25 50
15 117 32 150 38 41 8 61 17 63 28 2 12 16 18 45 21 23 2 1 2 -49 -1 -66 -3
-94 -1 -99 8 -5 8 -1 16 9 22 19 11 21 28 4 28 -7 0 -35 -13 -63 -29z"/>
<path d="M7932 5943 c-12 -170 -23 -380 -16 -323 2 19 7 55 11 80 6 43 7 44
14 15 5 -21 7 -9 6 40 0 39 8 110 18 158 9 48 15 90 13 93 -3 2 -12 -31 -21
-73 l-16 -78 5 123 c4 67 4 122 2 122 -2 0 -10 -71 -16 -157z"/>
<path d="M5018 6073 c12 -2 32 -2 45 0 12 2 2 4 -23 4 -25 0 -35 -2 -22 -4z"/>
<path d="M5131 6061 c25 -4 58 -14 72 -24 15 -10 27 -14 27 -9 0 15 -70 42
-108 41 -36 -2 -36 -2 9 -8z"/>
<path d="M6281 6056 c-16 -19 -4 -24 39 -15 32 6 32 6 7 8 -16 0 -26 5 -22 11
9 15 -11 12 -24 -4z"/>
<path d="M8071 6054 c0 -11 3 -14 6 -6 3 7 2 16 -1 19 -3 4 -6 -2 -5 -13z"/>
<path d="M6076 6044 c-15 -38 9 -134 33 -134 13 0 15 89 2 108 -4 7 -6 -12 -4
-45 l3 -58 -16 35 c-10 21 -14 49 -11 72 5 40 3 48 -7 22z"/>
<path d="M6398 6033 c6 -2 18 -2 25 0 6 3 1 5 -13 5 -14 0 -19 -2 -12 -5z"/>
<path d="M4488 6023 c7 -3 16 -2 19 1 4 3 -2 6 -13 5 -11 0 -14 -3 -6 -6z"/>
<path d="M6470 6021 c25 -4 35 -11 34 -24 -1 -11 5 -17 18 -17 18 0 19 2 7 18
-22 27 -32 32 -64 31 -29 -2 -29 -2 5 -8z"/>
<path d="M8081 6014 c0 -11 3 -14 6 -6 3 7 2 16 -1 19 -3 4 -6 -2 -5 -13z"/>
<path d="M4000 6015 c0 -26 79 -199 108 -237 37 -49 113 -108 139 -108 8 0 25
11 38 25 21 20 25 34 24 77 0 29 -4 62 -9 73 -5 12 -6 -2 -3 -37 7 -70 -1
-104 -28 -119 -32 -16 -71 5 -132 71 -44 47 -61 77 -92 159 -34 90 -45 113
-45 96z"/>
<path d="M4535 6010 c11 -5 27 -9 35 -9 9 0 8 4 -5 9 -11 5 -27 9 -35 9 -9 0
-8 -4 5 -9z"/>
<path d="M6259 5997 c-47 -32 -49 -54 -5 -62 19 -4 41 -5 48 -2 7 3 1 6 -14 6
-33 1 -58 10 -58 22 0 18 57 44 110 50 l55 6 -51 2 c-38 1 -60 -5 -85 -22z"/>
<path d="M5232 5985 c0 -16 2 -22 5 -12 2 9 2 23 0 30 -3 6 -5 -1 -5 -18z"/>
<path d="M6418 6003 c7 -3 16 -2 19 1 4 3 -2 6 -13 5 -11 0 -14 -3 -6 -6z"/>
<path d="M4328 5993 c7 -3 16 -2 19 1 4 3 -2 6 -13 5 -11 0 -14 -3 -6 -6z"/>
<path d="M4648 5988 c69 -12 82 -27 25 -29 -26 -2 -30 -3 -13 -6 14 -2 43 0
64 4 50 11 60 32 14 30 -18 0 -60 2 -93 5 l-60 7 63 -11z"/>
<path d="M6468 5993 c7 -3 16 -2 19 1 4 3 -2 6 -13 5 -11 0 -14 -3 -6 -6z"/>
<path d="M3362 5970 c0 -14 2 -19 5 -12 2 6 2 18 0 25 -3 6 -5 1 -5 -13z"/>
<path d="M4285 5979 c-4 -6 -5 -12 -2 -15 2 -3 7 2 10 11 7 17 1 20 -8 4z"/>
<path d="M4368 5983 c7 -3 16 -2 19 1 4 3 -2 6 -13 5 -11 0 -14 -3 -6 -6z"/>
<path d="M8092 5965 c0 -16 2 -22 5 -12 2 9 2 23 0 30 -3 6 -5 -1 -5 -18z"/>
<path d="M4408 5973 c7 -3 16 -2 19 1 4 3 -2 6 -13 5 -11 0 -14 -3 -6 -6z"/>
<path d="M4448 5963 c7 -3 16 -2 19 1 4 3 -2 6 -13 5 -11 0 -14 -3 -6 -6z"/>
<path d="M6640 5933 c62 -30 72 -37 55 -44 -15 -6 -11 -8 18 -8 47 -1 48 14 1
29 -22 7 -32 15 -25 19 10 7 -95 43 -116 40 -5 0 26 -17 67 -36z"/>
<path d="M4503 5953 c15 -2 39 -2 55 0 15 2 2 4 -28 4 -30 0 -43 -2 -27 -4z"/>
<path d="M4608 5943 c7 -3 16 -2 19 1 4 3 -2 6 -13 5 -11 0 -14 -3 -6 -6z"/>
<path d="M6410 5945 c0 -2 14 -12 31 -21 17 -8 28 -11 25 -5 -4 6 -1 11 6 12
7 1 2 5 -12 9 -30 10 -50 12 -50 5z"/>
<path d="M5222 5920 c0 -14 2 -19 5 -12 2 6 2 18 0 25 -3 6 -5 1 -5 -13z"/>
<path d="M4282 5900 c0 -19 2 -27 5 -17 2 9 2 25 0 35 -3 9 -5 1 -5 -18z"/>
<path d="M6385 5896 c77 -38 74 -47 -5 -16 -28 11 -59 20 -70 20 -26 0 -35
-36 -16 -65 20 -30 78 -75 97 -75 8 0 -1 8 -19 17 -37 18 -82 67 -82 89 0 26
27 26 102 1 78 -26 168 -40 168 -26 0 5 -13 9 -28 9 -15 0 -65 18 -111 40 -45
22 -88 40 -94 40 -6 0 20 -15 58 -34z"/>
<path d="M6498 5923 c7 -3 16 -2 19 1 4 3 -2 6 -13 5 -11 0 -14 -3 -6 -6z"/>
<path d="M6718 5923 c7 -3 16 -2 19 1 4 3 -2 6 -13 5 -11 0 -14 -3 -6 -6z"/>
<path d="M6933 5923 c9 -2 25 -2 35 0 9 3 1 5 -18 5 -19 0 -27 -2 -17 -5z"/>
<path d="M8102 5910 c0 -14 2 -19 5 -12 2 6 2 18 0 25 -3 6 -5 1 -5 -13z"/>
<path d="M6550 5911 c14 -4 48 -11 75 -14 31 -4 41 -3 25 2 -14 4 -48 11 -75
14 -31 4 -41 3 -25 -2z"/>
<path d="M6803 5913 c20 -2 54 -2 75 0 20 2 3 4 -38 4 -41 0 -58 -2 -37 -4z"/>
<path d="M3377 5868 c-50 -88 -49 -87 -43 -48 l5 35 -16 -35 c-17 -38 -13
-177 6 -235 9 -26 10 -22 6 25 l-4 55 15 -40 c29 -79 37 -66 30 51 -6 98 -4
119 13 170 12 32 19 59 17 62 -2 2 -15 -16 -29 -40z m-50 -140 c-3 -7 -5 -2
-5 12 0 14 2 19 5 13 2 -7 2 -19 0 -25z"/>
<path d="M6528 5884 c81 -37 72 -55 -47 -94 -41 -13 -70 -25 -65 -27 5 -1 45
10 89 25 71 25 80 31 80 52 0 20 -10 30 -45 47 -25 12 -49 22 -55 22 -5 0 14
-11 43 -25z"/>
<path d="M5211 5874 c0 -11 3 -14 6 -6 3 7 2 16 -1 19 -3 4 -6 -2 -5 -13z"/>
<path d="M3743 5830 c0 -30 2 -43 4 -27 2 15 2 39 0 55 -2 15 -4 2 -4 -28z"/>
<path d="M8112 5850 c0 -19 2 -27 5 -17 2 9 2 25 0 35 -3 9 -5 1 -5 -18z"/>
<path d="M5188 5802 c-19 -52 -48 -93 -176 -251 -74 -93 -123 -167 -122 -188
1 -4 10 10 22 32 21 41 90 133 194 260 56 68 109 165 102 185 -2 6 -11 -11
-20 -38z"/>
<path d="M8122 5790 c0 -14 2 -19 5 -12 2 6 2 18 0 25 -3 6 -5 1 -5 -13z"/>
<path d="M3750 5744 c0 -10 5 -26 10 -34 8 -11 9 -7 4 15 -8 37 -14 45 -14 19z"/>
<path d="M5600 5758 c0 -3 7 -21 15 -39 10 -24 14 -28 14 -14 0 11 -6 29 -14
39 -8 11 -15 17 -15 14z"/>
<path d="M8132 5735 c0 -16 2 -22 5 -12 2 9 2 23 0 30 -3 6 -5 -1 -5 -18z"/>
<path d="M7560 5734 c0 -8 4 -13 9 -9 10 6 51 -41 51 -59 -1 -6 -12 3 -26 19
l-26 30 18 -32 c18 -32 44 -45 44 -22 0 18 -39 76 -55 83 -9 3 -15 -1 -15 -10z"/>
<path d="M3771 5674 c0 -11 3 -14 6 -6 3 7 2 16 -1 19 -3 4 -6 -2 -5 -13z"/>
<path d="M8143 5650 c0 -25 2 -35 4 -22 2 12 2 32 0 45 -2 12 -4 2 -4 -23z"/>
<path d="M5633 5605 c0 -44 2 -61 4 -37 2 23 2 59 0 80 -2 20 -4 1 -4 -43z"/>
<path d="M7953 5625 c0 -33 2 -45 4 -27 2 18 2 45 0 60 -2 15 -4 0 -4 -33z"/>
<path d="M3781 5634 c0 -11 3 -14 6 -6 3 7 2 16 -1 19 -3 4 -6 -2 -5 -13z"/>
<path d="M3792 5585 c0 -16 2 -22 5 -12 2 9 2 23 0 30 -3 6 -5 -1 -5 -18z"/>
<path d="M8132 5565 c0 -16 2 -22 5 -12 2 9 2 23 0 30 -3 6 -5 -1 -5 -18z"/>
<path d="M7903 5525 c0 -33 2 -45 4 -27 2 18 2 45 0 60 -2 15 -4 0 -4 -33z"/>
<path d="M3802 5520 c0 -14 2 -19 5 -12 2 6 2 18 0 25 -3 6 -5 1 -5 -13z"/>
<path d="M7962 5515 c0 -16 2 -22 5 -12 2 9 2 23 0 30 -3 6 -5 -1 -5 -18z"/>
<path d="M8112 5478 c-7 -28 -11 -53 -8 -55 2 -2 9 19 16 47 7 28 10 53 8 55
-3 3 -10 -18 -16 -47z"/>
<path d="M3812 5465 c0 -16 2 -22 5 -12 2 9 2 23 0 30 -3 6 -5 -1 -5 -18z"/>
<path d="M5622 5450 c0 -19 2 -27 5 -17 2 9 2 25 0 35 -3 9 -5 1 -5 -18z"/>
<path d="M7952 5430 c0 -19 2 -27 5 -17 2 9 2 25 0 35 -3 9 -5 1 -5 -18z"/>
<path d="M7885 5345 c-4 -53 -5 -99 -2 -101 2 -3 8 38 12 91 4 53 5 99 2 101
-2 3 -8 -38 -12 -91z"/>
<path d="M3821 5414 c0 -11 3 -14 6 -6 3 7 2 16 -1 19 -3 4 -6 -2 -5 -13z"/>
<path d="M5572 5320 c-34 -67 -42 -91 -37 -116 5 -22 -1 -48 -20 -93 -14 -35
-24 -65 -22 -67 5 -6 67 151 67 170 0 8 -5 18 -10 21 -7 4 5 35 30 82 23 41
40 78 38 81 -2 4 -22 -31 -46 -78z"/>
<path d="M8086 5374 c-4 -20 -5 -38 -3 -40 3 -3 8 11 11 32 4 20 5 38 3 40 -3
3 -8 -11 -11 -32z"/>
<path d="M3831 5380 c0 -8 4 -24 9 -35 5 -13 9 -14 9 -5 0 8 -4 24 -9 35 -5
13 -9 14 -9 5z"/>
<path d="M7941 5374 c0 -11 3 -14 6 -6 3 7 2 16 -1 19 -3 4 -6 -2 -5 -13z"/>
<path d="M4881 5334 c0 -11 3 -14 6 -6 3 7 2 16 -1 19 -3 4 -6 -2 -5 -13z"/>
<path d="M7926 5303 c-3 -27 -2 -73 2 -103 7 -48 8 -42 8 48 -1 56 -2 102 -2
102 -1 0 -5 -21 -8 -47z"/>
<path d="M3856 5300 c4 -14 15 -43 25 -65 11 -22 16 -29 13 -15 -4 14 -15 43
-25 65 -11 22 -16 29 -13 15z"/>
<path d="M8072 5295 c0 -16 2 -22 5 -12 2 9 2 23 0 30 -3 6 -5 -1 -5 -18z"/>
<path d="M4872 5273 c-2 -32 2 -43 12 -43 11 0 16 -15 19 -52 l3 -53 2 58 c2
44 -1 57 -12 57 -10 0 -16 13 -19 38 l-4 37 -1 -42z"/>
<path d="M3400 5254 c0 -6 7 -19 16 -30 14 -18 14 -18 3 6 -14 31 -19 36 -19
24z"/>
<path d="M8062 5235 c0 -16 2 -22 5 -12 2 9 2 23 0 30 -3 6 -5 -1 -5 -18z"/>
<path d="M7872 5200 c0 -19 2 -27 5 -17 2 9 2 25 0 35 -3 9 -5 1 -5 -18z"/>
<path d="M3447 5169 c10 -17 24 -36 32 -42 8 -7 2 7 -14 31 -32 49 -45 57 -18
11z"/>
<path d="M8045 5163 c-11 -61 -54 -130 -117 -188 -33 -29 -63 -55 -69 -57 -10
-3 -36 -154 -43 -243 -2 -27 -2 -39 1 -25 2 14 9 50 15 80 l12 55 7 -45 c4
-25 9 -76 10 -115 2 -66 2 -68 9 -25 5 33 7 37 8 16 1 -16 5 -26 8 -23 8 8 32
132 39 197 4 42 3 40 -19 -25 l-23 -70 -6 60 c-3 33 -9 77 -13 97 -6 35 -3 40
69 116 41 43 84 96 95 118 20 39 39 114 29 114 -3 0 -8 -17 -12 -37z"/>
<path d="M3901 5180 c0 -8 4 -24 9 -35 5 -13 9 -14 9 -5 0 8 -4 24 -9 35 -5
13 -9 14 -9 5z"/>
<path d="M7857 5063 c-6 -90 1 -126 20 -101 13 17 43 95 43 111 -1 6 -10 -10
-20 -37 -33 -84 -41 -79 -34 22 4 51 5 92 2 92 -3 0 -8 -39 -11 -87z"/>
<path d="M6250 5103 c21 -45 30 -53 30 -29 0 8 -11 28 -25 43 l-26 28 21 -42z"/>
<path d="M7922 5110 c0 -14 2 -19 5 -12 2 6 2 18 0 25 -3 6 -5 1 -5 -13z"/>
<path d="M3922 5105 c0 -11 4 -31 8 -45 6 -20 8 -21 8 -5 0 11 -4 31 -8 45 -6
20 -8 21 -8 5z"/>
<path d="M4894 5019 c1 -86 1 -88 48 -156 26 -38 73 -97 105 -133 35 -38 53
-65 45 -68 -6 -2 -12 -9 -12 -15 -1 -22 -233 -177 -266 -177 -13 0 -66 -25
-117 -55 -50 -30 -88 -55 -83 -55 5 0 46 23 92 50 46 28 94 50 107 50 33 0
222 125 284 187 l22 22 -58 59 c-31 32 -79 91 -106 131 -47 69 -50 76 -56 159
l-7 87 2 -86z"/>
<path d="M5104 4988 c-23 -43 -29 -65 -29 -118 0 -106 43 -164 180 -241 87
-48 214 -138 225 -159 7 -14 6 -21 -2 -27 -7 -4 -28 -39 -46 -76 -18 -38 -59
-111 -92 -163 -33 -52 -60 -97 -60 -99 0 -2 21 7 48 21 45 24 49 29 112 164
36 77 69 139 73 140 21 1 15 -35 -17 -99 -37 -73 -50 -114 -15 -48 22 41 30
48 22 17 -10 -38 16 -20 56 41 23 34 41 65 41 69 0 15 -43 61 -71 75 -25 13
-29 13 -29 1 0 -7 6 -16 14 -19 8 -3 20 -16 26 -29 7 -14 -4 -7 -29 19 -39 40
-134 107 -302 213 -48 30 -79 58 -95 86 -33 56 -30 71 7 40 17 -14 38 -26 47
-26 9 1 3 7 -15 15 -68 29 -81 108 -35 204 31 63 21 61 -14 -1z m471 -552 c15
-22 15 -27 1 -55 -21 -39 -33 -45 -39 -21 -3 11 -2 18 3 15 13 -8 21 44 10 65
-16 29 6 25 25 -4z m-52 -91 c-3 -9 -8 -14 -10 -11 -3 3 -2 9 2 15 9 16 15 13
8 -4z"/>
<path d="M3941 5019 c-1 -9 7 -27 18 -40 10 -13 21 -31 24 -39 4 -12 6 -12 6
2 1 9 -6 23 -14 32 -8 8 -19 25 -24 38 -6 15 -10 17 -10 7z"/>
<path d="M7981 4967 c-13 -17 -43 -87 -36 -87 2 0 16 23 30 50 25 50 27 62 6
37z"/>
<path d="M5463 4935 c0 -22 2 -30 4 -17 2 12 2 30 0 40 -3 9 -5 -1 -4 -23z"/>
<path d="M3542 4930 c0 -19 2 -27 5 -17 2 9 2 25 0 35 -3 9 -5 1 -5 -18z"/>
<path d="M3993 4850 c0 -41 2 -58 4 -37 2 20 2 54 0 75 -2 20 -4 3 -4 -38z"/>
<path d="M5470 4887 c0 -15 43 -93 87 -154 41 -58 98 -113 119 -113 5 0 -8 11
-28 25 -41 28 -97 101 -144 189 -19 33 -34 57 -34 53z"/>
<path d="M5326 4781 c5 -5 27 -14 49 -21 56 -18 127 -54 163 -84 29 -25 59
-35 48 -17 -13 21 -125 87 -184 108 -67 24 -93 29 -76 14z"/>
<path d="M5225 4761 c31 -5 44 -14 62 -41 12 -19 30 -45 39 -58 17 -25 72 -62
89 -62 6 1 -3 8 -20 17 -46 24 -65 44 -91 94 -25 51 -39 60 -87 58 -29 -2 -29
-2 8 -8z"/>
<path d="M6060 4758 c-19 -5 -87 -35 -150 -65 -63 -31 -140 -62 -170 -69 l-55
-14 47 5 c27 2 81 21 125 44 135 67 206 93 278 101 69 7 69 7 15 8 -30 0 -71
-4 -90 -10z"/>
<path d="M6214 4751 c3 -4 -25 -11 -63 -15 -83 -7 -108 -16 -291 -101 -80 -37
-161 -74 -180 -81 -26 -11 -28 -13 -8 -9 14 3 95 37 180 76 189 88 212 96 290
104 87 9 110 14 103 25 -3 6 -13 10 -21 10 -8 0 -13 -4 -10 -9z"/>
<path d="M3571 4684 c0 -11 3 -14 6 -6 3 7 2 16 -1 19 -3 4 -6 -2 -5 -13z"/>
<path d="M4004 4545 c0 -88 2 -123 3 -77 2 46 2 118 0 160 -1 42 -3 5 -3 -83z"/>
<path d="M3582 4620 c0 -14 2 -19 5 -12 2 6 2 18 0 25 -3 6 -5 1 -5 -13z"/>
<path d="M7803 4550 c0 -36 2 -50 4 -32 2 17 2 47 0 65 -2 17 -4 3 -4 -33z"/>
<path d="M5440 4592 c8 -5 26 -13 40 -16 17 -5 20 -4 10 2 -8 5 -26 13 -40 16
-17 5 -20 4 -10 -2z"/>
<path d="M5535 4555 c17 -8 37 -14 45 -14 8 0 -1 7 -20 14 -46 18 -64 17 -25
0z"/>
<path d="M6118 4543 c12 -2 30 -2 40 0 9 3 -1 5 -23 4 -22 0 -30 -2 -17 -4z"/>
<path d="M6221 4541 c36 -12 67 -29 124 -71 28 -21 109 -70 180 -110 72 -39
163 -97 203 -127 89 -66 194 -172 188 -189 -5 -12 12 -34 26 -34 4 0 8 8 8 18
0 14 4 12 21 -8 l21 -25 -17 30 c-27 45 -47 65 -186 182 -71 59 -129 111 -129
115 0 29 84 -28 234 -160 33 -29 62 -49 65 -46 9 9 -277 282 -321 307 -21 11
-38 25 -38 30 0 15 44 -5 75 -34 17 -16 68 -57 115 -91 46 -35 124 -101 172
-148 l87 -86 4 -84 3 -85 2 85 2 85 -92 90 c-51 50 -130 119 -175 153 -46 35
-83 65 -83 68 0 13 110 -54 179 -110 81 -65 119 -91 127 -84 16 16 -128 133
-238 193 -61 33 -151 65 -185 65 -26 0 -12 -19 45 -61 77 -58 204 -171 198
-177 -3 -2 -27 13 -53 35 -71 58 -95 73 -120 73 -25 0 -29 -10 -11 -28 7 -7 9
-12 5 -12 -13 0 -244 133 -302 175 -73 52 -118 75 -142 74 -12 0 -9 -3 8 -8z
m732 -270 l32 -34 -30 21 c-16 11 -46 35 -65 52 l-35 31 33 -18 c18 -10 47
-33 65 -52z m-88 -61 c10 -11 16 -20 13 -20 -3 0 -13 9 -23 20 -10 11 -16 20
-13 20 3 0 13 -9 23 -20z"/>
<path d="M5608 4533 c6 -2 18 -2 25 0 6 3 1 5 -13 5 -14 0 -19 -2 -12 -5z"/>
<path d="M6043 4533 c9 -2 23 -2 30 0 6 3 -1 5 -18 5 -16 0 -22 -2 -12 -5z"/>
<path d="M7855 4515 c-11 -42 -34 -87 -43 -81 -4 2 -7 -44 -8 -102 0 -59 -4
-127 -8 -152 -9 -55 -9 -46 -6 -100 2 -43 3 -42 17 30 8 41 18 129 22 195 5
69 15 140 25 167 10 26 16 53 13 60 -2 7 -8 0 -12 -17z"/>
<path d="M5974 4511 c-17 -10 -40 -31 -52 -46 -48 -61 -9 -170 68 -189 18 -4
15 -1 -8 9 -66 31 -93 125 -51 179 11 14 37 35 57 46 21 10 33 19 27 20 -5 0
-24 -9 -41 -19z"/>
<path d="M6390 4515 c17 -21 130 -95 144 -95 13 0 -17 26 -89 75 -52 37 -76
45 -55 20z"/>
<path d="M3601 4474 c0 -11 3 -14 6 -6 3 7 2 16 -1 19 -3 4 -6 -2 -5 -13z"/>
<path d="M6140 4431 c63 -60 55 -64 -22 -13 -50 33 -71 23 -25 -12 20 -15 69
-66 108 -112 69 -82 94 -101 68 -53 -15 29 -29 89 -20 89 21 -2 159 -155 149
-166 -3 -2 -17 5 -31 17 l-27 20 1 -23 c0 -13 7 -39 15 -58 14 -33 13 -21 -2
40 l-7 25 29 -25 c58 -49 186 -176 226 -223 l40 -47 -76 41 c-43 23 -79 39
-82 36 -3 -3 23 -27 58 -53 35 -27 83 -67 108 -90 25 -23 70 -54 100 -68 30
-15 86 -53 123 -86 38 -33 73 -60 78 -60 13 0 -35 66 -115 159 -63 73 -76 109
-33 95 17 -5 19 -3 15 20 -3 14 -4 26 -2 26 2 0 31 -18 65 -40 35 -23 70 -38
79 -35 11 4 22 -6 35 -32 18 -36 19 -37 23 -13 5 31 -15 97 -41 135 -11 17
-47 58 -81 93 -33 34 -56 62 -51 62 5 0 19 -10 32 -22 13 -12 25 -20 27 -17 4
4 -152 142 -168 148 -6 2 16 -22 49 -54 33 -31 51 -51 40 -44 -36 23 -104 92
-99 100 5 8 -47 52 -54 45 -9 -10 32 -55 125 -137 113 -98 185 -183 201 -236
6 -20 10 -39 8 -41 -2 -2 -34 42 -70 97 -36 55 -75 103 -86 106 -11 3 -59 45
-107 93 -132 130 -253 234 -314 266 -61 32 -52 20 38 -51 34 -27 100 -92 147
-145 49 -55 101 -103 123 -113 70 -33 221 -195 211 -226 -2 -7 -37 11 -86 45
-46 31 -85 56 -88 56 -3 0 4 -13 15 -29 53 -75 6 -54 -142 62 -63 50 -104 92
-143 148 -62 89 -152 189 -133 149 6 -14 18 -33 27 -43 8 -9 12 -20 9 -23 -3
-4 -59 47 -124 112 -65 66 -139 130 -163 143 l-45 24 65 -62z m482 -461 c26
-16 51 -30 54 -30 18 0 66 -46 78 -73 7 -18 48 -72 90 -121 42 -49 74 -91 72
-94 -3 -2 -29 17 -58 42 -29 26 -80 60 -113 76 -33 16 -89 57 -125 91 -55 52
-60 58 -30 44 19 -10 48 -27 63 -37 50 -35 39 -13 -29 61 -36 39 -63 71 -59
71 4 0 30 -13 57 -30z"/>
<path d="M4057 4473 c-4 -3 -7 -25 -7 -47 0 -23 -7 -81 -15 -131 -8 -49 -15
-125 -15 -167 0 -45 -4 -78 -10 -78 -5 0 -10 1 -10 3 0 1 -7 20 -15 42 -8 23
-14 31 -15 20 0 -11 9 -35 20 -52 20 -33 40 -43 40 -20 0 8 4 7 10 -3 5 -8 10
-35 11 -60 0 -25 3 -39 6 -32 9 23 -8 147 -18 131 -14 -23 -10 116 6 216 8 50
15 109 15 133 0 30 4 41 12 36 7 -4 8 -3 4 4 -8 14 -10 14 -19 5z"/>
<path d="M6213 4460 c34 -49 118 -130 135 -130 23 0 112 -93 204 -212 37 -48
76 -92 87 -98 30 -15 27 3 -7 42 -16 18 -44 56 -62 83 -52 77 -186 212 -274
277 -83 61 -107 72 -83 38z"/>
<path d="M4086 4423 c4 -18 -3 -83 -15 -147 -12 -64 -20 -130 -18 -148 4 -33
4 -33 5 4 1 21 11 84 22 140 22 115 24 146 10 168 -7 11 -8 6 -4 -17z"/>
<path d="M5748 4443 c7 -3 16 -2 19 1 4 3 -2 6 -13 5 -11 0 -14 -3 -6 -6z"/>
<path d="M5628 4369 c-43 -38 -104 -107 -136 -152 -77 -108 -79 -112 -55 -99
32 18 171 169 209 228 24 38 40 54 50 50 11 -4 14 -1 9 13 -4 14 0 21 12 24
12 3 13 5 3 6 -8 0 -50 -31 -92 -70z m16 -11 c-15 -26 -103 -134 -128 -157
-71 -67 -10 36 72 122 44 44 72 62 56 35z"/>
<path d="M5808 4433 c30 -6 66 -62 128 -200 34 -77 49 -125 52 -167 3 -42 1
-57 -7 -52 -6 4 -11 16 -11 27 0 22 -111 262 -117 255 -3 -3 2 -28 10 -58 9
-29 19 -74 22 -101 4 -26 14 -51 22 -56 24 -13 8 -45 -46 -94 -47 -41 -141
-97 -189 -112 -21 -6 -23 -4 -17 14 5 16 2 21 -12 20 -10 0 -13 -3 -5 -6 8 -3
5 -11 -10 -24 l-23 -18 30 -1 c38 0 120 38 195 91 64 45 90 77 100 124 l7 30
11 -25 c6 -14 13 -37 16 -52 4 -17 13 -28 22 -28 14 0 16 10 12 63 -3 48 -16
88 -57 180 -65 143 -102 198 -134 196 -22 -2 -22 -2 1 -6z"/>
<path d="M5980 4428 c0 -6 11 -25 24 -42 37 -49 106 -193 107 -223 1 -27 1
-26 11 6 8 31 5 43 -28 109 -67 131 -114 194 -114 150z"/>
<path d="M3611 4414 c0 -11 3 -14 6 -6 3 7 2 16 -1 19 -3 4 -6 -2 -5 -13z"/>
<path d="M7786 4385 c-9 -26 -7 -32 5 -12 6 10 9 21 6 23 -2 3 -7 -2 -11 -11z"/>
<path d="M3621 4354 c0 -11 3 -14 6 -6 3 7 2 16 -1 19 -3 4 -6 -2 -5 -13z"/>
<path d="M5703 4335 c0 -22 2 -30 4 -17 2 12 2 30 0 40 -3 9 -5 -1 -4 -23z"/>
<path d="M4530 4323 c-30 -20 -88 -68 -127 -108 -59 -59 -73 -78 -72 -101 l2
-29 4 30 c6 37 119 150 206 206 34 21 58 39 52 38 -5 0 -35 -16 -65 -36z"/>
<path d="M5765 4303 c3 -32 16 -95 27 -141 17 -67 19 -91 10 -118 -5 -19 -7
-34 -2 -34 24 0 27 106 5 230 -19 104 -24 120 -37 120 -7 0 -8 -20 -3 -57z"/>
<path d="M5830 4343 c0 -4 5 -15 10 -23 8 -13 10 -13 10 2 0 9 -4 20 -10 23
-5 3 -10 3 -10 -2z"/>
<path d="M3991 4295 c-1 -16 -8 -39 -16 -49 -9 -11 -14 -38 -13 -60 l1 -41 4
39 c3 21 11 49 19 62 9 12 14 35 11 51 l-4 28 -2 -30z"/>
<path d="M5656 4295 c-4 -15 -11 -22 -20 -19 -17 7 -101 -86 -132 -148 -29
-57 -29 -62 -4 -55 31 8 24 -9 -16 -39 -37 -29 -32 -45 12 -36 54 10 168 190
181 285 6 42 -11 52 -21 12z m-27 -67 c-20 -39 -51 -79 -56 -74 -5 5 54 96 63
96 3 0 -1 -10 -7 -22z m-74 -74 c-26 -36 -49 -63 -52 -61 -7 7 25 66 60 111
50 63 43 22 -8 -50z m54 -19 c-32 -65 -86 -125 -112 -125 -19 0 -19 2 9 33 17
17 49 58 73 90 24 32 45 56 48 53 3 -2 -5 -26 -18 -51z m-60 -24 c-12 -17 -24
-29 -27 -27 -2 3 6 18 19 35 12 17 24 29 27 27 2 -3 -6 -18 -19 -35z"/>
<path d="M7774 4306 c-3 -7 -4 -40 -2 -72 l3 -59 5 73 c5 72 4 84 -6 58z"/>
<path d="M5693 4215 c0 -33 2 -45 4 -27 2 18 2 45 0 60 -2 15 -4 0 -4 -33z"/>
<path d="M6031 4253 c7 -12 15 -20 18 -17 3 2 -3 12 -13 22 -17 16 -18 16 -5
-5z"/>
<path d="M6140 4264 c0 -3 25 -54 55 -112 30 -59 55 -112 55 -119 0 -21 -15
-15 -38 17 -25 34 -42 39 -42 13 0 -25 -44 -115 -63 -132 -24 -19 -21 -5 13
64 16 33 29 74 29 90 -1 28 -2 27 -9 -7 -4 -21 -22 -67 -40 -103 -18 -36 -30
-68 -26 -72 13 -13 67 53 90 111 l24 58 21 -31 c25 -34 51 -41 51 -13 0 10
-21 58 -46 106 -25 48 -44 90 -41 93 7 7 153 -216 164 -251 5 -17 15 -31 21
-32 7 -1 8 0 2 3 -5 2 -10 12 -10 21 0 19 -57 112 -138 225 -48 68 -72 91 -72
71z"/>
<path d="M3641 4244 c0 -11 3 -14 6 -6 3 7 2 16 -1 19 -3 4 -6 -2 -5 -13z"/>
<path d="M5445 4221 c-3 -10 -24 -48 -47 -83 -22 -34 -44 -74 -48 -87 -3 -14
-19 -34 -34 -45 -24 -19 -42 -21 -146 -21 -82 0 -123 -4 -131 -12 -10 -10 -10
-13 -1 -13 7 0 12 5 12 10 0 7 33 9 100 4 82 -6 108 -4 145 10 49 19 99 71 91
93 -3 8 12 44 34 81 22 36 40 69 40 74 0 15 -9 8 -15 -11z"/>
<path d="M3651 4204 c0 -11 3 -14 6 -6 3 7 2 16 -1 19 -3 4 -6 -2 -5 -13z"/>
<path d="M5120 4170 c-45 -53 -246 -220 -264 -220 -6 1 32 42 85 93 79 76 97
99 103 131 l7 39 -33 -21 c-18 -11 -40 -34 -49 -50 -17 -33 -70 -83 -305 -287
-209 -183 -221 -192 -294 -216 -83 -27 -121 -50 -156 -96 -20 -27 -25 -40 -17
-52 12 -19 77 -26 125 -13 25 8 16 9 -39 4 -62 -4 -73 -2 -79 12 -5 12 6 31
37 62 34 35 59 49 112 66 79 24 108 44 306 217 250 218 326 289 323 301 -3 12
25 39 41 40 13 0 7 -50 -7 -56 -20 -8 -196 -181 -196 -193 0 -6 3 -11 6 -11
10 0 96 62 177 128 43 35 80 62 82 60 2 -2 -6 -21 -18 -42 -18 -31 -47 -52
-147 -110 -113 -64 -344 -226 -335 -234 2 -2 48 29 102 70 96 73 143 103 292
188 40 23 80 54 88 69 31 57 74 127 89 149 30 41 6 23 -36 -28z"/>
<path d="M6052 4200 c0 -14 2 -19 5 -12 2 6 2 18 0 25 -3 6 -5 1 -5 -13z"/>
<path d="M4508 4127 c-37 -29 -67 -56 -68 -60 0 -9 62 35 120 83 59 50 19 32
-52 -23z"/>
<path d="M3661 4165 c0 -5 6 -32 13 -60 8 -27 14 -41 14 -30 0 21 -25 107 -27
90z"/>
<path d="M4770 4093 c-52 -41 -138 -95 -190 -121 -52 -26 -129 -73 -171 -105
-41 -31 -89 -60 -106 -63 -27 -5 -32 -3 -36 17 -4 23 -4 23 -3 -1 1 -21 5 -25
33 -24 17 1 50 16 75 33 23 17 68 49 98 71 67 48 84 51 43 8 -16 -18 -56 -68
-88 -111 -38 -50 -63 -76 -72 -73 -8 3 -37 -10 -65 -29 -52 -35 -72 -39 -48
-10 25 30 -1 28 -46 -4 -51 -35 -49 -35 -63 -1 -5 14 -10 18 -10 9 -1 -8 5
-24 13 -34 13 -18 14 -18 44 3 40 29 48 28 28 -3 -23 -34 -11 -31 59 15 33 22
70 40 82 40 15 0 36 18 65 56 106 139 128 162 174 184 90 41 299 199 284 212
-3 3 -48 -29 -100 -69z"/>
<path d="M6064 4068 c0 -60 3 -108 7 -108 13 0 41 107 36 137 -4 25 -4 24 -6
-7 -2 -19 -9 -51 -16 -70 l-14 -35 5 50 c3 28 1 70 -3 95 -7 37 -9 25 -9 -62z"/>
<path d="M6132 4150 c0 -14 2 -19 5 -12 2 6 2 18 0 25 -3 6 -5 1 -5 -13z"/>
<path d="M7734 4135 c-4 -9 -4 -19 0 -22 3 -4 6 0 6 8 0 11 2 11 10 -1 8 -13
10 -13 10 2 0 23 -19 33 -26 13z"/>
<path d="M5632 4118 c-23 -26 -92 -137 -92 -150 0 -14 48 -58 62 -58 7 1 1 7
-13 15 -36 19 -42 40 -23 78 27 53 85 127 95 121 5 -3 9 0 9 5 0 17 -15 13
-38 -11z"/>
<path d="M5676 4115 c-4 -16 -13 -47 -21 -68 -7 -20 -10 -35 -5 -32 12 8 42
103 37 118 -2 6 -8 -1 -11 -18z"/>
<path d="M4715 4120 c-13 -6 -15 -9 -5 -9 8 0 22 4 30 9 18 12 2 12 -25 0z"/>
<path d="M4575 4089 c-22 -17 -33 -29 -25 -26 8 4 34 12 58 19 23 7 42 18 42
25 0 22 -33 14 -75 -18z"/>
<path d="M7722 4060 c-1 -25 -4 -63 -7 -85 l-5 -40 11 40 c5 22 8 60 6 85 l-3
45 -2 -45z"/>
<path d="M7762 4075 c0 -16 2 -22 5 -12 2 9 2 23 0 30 -3 6 -5 -1 -5 -18z"/>
<path d="M6373 4020 c0 -36 2 -50 4 -32 2 17 2 47 0 65 -2 17 -4 3 -4 -33z"/>
<path d="M4321 4034 c0 -11 3 -14 6 -6 3 7 2 16 -1 19 -3 4 -6 -2 -5 -13z"/>
<path d="M4633 3909 c-80 -77 -179 -167 -220 -200 -89 -71 -68 -84 25 -14 68
51 338 308 353 336 24 45 -21 11 -158 -122z"/>
<path d="M6995 3975 c4 -11 18 -54 31 -96 13 -42 32 -83 41 -90 15 -13 16 -11
10 11 -4 14 -7 48 -8 75 l-2 50 -6 -50 -7 -50 -22 68 c-12 38 -27 76 -33 85
-9 15 -10 14 -4 -3z"/>
<path d="M3711 3954 c0 -11 3 -14 6 -6 3 7 2 16 -1 19 -3 4 -6 -2 -5 -13z"/>
<path d="M5108 3953 c51 -7 37 -20 -26 -25 -68 -7 -174 -54 -151 -69 8 -5 23
-8 34 -8 16 1 15 2 -5 8 -24 7 -24 8 18 30 24 12 67 24 95 27 29 3 63 8 77 10
24 5 24 6 6 20 -11 8 -34 13 -50 12 l-31 -1 33 -4z"/>
<path d="M7601 3839 c-30 -60 -51 -112 -47 -116 3 -3 6 0 6 8 0 8 13 35 28 60
15 24 36 66 46 93 21 56 36 47 36 -21 0 -24 4 -43 9 -43 11 0 21 25 20 48 0
14 -2 13 -8 -3 -6 -15 -9 -10 -14 24 -3 24 -9 47 -14 52 -4 4 -32 -41 -62
-102z"/>
<path d="M7466 3894 c-3 -26 -6 -101 -5 -168 l0 -121 26 85 c33 110 37 156 20
204 -19 55 -33 55 -41 0z m43 -64 c0 -19 -8 -60 -19 -90 l-19 -55 0 86 c-1 48
2 102 6 120 l7 34 12 -30 c7 -16 13 -46 13 -65z"/>
<path d="M7749 3922 c-2 -23 -5 -40 -9 -44 -8 -10 -26 -145 -20 -151 9 -10 13
8 31 126 6 43 9 80 5 84 -3 3 -7 -3 -7 -15z"/>
<path d="M7702 3910 c0 -14 2 -19 5 -12 2 6 2 18 0 25 -3 6 -5 1 -5 -13z"/>
<path d="M4061 3894 c0 -16 4 -38 9 -49 6 -13 7 -5 3 25 -7 53 -13 66 -12 24z"/>
<path d="M4276 3894 c-4 -14 -5 -28 -3 -31 3 -2 8 8 11 23 4 14 5 28 3 31 -3
2 -8 -8 -11 -23z"/>
<path d="M6275 3890 c-22 -4 7 -5 65 -2 58 2 107 6 109 8 7 7 -132 1 -174 -6z"/>
<path d="M6478 3883 c13 -2 22 -9 20 -15 -6 -17 -111 -77 -148 -84 l-35 -7 28
30 c15 16 27 35 27 42 0 20 -96 7 -228 -30 -256 -72 -308 -81 -432 -75 -63 3
-159 12 -212 19 -109 14 -130 7 -38 -14 84 -19 89 -23 57 -53 -29 -27 -36 -73
-13 -82 23 -9 15 -75 -9 -85 -17 -8 -17 -8 5 -6 22 2 25 7 27 45 1 29 -3 45
-13 49 -22 8 -16 44 13 75 23 24 24 29 12 44 -13 16 -11 16 21 10 19 -3 85 -9
145 -12 123 -7 152 -2 405 66 80 22 170 42 200 46 59 8 60 6 12 -45 -9 -9 -10
-17 -3 -24 15 -15 75 5 136 45 55 36 65 62 25 65 -23 1 -23 1 -2 -4z"/>
<path d="M6105 3849 c-118 -35 -266 -68 -315 -70 -32 -2 -32 -2 -7 -6 16 -3
65 3 110 12 79 16 327 83 336 91 10 10 -32 0 -124 -27z"/>
<path d="M5043 3863 c32 -2 81 -2 110 0 29 2 3 3 -58 3 -60 0 -84 -1 -52 -3z"/>
<path d="M5428 3863 c6 -2 18 -2 25 0 6 3 1 5 -13 5 -14 0 -19 -2 -12 -5z"/>
<path d="M5775 3859 c-19 -9 -18 -9 3 -5 12 2 22 2 22 0 0 -10 -67 -44 -87
-44 -34 0 -28 17 8 25 17 4 28 9 25 12 -9 9 -77 -19 -73 -30 7 -23 57 -18 107
9 27 15 50 31 50 36 0 11 -30 9 -55 -3z"/>
<path d="M5263 3853 c9 -2 23 -2 30 0 6 3 -1 5 -18 5 -16 0 -22 -2 -12 -5z"/>
<path d="M5318 3843 c6 -2 18 -2 25 0 6 3 1 5 -13 5 -14 0 -19 -2 -12 -5z"/>
<path d="M5368 3833 c7 -3 16 -2 19 1 4 3 -2 6 -13 5 -11 0 -14 -3 -6 -6z"/>
<path d="M7180 3833 c0 -12 82 -124 105 -143 23 -19 18 2 -14 51 -31 49 -91
109 -91 92z m70 -78 c14 -19 14 -19 -2 -6 -10 7 -18 18 -18 24 0 6 1 8 3 6 1
-2 9 -13 17 -24z"/>
<path d="M7619 3813 c-15 -38 -25 -263 -12 -263 14 0 22 53 30 183 6 108 1
129 -18 80z"/>
<path d="M5408 3823 c7 -3 16 -2 19 1 4 3 -2 6 -13 5 -11 0 -14 -3 -6 -6z"/>
<path d="M4081 3820 c-1 -3 8 -30 19 -60 10 -30 19 -46 19 -35 0 18 -36 107
-38 95z"/>
<path d="M5448 3813 c7 -3 16 -2 19 1 4 3 -2 6 -13 5 -11 0 -14 -3 -6 -6z"/>
<path d="M5565 3789 c50 -10 104 -18 120 -18 17 0 -17 9 -75 19 -133 24 -164
24 -45 -1z"/>
<path d="M4770 3785 c-14 -8 -19 -14 -13 -15 8 0 11 -11 8 -32 -3 -23 -3 -26
3 -11 4 13 15 32 25 43 28 34 20 39 -23 15z"/>
<path d="M4675 3746 c-66 -32 -53 -33 16 -2 30 14 50 25 44 25 -5 1 -32 -10
-60 -23z"/>
<path d="M5728 3763 c7 -3 16 -2 19 1 4 3 -2 6 -13 5 -11 0 -14 -3 -6 -6z"/>
<path d="M6023 3741 c-60 -23 -76 -41 -37 -41 33 1 97 30 96 45 -1 15 -14 14
-59 -4z m14 -17 c-16 -9 -31 -13 -34 -10 -3 3 5 10 18 15 37 15 47 12 16 -5z"/>
<path d="M4534 3697 c-122 -85 -122 -99 0 -32 47 26 86 47 86 48 0 1 -13 2
-28 3 -16 1 -42 -8 -58 -19z"/>
<path d="M7543 3660 c0 -30 2 -43 4 -27 2 15 2 39 0 55 -2 15 -4 2 -4 -28z"/>
<path d="M4770 3679 c0 -12 -21 -41 -50 -69 -27 -27 -50 -53 -50 -58 0 -5 27
5 59 22 33 17 58 32 56 34 -2 2 -17 -4 -34 -12 -45 -24 -47 -20 -7 24 30 34
48 80 31 80 -3 0 -5 -9 -5 -21z"/>
<path d="M6269 3643 c-41 -32 -87 -64 -102 -72 -15 -8 -27 -18 -27 -23 0 -38
180 77 211 135 16 29 -4 19 -82 -40z m31 -4 c-41 -33 -113 -79 -124 -79 -5 0
10 13 35 29 24 16 58 40 74 54 17 14 32 23 35 20 3 -2 -6 -13 -20 -24z"/>
<path d="M4660 3639 c-56 -49 -72 -58 -192 -104 -62 -24 -108 -44 -101 -45 32
-1 230 87 274 122 27 21 49 35 49 30 0 -17 -58 -63 -145 -112 -79 -45 -85 -51
-52 -45 47 8 42 -10 -9 -31 -19 -8 -34 -18 -34 -23 0 -11 81 13 120 36 41 24
48 10 16 -31 -14 -19 -26 -44 -26 -55 0 -23 -30 -46 -119 -90 -34 -18 -61 -35
-58 -37 5 -6 53 13 215 85 51 23 98 41 105 41 30 -1 -80 -81 -153 -110 -92
-37 -106 -50 -56 -50 23 0 72 19 143 56 101 52 106 53 72 22 -20 -18 -58 -49
-84 -68 -57 -41 -71 -66 -32 -56 15 3 27 1 29 -5 5 -15 34 0 103 50 83 62 84
56 1 -23 -43 -42 -76 -79 -73 -83 4 -3 36 13 73 36 37 23 71 40 77 38 5 -1 -9
-25 -32 -51 -23 -27 -40 -50 -38 -53 3 -2 33 14 67 37 35 22 66 37 69 34 3 -3
-40 -49 -96 -102 -95 -91 -142 -147 -131 -157 2 -3 45 29 94 70 49 41 93 75
98 75 10 0 -1 -14 -97 -117 -92 -99 -73 -100 82 -1 25 15 47 26 50 23 2 -3
-11 -21 -29 -40 -19 -19 -31 -35 -28 -35 3 0 44 18 91 40 47 22 94 40 105 40
20 0 20 -2 6 -35 -21 -50 -19 -51 32 -6 43 37 64 49 64 36 0 -3 -16 -23 -36
-45 -37 -40 -41 -68 -6 -37 23 21 32 21 32 1 0 -13 3 -14 15 -4 33 27 33 2 -1
-45 -47 -66 -137 -225 -131 -231 2 -2 23 21 47 53 23 32 84 99 134 148 51 50
123 132 161 183 37 50 70 90 72 89 11 -12 -38 -105 -114 -218 -79 -118 -101
-167 -55 -126 23 21 29 21 35 0 3 -11 5 -7 6 10 1 30 -10 35 -29 12 -7 -9 -15
-13 -17 -11 -3 2 33 60 79 128 78 115 116 198 106 229 -2 7 -19 -9 -38 -37
-49 -72 -179 -234 -189 -234 -4 0 -36 -28 -69 -62 -34 -33 -62 -58 -62 -54 0
4 25 45 55 91 55 84 64 105 44 105 -6 0 -9 7 -5 15 7 20 -8 19 -42 -2 -25 -16
-25 -15 6 18 54 58 32 69 -38 18 l-43 -31 7 26 c6 23 3 26 -19 26 -14 0 -55
-14 -92 -30 -71 -32 -85 -34 -53 -5 46 42 13 47 -51 7 -113 -71 -125 -77 -109
-57 8 11 43 51 78 89 116 128 104 144 -25 35 -46 -40 -86 -70 -88 -67 -9 8 71
92 129 137 56 44 93 88 81 99 -4 4 -29 -5 -56 -21 -55 -31 -60 -28 -24 15 14
16 25 34 25 39 0 13 -22 11 -45 -4 -46 -31 -95 -58 -95 -53 0 3 44 44 98 92
53 48 96 91 94 96 -1 5 2 7 7 3 6 -3 23 1 39 9 15 8 44 17 65 21 30 6 37 4 37
-8 0 -16 37 -34 47 -23 4 3 -1 6 -10 6 -35 0 -13 16 84 64 54 27 97 51 95 54
-3 2 -35 -12 -71 -33 -37 -20 -69 -34 -72 -32 -3 3 8 12 24 20 15 8 37 24 47
36 19 21 19 21 -2 21 -11 0 -56 -16 -99 -36 -43 -20 -96 -42 -118 -49 -22 -7
-39 -18 -37 -25 1 -6 -2 -9 -8 -5 -14 8 -63 -23 -55 -35 3 -5 0 -12 -6 -16 -8
-4 -9 -3 -5 4 14 22 -3 12 -95 -58 -90 -69 -109 -80 -109 -60 0 6 -11 8 -25 4
-14 -3 -25 -4 -25 -1 0 3 35 30 78 60 76 54 119 93 111 101 -3 3 -35 -11 -72
-30 -37 -19 -70 -34 -73 -34 -4 0 14 18 40 41 73 65 60 75 -42 34 -75 -30 -80
-31 -56 -4 15 17 16 22 4 29 -11 6 -8 15 13 40 37 43 36 64 -3 57 -17 -4 -30
-2 -30 3 0 6 -7 10 -15 10 -27 0 -16 15 26 35 70 33 174 136 137 135 -7 -1
-29 -15 -48 -31z m500 -188 c0 -16 -126 -73 -151 -69 -18 2 -3 12 61 40 98 43
90 41 90 29z m-80 -71 c-8 -5 -19 -10 -25 -10 -5 0 -3 5 5 10 8 5 20 10 25 10
6 0 3 -5 -5 -10z m-521 -44 c-2 -2 -15 -9 -29 -15 -24 -11 -24 -11 -6 3 16 13
49 24 35 12z m271 -51 c-7 -8 -17 -15 -22 -15 -6 0 -5 7 2 15 7 8 17 15 22 15
6 0 5 -7 -2 -15z m-200 -1 c0 -10 -110 -55 -127 -52 -10 2 11 15 47 30 70 28
80 31 80 22z"/>
<path d="M7304 3655 c3 -11 8 -39 11 -62 4 -24 11 -46 17 -49 14 -9 2 59 -18
101 -7 16 -12 21 -10 10z"/>
<path d="M4931 3649 c-70 -13 -71 -17 -6 -14 85 4 85 4 85 15 0 12 -17 11 -79
-1z"/>
<path d="M4838 3623 c7 -3 16 -2 19 1 4 3 -2 6 -13 5 -11 0 -14 -3 -6 -6z"/>
<path d="M4848 3599 c-52 -23 -71 -49 -35 -49 12 0 47 7 77 15 79 21 92 18 39
-10 -33 -17 -48 -32 -52 -50 -3 -17 0 -28 8 -32 20 -7 198 40 203 55 2 6 -5
13 -15 13 -10 1 -4 4 12 8 17 4 29 12 28 19 -2 7 9 12 25 13 20 1 15 4 -18 11
-53 11 -151 3 -233 -18 -81 -21 -93 -11 -27 19 66 31 55 35 -12 6z m226 -28
c6 -9 -162 -56 -171 -47 -3 3 18 17 48 31 54 25 113 33 123 16z m-79 -66 c-22
-8 -49 -13 -60 -13 -11 0 -2 5 20 13 22 7 49 13 60 13 11 0 2 -6 -20 -13z"/>
<path d="M7530 3577 c0 -8 -11 -24 -25 -37 -26 -24 -105 -176 -105 -200 1 -8
12 11 25 43 30 72 62 125 92 154 20 19 32 53 18 53 -3 0 -5 -6 -5 -13z"/>
<path d="M7646 3529 c-14 -34 -42 -85 -62 -115 -20 -30 -33 -59 -31 -66 4 -10
6 -9 6 1 1 8 9 24 20 35 24 27 70 110 87 160 22 62 9 52 -20 -15z"/>
<path d="M5185 3570 c11 -5 27 -9 35 -9 9 0 8 4 -5 9 -11 5 -27 9 -35 9 -9 0
-8 -4 5 -9z"/>
<path d="M5255 3550 c11 -5 27 -9 35 -9 9 0 8 4 -5 9 -11 5 -27 9 -35 9 -9 0
-8 -4 5 -9z"/>
<path d="M5325 3530 c19 -8 73 -14 64 -6 -2 2 -22 6 -44 9 -28 5 -34 4 -20 -3z"/>
<path d="M5428 3513 c6 -2 18 -2 25 0 6 3 1 5 -13 5 -14 0 -19 -2 -12 -5z"/>
<path d="M6886 3511 c-3 -5 19 -39 50 -76 54 -66 89 -123 82 -131 -2 -2 -21
19 -42 46 -68 89 -164 160 -216 160 -33 0 -24 -13 52 -70 94 -71 147 -125 177
-180 23 -43 21 -42 -43 27 -88 94 -266 224 -266 194 0 -11 67 -67 171 -143 60
-44 82 -68 107 -116 34 -63 44 -104 15 -62 -9 14 -30 40 -47 59 -35 38 -222
181 -238 181 -16 0 -3 -23 15 -26 9 -1 54 -30 101 -63 116 -84 196 -183 196
-243 0 -13 5 -30 10 -38 20 -31 10 65 -15 135 l-24 70 45 -50 45 -50 -16 40
c-24 62 -100 170 -141 202 -110 85 -146 117 -136 121 6 2 35 -9 63 -24 55 -31
121 -98 177 -181 19 -29 39 -50 45 -46 5 3 7 1 4 -4 -12 -19 96 -193 110 -180
3 4 -46 94 -128 237 -24 41 -63 99 -87 128 -50 62 -51 83 -3 50 22 -15 48 -50
75 -103 23 -44 68 -120 100 -169 59 -90 75 -98 76 -36 l1 25 16 -22 c8 -13 19
-23 24 -23 10 0 59 82 59 100 0 8 -12 -9 -26 -38 -14 -29 -29 -52 -34 -52 -4
0 -14 26 -22 58 l-15 57 -8 -67 c-4 -38 -10 -68 -14 -67 -10 0 -127 189 -157
253 -41 88 -117 152 -138 117z m-82 -110 c23 -16 49 -37 57 -47 15 -20 -32 10
-84 53 -40 32 -24 29 27 -6z m236 -121 c6 -11 8 -20 6 -20 -3 0 -10 9 -16 20
-6 11 -8 20 -6 20 3 0 10 -9 16 -20z"/>
<path d="M6990 3501 c0 -12 111 -113 117 -107 8 8 -6 38 -15 32 -11 -7 -78 51
-68 61 4 4 21 -8 37 -27 16 -19 29 -29 29 -23 0 15 -67 73 -85 73 -8 0 -15 -4
-15 -9z"/>
<path d="M5011 3476 c-25 -6 -46 -17 -48 -23 -5 -13 44 -30 54 -19 4 3 -3 6
-15 6 -38 0 -24 17 22 29 25 6 52 11 61 11 26 0 8 -18 -26 -25 -17 -4 -28 -9
-25 -12 8 -8 73 17 86 33 11 12 6 14 -26 13 -22 -1 -59 -6 -83 -13z"/>
<path d="M7234 3458 c28 -65 41 -88 50 -88 14 0 -2 59 -25 91 -27 39 -43 37
-25 -3z"/>
<path d="M5269 3461 c7 -5 11 -13 8 -18 -13 -20 -91 -67 -140 -84 -29 -10 -43
-18 -31 -19 29 0 135 54 163 84 23 24 22 46 -2 46 -8 0 -7 -3 2 -9z"/>
<path d="M7306 3398 c-3 -13 -5 -48 -5 -78 l2 -55 7 58 c10 74 20 84 21 21 0
-27 4 -58 8 -69 7 -18 8 -18 18 -1 7 12 13 15 17 7 12 -19 26 -12 26 12 0 16
-3 18 -9 8 -7 -11 -9 -11 -13 0 -4 12 -7 12 -21 0 -15 -12 -17 -9 -17 37 0 75
-20 111 -34 60z"/>
<path d="M5251 3381 c-17 -16 -31 -32 -31 -35 0 -13 60 25 70 44 15 29 -3 25
-39 -9z"/>
<path d="M9505 3390 c3 -5 18 -10 32 -10 32 0 28 5 -10 14 -19 4 -26 3 -22 -4z"/>
<path d="M5430 3303 c-129 -105 -146 -121 -137 -129 4 -4 28 2 52 14 25 12 48
22 51 22 3 0 -17 -27 -46 -60 -29 -33 -48 -60 -43 -60 4 0 43 32 86 71 69 63
108 113 107 136 -1 4 -8 -5 -17 -22 -25 -48 -45 -68 -54 -53 -6 10 -19 7 -54
-10 -62 -30 -77 -28 -35 6 19 15 63 51 98 80 34 29 67 50 72 47 6 -3 10 1 10
9 0 9 -2 16 -4 16 -2 0 -41 -30 -86 -67z"/>
<path d="M5598 3353 c-21 -25 -119 -185 -115 -189 1 -2 30 41 63 94 66 107 84
118 127 78 15 -14 27 -21 27 -16 0 13 -51 50 -70 50 -9 0 -24 -8 -32 -17z"/>
<path d="M6350 3358 c0 -13 189 -202 196 -196 2 3 -13 34 -34 69 -27 45 -55
75 -93 101 -58 40 -69 44 -69 26z m93 -50 c24 -18 76 -98 62 -98 -10 0 -96 83
-117 113 l-21 29 24 -12 c13 -7 36 -22 52 -32z"/>
<path d="M6700 3363 c0 -3 40 -47 88 -97 49 -50 91 -101 94 -113 5 -18 0 -16
-27 12 -29 31 -55 45 -55 30 0 -17 68 -94 82 -95 11 0 18 -11 21 -32 2 -18 3
-11 1 16 -2 27 -11 63 -21 82 -17 31 -183 210 -183 197z"/>
<path d="M5232 3304 c-46 -31 -81 -59 -78 -61 13 -13 186 87 186 107 0 21 -29
8 -108 -46z m48 11 c0 -2 -10 -9 -22 -15 -22 -11 -22 -10 -4 4 21 17 26 19 26
11z"/>
<path d="M6100 3335 c0 -8 15 -38 34 -67 47 -74 72 -127 102 -211 15 -39 42
-103 62 -142 19 -38 43 -92 54 -120 10 -28 16 -37 13 -20 -3 17 -26 72 -50
123 -53 110 -60 147 -9 50 19 -38 37 -68 39 -68 3 0 -10 30 -29 68 -34 68 -68
148 -100 235 -10 27 -20 46 -23 43 -2 -2 1 -14 7 -26 6 -12 10 -24 7 -26 -2
-3 -24 28 -48 68 -54 89 -53 88 -40 88 5 0 22 -20 37 -45 27 -46 44 -63 23
-22 -19 36 -59 87 -70 87 -5 0 -9 -7 -9 -15z"/>
<path d="M5292 3279 c-93 -69 -112 -105 -34 -65 57 29 122 88 122 110 0 9 -1
16 -3 16 -2 0 -40 -27 -85 -61z m42 0 c-30 -32 -82 -64 -91 -56 -5 6 98 87
111 87 6 0 -3 -14 -20 -31z"/>
<path d="M5727 3333 c-4 -3 -6 -29 -6 -57 1 -32 3 -40 6 -21 2 17 6 37 9 45 4
13 6 13 14 0 6 -8 10 -28 10 -43 0 -30 28 -93 37 -84 3 3 -2 16 -11 29 -9 12
-16 35 -16 51 0 15 -7 41 -15 57 -17 32 -18 33 -28 23z"/>
<path d="M6630 3305 c0 -2 38 -47 85 -99 94 -107 118 -145 113 -184 -3 -27 -3
-26 -27 13 -23 37 -107 149 -165 220 -32 39 -42 27 -18 -22 11 -21 17 -44 14
-51 -4 -14 47 -146 54 -139 3 2 -5 24 -16 48 -25 56 -25 69 0 69 24 0 59 -36
121 -127 54 -79 77 -101 65 -62 -4 13 -12 44 -17 68 -6 28 -27 68 -56 105
l-46 61 46 -44 c26 -25 63 -75 82 -113 20 -38 41 -66 46 -63 14 9 11 25 -4 25
-8 0 -24 24 -38 53 -29 63 -239 276 -239 242z"/>
<path d="M5941 3178 c1 -154 10 -185 33 -109 17 58 21 167 7 189 -4 7 -6 -12
-3 -42 5 -64 -5 -146 -19 -146 -5 0 -9 48 -9 111 0 81 3 108 12 103 7 -4 8 -3
4 4 -19 32 -26 3 -25 -110z"/>
<path d="M7540 3277 c0 -14 5 -29 10 -32 7 -4 8 3 4 22 -9 38 -14 42 -14 10z"/>
<path d="M5628 3260 c-4 -19 -10 -62 -14 -95 -7 -62 -52 -220 -60 -212 -3 2 0
33 6 68 15 95 13 98 -23 38 -18 -30 -49 -75 -69 -101 -71 -92 -158 -277 -158
-334 0 -15 4 -14 25 6 30 28 30 28 5 -45 -11 -32 -20 -66 -20 -75 0 -10 -11
-51 -24 -91 -13 -41 -22 -76 -20 -78 2 -2 15 1 28 7 34 15 74 104 86 191 6 40
14 81 19 90 17 29 22 -9 19 -138 -2 -66 -1 -121 2 -121 3 0 27 67 54 148 45
133 50 158 54 260 3 61 8 112 13 112 14 0 31 -112 24 -164 -3 -28 -17 -82 -31
-120 -13 -38 -22 -71 -20 -74 3 -3 15 6 26 19 l21 24 -7 -54 c-3 -30 -13 -69
-20 -87 -14 -34 -19 -62 -8 -51 3 3 37 72 75 153 49 105 66 150 58 155 -9 5
-8 18 4 51 13 33 17 76 17 173 0 74 6 164 15 208 8 43 15 82 14 85 -1 16 -18
-36 -19 -63 l-2 -30 -9 30 -8 30 1 -30 c1 -16 -2 -37 -5 -45 -3 -8 -15 -60
-27 -115 -11 -54 -23 -101 -25 -104 -8 -8 -6 85 6 208 6 64 9 137 7 161 l-3
45 -7 -35z"/>
<path d="M5702 3270 c0 -14 2 -19 5 -12 2 6 2 18 0 25 -3 6 -5 1 -5 -13z"/>
<path d="M5692 3210 c0 -14 2 -19 5 -12 2 6 2 18 0 25 -3 6 -5 1 -5 -13z"/>
<path d="M7423 3183 c-16 -21 -48 -66 -72 -100 -23 -35 -44 -63 -48 -63 -3 0
-3 26 0 58 5 53 5 55 -7 27 -23 -52 -29 -78 -17 -71 6 4 11 0 11 -9 0 -29 24
-10 70 56 62 90 96 129 105 121 5 -4 5 -1 1 6 -10 16 -9 17 -43 -25z"/>
<path d="M5820 3188 c0 -19 2 -20 10 -8 9 13 12 13 21 -2 5 -10 16 -18 24 -18
7 0 16 -10 18 -22 3 -18 5 -16 5 7 1 17 -3 37 -8 45 -9 13 -11 13 -19 0 -9
-12 -11 -12 -17 3 -9 25 -34 21 -34 -5z"/>
<path d="M6380 3168 c0 -13 5 -30 10 -38 8 -11 9 -7 4 15 -6 27 -4 25 31 -20
21 -27 59 -75 84 -105 54 -65 283 -291 289 -285 2 2 -55 61 -127 131 -93 90
-130 133 -126 144 3 10 -1 23 -10 30 -18 15 -20 0 -2 -20 6 -8 -1 -4 -16 10
-16 14 -51 55 -79 93 -27 37 -52 67 -54 67 -2 0 -4 -10 -4 -22z"/>
<path d="M7484 3164 c20 -42 68 -82 157 -131 89 -49 119 -78 137 -130 12 -37
12 -37 7 -5 -8 55 -38 85 -140 142 -88 50 -127 82 -163 136 -7 10 -6 5 2 -12z"/>
<path d="M5503 3143 c-10 -15 -14 -15 -21 -5 -8 11 -10 11 -15 -2 -3 -8 -2
-18 3 -21 10 -6 59 25 60 38 0 13 -15 7 -27 -10z"/>
<path d="M5807 3093 c3 -37 14 -102 24 -145 23 -94 23 -95 0 -74 -25 23 -72
129 -78 177 -6 45 -19 50 -33 13 -14 -35 -12 -260 1 -309 6 -22 25 -59 42 -82
27 -38 29 -48 24 -95 -3 -29 -17 -91 -31 -138 -13 -47 -23 -87 -20 -89 12 -12
101 250 115 341 7 40 14 75 16 77 4 5 34 -34 45 -59 4 -8 6 41 6 110 -1 101
-3 112 -7 56 -5 -54 -9 -66 -17 -55 -20 25 -43 111 -58 218 -18 122 -36 157
-29 54z"/>
<path d="M7660 3153 c8 -3 41 -18 73 -33 31 -16 57 -26 57 -24 0 12 -97 64
-119 63 -15 0 -20 -3 -11 -6z"/>
<path d="M5521 3104 c0 -11 3 -14 6 -6 3 7 2 16 -1 19 -3 4 -6 -2 -5 -13z"/>
<path d="M6400 3103 c0 -6 32 -58 70 -116 39 -58 70 -108 70 -111 0 -3 -7 -6
-15 -6 -8 0 -15 -1 -15 -3 0 -2 16 -42 35 -90 19 -48 35 -95 35 -104 0 -10
-15 18 -34 63 -41 101 -78 169 -116 214 l-29 35 1 -65 1 -65 6 50 6 50 27 -36
c32 -41 100 -185 119 -250 16 -56 16 -56 34 -33 8 11 15 14 15 7 0 -7 5 -13
11 -13 39 0 -45 222 -127 337 -25 35 -57 83 -70 106 -13 23 -24 37 -24 30z"/>
<path d="M5903 3050 c0 -25 2 -35 4 -22 2 12 2 32 0 45 -2 12 -4 2 -4 -23z"/>
<path d="M5507 3066 c-3 -8 -26 -41 -50 -73 -25 -32 -81 -125 -125 -206 -44
-82 -82 -143 -84 -136 -2 7 -10 -8 -18 -34 -7 -26 -11 -50 -8 -52 2 -3 39 64
82 148 73 142 126 230 192 320 15 20 25 40 22 42 -3 3 -8 -1 -11 -9z"/>
<path d="M3949 3013 c-13 -16 -12 -17 4 -4 9 7 17 15 17 17 0 8 -8 3 -21 -13z"/>
<path d="M6690 3027 c0 -3 9 -26 20 -52 27 -64 25 -66 -15 -20 l-35 40 15 -43
c8 -24 24 -58 37 -75 26 -38 98 -119 98 -111 0 3 -18 27 -41 52 -23 26 -48 61
-56 77 l-16 30 27 -24 c14 -14 28 -23 30 -20 2 2 -9 35 -25 74 -29 66 -39 86
-39 72z"/>
<path d="M7918 3023 c7 -3 16 -2 19 1 4 3 -2 6 -13 5 -11 0 -14 -3 -6 -6z"/>
<path d="M7256 3005 c-9 -26 -7 -32 5 -12 6 10 9 21 6 23 -2 3 -7 -2 -11 -11z"/>
<path d="M8028 3003 c7 -3 16 -2 19 1 4 3 -2 6 -13 5 -11 0 -14 -3 -6 -6z"/>
<path d="M8078 2993 c6 -2 18 -2 25 0 6 3 1 5 -13 5 -14 0 -19 -2 -12 -5z"/>
<path d="M6770 2974 c0 -15 67 -90 74 -83 4 3 -12 26 -33 50 -22 24 -40 39
-41 33z"/>
<path d="M8180 2970 c8 -5 20 -10 25 -10 6 0 3 5 -5 10 -8 5 -19 10 -25 10 -5
0 -3 -5 5 -10z"/>
<path d="M7227 2935 c-24 -50 -20 -58 4 -12 11 22 19 41 17 43 -3 2 -12 -12
-21 -31z"/>
<path d="M3744 2924 c-18 -14 -18 -15 4 -4 12 6 22 13 22 15 0 8 -5 6 -26 -11z"/>
<path d="M6116 2925 c-3 -8 -11 -15 -19 -15 -7 0 -29 -29 -48 -65 l-34 -65 -5
68 c-5 62 -7 67 -29 68 -23 1 -23 1 -17 -73 5 -56 3 -86 -10 -128 -12 -36 -21
-51 -26 -43 -4 8 -8 -7 -8 -34 0 -27 5 -48 10 -48 6 0 10 13 10 28 0 16 9 55
21 88 16 48 19 72 14 127 -6 57 -5 67 9 67 13 0 16 -13 16 -75 0 -41 3 -75 8
-75 4 0 22 31 39 69 24 51 41 74 64 85 42 21 41 21 34 -19 -3 -19 -7 -52 -10
-72 l-4 -38 14 35 c7 19 14 51 14 71 1 47 -29 79 -43 44z"/>
<path d="M4150 2925 c0 -4 11 -21 25 -39 28 -37 32 -56 11 -56 -14 0 -53 -96
-43 -106 2 -2 10 16 17 41 7 25 22 50 32 56 15 8 18 17 14 35 -4 13 -2 24 2
24 13 0 101 -97 150 -165 144 -202 292 -366 406 -448 77 -56 262 -156 316
-171 14 -4 -29 19 -95 52 -181 90 -253 144 -402 303 -73 77 -142 157 -155 177
-52 87 -160 220 -205 253 -57 43 -73 52 -73 44z"/>
<path d="M3972 2811 c-13 -97 -15 -148 -6 -138 5 5 33 183 34 215 0 6 -4 12
-8 12 -5 0 -14 -40 -20 -89z"/>
<path d="M7177 2838 c-14 -24 -41 -58 -60 -76 -28 -28 -35 -31 -41 -17 -3 9
-2 14 3 11 5 -3 16 5 25 19 9 14 13 25 8 25 -10 0 -79 -73 -185 -196 -88 -102
-150 -163 -205 -199 -17 -11 -77 -58 -134 -104 -57 -46 -125 -94 -153 -107
-27 -13 -44 -24 -37 -24 27 0 93 42 191 122 57 46 122 96 144 111 58 38 144
124 239 240 45 53 83 97 85 97 2 0 0 -12 -3 -26 l-7 -27 32 24 c32 24 98 105
120 147 20 38 4 24 -22 -20z"/>
<path d="M6352 2865 c12 -33 50 -105 58 -110 6 -4 10 8 9 27 0 27 -2 30 -9 13
-5 -11 -9 -15 -9 -10 -1 6 -13 28 -27 50 -14 22 -24 36 -22 30z"/>
<path d="M8608 2863 c12 -2 32 -2 45 0 12 2 2 4 -23 4 -25 0 -35 -2 -22 -4z"/>
<path d="M8748 2853 c6 -2 18 -2 25 0 6 3 1 5 -13 5 -14 0 -19 -2 -12 -5z"/>
<path d="M7792 2790 c0 -14 2 -19 5 -12 2 6 2 18 0 25 -3 6 -5 1 -5 -13z"/>
<path d="M8194 2789 c4 -13 10 -52 13 -86 6 -64 23 -88 23 -33 0 44 -20 129
-32 136 -8 5 -9 -1 -4 -17z"/>
<path d="M6463 2660 c3 -74 10 -146 15 -160 10 -24 11 -23 36 30 14 30 26 67
26 82 0 36 -35 126 -61 158 l-21 25 5 -135z"/>
<path d="M6066 2650 c-72 -141 -74 -188 -3 -89 26 37 54 84 63 105 15 34 18
37 25 19 6 -16 8 -14 8 13 1 44 -12 34 -50 -41 -36 -71 -89 -147 -89 -128 0 8
25 61 56 118 30 57 54 107 52 111 -2 4 -29 -45 -62 -108z"/>
<path d="M6332 2640 c0 -69 3 -111 5 -95 9 60 23 49 23 -18 0 -37 4 -67 9 -67
13 0 33 66 28 92 -3 19 -5 18 -6 -7 -1 -16 -6 -39 -11 -50 -6 -15 -9 -5 -10
35 -1 77 -18 198 -29 218 -7 12 -10 -21 -9 -108z"/>
<path d="M6290 2655 c-1 -54 -5 -82 -9 -70 -6 15 -9 7 -14 -30 -4 -28 -16 -65
-27 -83 -11 -18 -20 -45 -20 -59 0 -40 16 -19 50 68 l30 74 -3 -59 c-4 -59 -4
-59 15 -37 19 24 25 57 9 46 -6 -3 -9 35 -8 97 1 64 -3 111 -11 123 -9 16 -12
4 -12 -70z"/>
<path d="M6373 2705 c0 -22 2 -30 4 -17 2 12 2 30 0 40 -3 9 -5 -1 -4 -23z"/>
<path d="M4131 2694 c0 -11 3 -14 6 -6 3 7 2 16 -1 19 -3 4 -6 -2 -5 -13z"/>
<path d="M7782 2680 c0 -19 2 -27 5 -17 2 9 2 25 0 35 -3 9 -5 1 -5 -18z"/>
<path d="M9150 2706 c0 -2 9 -6 20 -9 11 -3 18 -1 14 4 -5 9 -34 13 -34 5z"/>
<path d="M6220 2670 c0 -23 -6 -33 -25 -40 -26 -10 -56 -57 -54 -87 0 -12 3
-9 8 8 15 46 31 69 51 69 13 0 22 9 26 28 3 15 7 31 8 36 1 5 10 -6 19 -25 9
-19 17 -27 17 -19 0 19 -28 60 -41 60 -5 0 -9 -14 -9 -30z"/>
<path d="M4121 2654 c0 -11 3 -14 6 -6 3 7 2 16 -1 19 -3 4 -6 -2 -5 -13z"/>
<path d="M6127 2598 c-10 -33 -16 -62 -14 -64 2 -2 12 23 22 56 10 33 16 62
14 64 -2 3 -12 -23 -22 -56z"/>
<path d="M6381 2650 c0 -8 4 -24 9 -35 5 -13 9 -14 9 -5 0 8 -4 24 -9 35 -5
13 -9 14 -9 5z"/>
<path d="M5856 2571 c-9 -39 -16 -84 -16 -100 0 -17 -7 -51 -16 -77 -8 -25
-13 -48 -10 -51 7 -8 45 76 46 100 0 9 5 17 10 17 13 0 12 -92 -1 -149 -14
-61 -3 -63 22 -6 19 42 21 59 15 139 -10 140 -18 196 -26 196 -5 0 -16 -31
-24 -69z"/>
<path d="M3962 2535 c0 -55 4 -111 8 -125 4 -14 9 -18 9 -10 1 8 4 26 6 40 5
22 4 23 -5 5 -9 -17 -10 -16 -6 10 2 17 0 64 -4 105 l-7 75 -1 -100z"/>
<path d="M4112 2605 c0 -16 2 -22 5 -12 2 9 2 23 0 30 -3 6 -5 -1 -5 -18z"/>
<path d="M5980 2610 c-6 -12 -10 -33 -8 -48 l4 -27 11 25 c20 48 25 70 14 70
-6 0 -15 -9 -21 -20z"/>
<path d="M7772 2605 c0 -16 2 -22 5 -12 2 9 2 23 0 30 -3 6 -5 -1 -5 -18z"/>
<path d="M9338 2593 c7 -3 16 -2 19 1 4 3 -2 6 -13 5 -11 0 -14 -3 -6 -6z"/>
<path d="M9418 2583 c7 -3 16 -2 19 1 4 3 -2 6 -13 5 -11 0 -14 -3 -6 -6z"/>
<path d="M9508 2573 c12 -2 30 -2 40 0 9 3 -1 5 -23 4 -22 0 -30 -2 -17 -4z"/>
<path d="M4102 2550 c0 -14 2 -19 5 -12 2 6 2 18 0 25 -3 6 -5 1 -5 -13z"/>
<path d="M7761 2554 c0 -11 3 -14 6 -6 3 7 2 16 -1 19 -3 4 -6 -2 -5 -13z"/>
<path d="M9608 2563 c7 -3 16 -2 19 1 4 3 -2 6 -13 5 -11 0 -14 -3 -6 -6z"/>
<path d="M2548 2523 c7 -3 16 -2 19 1 4 3 -2 6 -13 5 -11 0 -14 -3 -6 -6z"/>
<path d="M7731 2462 c-12 -37 -25 -74 -27 -82 -5 -13 -4 -13 5 0 14 19 54 140
49 145 -2 3 -14 -26 -27 -63z"/>
<path d="M4092 2495 c0 -16 2 -22 5 -12 2 9 2 23 0 30 -3 6 -5 -1 -5 -18z"/>
<path d="M6132 2490 c0 -19 2 -27 5 -17 2 9 2 25 0 35 -3 9 -5 1 -5 -18z"/>
<path d="M6102 2417 c-1 -67 -7 -108 -18 -129 -9 -16 -11 -27 -5 -23 22 13 40
62 44 121 2 32 2 46 -1 29 -5 -23 -8 -16 -12 35 -6 62 -7 60 -8 -33z"/>
<path d="M5261 2485 c-1 -5 -6 -29 -10 -52 -5 -24 -5 -43 0 -43 11 0 22 63 16
87 -3 10 -5 14 -6 8z"/>
<path d="M8832 2340 c0 -85 3 -173 7 -195 11 -51 12 178 1 280 -5 57 -7 40 -8
-85z"/>
<path d="M9895 2460 c10 -11 20 -20 23 -20 3 0 -3 9 -13 20 -10 11 -20 20 -23
20 -3 0 3 -9 13 -20z"/>
<path d="M4082 2435 c0 -16 2 -22 5 -12 2 9 2 23 0 30 -3 6 -5 -1 -5 -18z"/>
<path d="M4000 2385 c0 -5 5 -17 10 -25 5 -8 10 -10 10 -5 0 6 -5 17 -10 25
-5 8 -10 11 -10 5z"/>
<path d="M4066 2350 c-7 -43 -19 -51 -35 -22 -6 9 -11 12 -11 6 0 -16 37 -47
44 -36 8 13 20 92 14 92 -3 0 -8 -18 -12 -40z"/>
<path d="M3981 2364 c0 -11 3 -14 6 -6 3 7 2 16 -1 19 -3 4 -6 -2 -5 -13z"/>
<path d="M7662 2295 c-85 -163 -270 -414 -407 -550 -115 -116 -234 -195 -460
-306 -99 -49 -175 -89 -170 -89 23 0 357 172 445 230 166 109 364 331 527 588
59 93 106 182 101 187 -2 2 -18 -25 -36 -60z"/>
<path d="M3991 2334 c-2 -23 51 -163 95 -250 57 -116 128 -201 273 -326 145
-125 178 -143 81 -43 -41 43 -70 76 -65 73 62 -30 258 -156 323 -207 46 -36
113 -90 150 -119 64 -51 198 -123 252 -136 l25 -6 -25 11 c-185 86 -201 96
-387 250 -37 31 -120 88 -183 126 -63 38 -142 87 -174 108 -46 29 -58 33 -53
19 4 -11 -31 20 -77 67 -91 95 -149 196 -205 359 -16 47 -30 80 -30 74z"/>
<path d="M6340 2160 c-18 -12 -2 -12 25 0 13 6 15 9 5 9 -8 0 -22 -4 -30 -9z"/>
<path d="M6260 2125 c-25 -13 -40 -24 -35 -24 6 0 30 11 55 24 25 13 41 24 35
24 -5 0 -30 -11 -55 -24z"/>
<path d="M1428 2113 c28 -2 76 -2 105 0 28 2 5 3 -53 3 -58 0 -81 -1 -52 -3z"/>
<path d="M5118 2083 c7 -3 16 -2 19 1 4 3 -2 6 -13 5 -11 0 -14 -3 -6 -6z"/>
<path d="M6105 2075 c-28 -8 -39 -13 -25 -13 14 0 43 5 65 13 51 17 25 17 -40
0z"/>
<path d="M5163 2073 c9 -2 25 -2 35 0 9 3 1 5 -18 5 -19 0 -27 -2 -17 -5z"/>
<path d="M5265 2056 c31 -12 77 -15 195 -14 l155 2 -165 7 c-91 3 -178 9 -195
13 -21 5 -17 2 10 -8z"/>
<path d="M6013 2053 c9 -2 23 -2 30 0 6 3 -1 5 -18 5 -16 0 -22 -2 -12 -5z"/>
<path d="M5928 2043 c12 -2 32 -2 45 0 12 2 2 4 -23 4 -25 0 -35 -2 -22 -4z"/>
<path d="M5713 2033 c31 -2 83 -2 115 0 31 2 5 3 -58 3 -63 0 -89 -1 -57 -3z"/>
<path d="M5230 1980 c0 -5 12 -17 28 -28 33 -24 213 -115 217 -110 2 2 -48 30
-112 62 -69 35 -110 61 -103 66 8 5 5 9 -9 13 -12 3 -21 1 -21 -3z"/>
<path d="M5320 1945 c25 -13 50 -24 55 -24 6 0 -10 11 -35 24 -25 13 -49 24
-55 24 -5 0 10 -11 35 -24z"/>
<path d="M5390 1916 c0 -3 32 -22 70 -41 71 -36 89 -51 48 -41 -15 4 -12 1 7
-9 17 -8 39 -14 50 -14 19 0 19 0 1 14 -27 20 -176 97 -176 91z"/>
<path d="M7975 1684 c-9 -14 -15 -27 -13 -30 2 -2 12 10 22 26 21 37 15 40 -9
4z"/>
<path d="M6588 1345 c-3 -4 -48 -21 -99 -40 -52 -19 -89 -34 -82 -35 15 0 163
53 189 69 11 6 14 11 8 11 -6 0 -13 -2 -16 -5z"/>
<path d="M5325 1305 c17 -8 55 -21 85 -29 l55 -16 -60 6 c-103 10 -55 -4 70
-20 146 -20 144 -20 117 0 -23 16 -174 57 -252 68 l-45 6 30 -15z"/>
<path d="M5168 1303 c7 -3 16 -2 19 1 4 3 -2 6 -13 5 -11 0 -14 -3 -6 -6z"/>
<path d="M5208 1293 c7 -3 16 -2 19 1 4 3 -2 6 -13 5 -11 0 -14 -3 -6 -6z"/>
<path d="M5248 1283 c6 -2 18 -2 25 0 6 3 1 5 -13 5 -14 0 -19 -2 -12 -5z"/>
<path d="M5303 1273 c9 -2 23 -2 30 0 6 3 -1 5 -18 5 -16 0 -22 -2 -12 -5z"/>
<path d="M6368 1263 c7 -3 16 -2 19 1 4 3 -2 6 -13 5 -11 0 -14 -3 -6 -6z"/>
<path d="M6318 1253 c6 -2 18 -2 25 0 6 3 1 5 -13 5 -14 0 -19 -2 -12 -5z"/>
<path d="M6253 1243 c9 -2 23 -2 30 0 6 3 -1 5 -18 5 -16 0 -22 -2 -12 -5z"/>
<path d="M6183 1233 c9 -2 25 -2 35 0 9 3 1 5 -18 5 -19 0 -27 -2 -17 -5z"/>
<path d="M5638 1223 c12 -2 30 -2 40 0 9 3 -1 5 -23 4 -22 0 -30 -2 -17 -4z"/>
<path d="M6088 1223 c12 -2 32 -2 45 0 12 2 2 4 -23 4 -25 0 -35 -2 -22 -4z"/>
<path d="M5798 1213 c45 -2 119 -2 165 0 45 1 8 3 -83 3 -91 0 -128 -2 -82 -3z"/>
</g>
</svg>
