<?xml version="1.0" encoding="utf-8"?>
<!-- Generator: Adobe Illustrator 24.3.0, SVG Export Plug-In . SVG Version: 6.00 Build 0)  -->
<svg version="1.1" id="Layer_1" xmlns="http://www.w3.org/2000/svg" xmlns:xlink="http://www.w3.org/1999/xlink" x="0px" y="0px"
	 viewBox="0 0 425 425" enable-background="new 0 0 425 425" xml:space="preserve">
<g>
	<linearGradient id="SVGID_1_" gradientUnits="userSpaceOnUse" x1="-906.0665" y1="820.8033" x2="1101.9336" y2="-271.1949">
		<stop  offset="0" style="stop-color:#00C9FF"/>
		<stop  offset="1" style="stop-color:#3B72DE"/>
	</linearGradient>
	<path fill="url(#SVGID_1_)" d="M259.065,91.59h-93.131c-12.903,0-23.398,10.498-23.398,23.399v68.575
		c0,2.695,2.186,4.881,4.881,4.881c2.695,0,4.881-2.186,4.881-4.881V123.23h120.404v161.845H152.298v-50.839
		c0-2.696-2.186-4.882-4.881-4.882c-2.695,0-4.881,2.186-4.881,4.882v75.776c0,12.902,10.495,23.397,23.398,23.397h93.131
		c12.903,0,23.398-10.495,23.398-23.397V114.99C282.464,102.088,271.969,91.59,259.065,91.59z M165.935,101.353h93.131
		c7.005,0,12.79,5.31,13.55,12.114h-120.23C153.145,106.663,158.93,101.353,165.935,101.353z M259.065,323.649h-93.131
		c-7.52,0-13.637-6.118-13.637-13.637v-15.175h120.404v15.175C272.702,317.531,266.585,323.649,259.065,323.649z"/>
	<linearGradient id="SVGID_2_" gradientUnits="userSpaceOnUse" x1="-922.433" y1="790.7104" x2="1085.5681" y2="-301.2885">
		<stop  offset="0" style="stop-color:#00C9FF"/>
		<stop  offset="1" style="stop-color:#3B72DE"/>
	</linearGradient>
	<path fill="url(#SVGID_2_)" d="M147.417,223.519c2.695,0,4.881-2.184,4.881-4.881v-19.476c0-2.696-2.186-4.881-4.881-4.881
		c-2.695,0-4.881,2.185-4.881,4.881v19.476C142.536,221.335,144.722,223.519,147.417,223.519z"/>
	<linearGradient id="SVGID_3_" gradientUnits="userSpaceOnUse" x1="-865.4724" y1="895.4695" x2="1142.5433" y2="-196.5373">
		<stop  offset="0" style="stop-color:#00C9FF"/>
		<stop  offset="1" style="stop-color:#3B72DE"/>
	</linearGradient>
	<path fill="url(#SVGID_3_)" d="M212.5,299.02c-5.645,0-10.223,4.577-10.223,10.223c0,5.646,4.577,10.222,10.223,10.222
		s10.223-4.575,10.223-10.222C222.723,303.597,218.145,299.02,212.5,299.02z"/>
	<linearGradient id="SVGID_4_" gradientUnits="userSpaceOnUse" x1="-934.6049" y1="768.325" x2="1073.3978" y2="-323.6747">
		<stop  offset="0" style="stop-color:#00C9FF"/>
		<stop  offset="1" style="stop-color:#3B72DE"/>
	</linearGradient>
	<path fill="url(#SVGID_4_)" d="M225.545,145.665h-48.32c-2.695,0-4.881,2.185-4.881,4.881s2.186,4.882,4.881,4.882h48.32
		c2.695,0,4.881-2.186,4.881-4.882S228.24,145.665,225.545,145.665z"/>
	<linearGradient id="SVGID_5_" gradientUnits="userSpaceOnUse" x1="-924.628" y1="786.655" x2="1083.3624" y2="-305.338">
		<stop  offset="0" style="stop-color:#00C9FF"/>
		<stop  offset="1" style="stop-color:#3B72DE"/>
	</linearGradient>
	<path fill="url(#SVGID_5_)" d="M248.484,145.665h-6.834c-2.695,0-4.881,2.185-4.881,4.881s2.186,4.882,4.881,4.882h6.834
		c2.695,0,4.881-2.186,4.881-4.882S251.18,145.665,248.484,145.665z"/>
	<linearGradient id="SVGID_6_" gradientUnits="userSpaceOnUse" x1="-916.2611" y1="802.0491" x2="1091.7367" y2="-289.9479">
		<stop  offset="0" style="stop-color:#00C9FF"/>
		<stop  offset="1" style="stop-color:#3B72DE"/>
	</linearGradient>
	<path fill="url(#SVGID_6_)" d="M231.89,181.403h-31.725c-2.696,0-4.882,2.185-4.882,4.881c0,2.696,2.186,4.881,4.882,4.881h31.725
		c2.696,0,4.882-2.185,4.882-4.881C236.771,183.587,234.586,181.403,231.89,181.403z"/>
	<linearGradient id="SVGID_7_" gradientUnits="userSpaceOnUse" x1="-924.3323" y1="787.1949" x2="1083.6516" y2="-304.7946">
		<stop  offset="0" style="stop-color:#00C9FF"/>
		<stop  offset="1" style="stop-color:#3B72DE"/>
	</linearGradient>
	<path fill="url(#SVGID_7_)" d="M177.225,191.165h6.834c2.696,0,4.88-2.185,4.88-4.881c0-2.696-2.184-4.881-4.88-4.881h-6.834
		c-2.695,0-4.881,2.185-4.881,4.881C172.344,188.98,174.529,191.165,177.225,191.165z"/>
	<linearGradient id="SVGID_8_" gradientUnits="userSpaceOnUse" x1="-907.6801" y1="817.8495" x2="1100.3314" y2="-274.1549">
		<stop  offset="0" style="stop-color:#00C9FF"/>
		<stop  offset="1" style="stop-color:#3B72DE"/>
	</linearGradient>
	<path fill="url(#SVGID_8_)" d="M177.225,226.902h21.446c2.695,0,4.881-2.186,4.881-4.881s-2.186-4.881-4.881-4.881h-21.446
		c-2.695,0-4.881,2.186-4.881,4.881S174.529,226.902,177.225,226.902z"/>
	<linearGradient id="SVGID_9_" gradientUnits="userSpaceOnUse" x1="-900.775" y1="830.5427" x2="1107.2344" y2="-261.4606">
		<stop  offset="0" style="stop-color:#00C9FF"/>
		<stop  offset="1" style="stop-color:#3B72DE"/>
	</linearGradient>
	<path fill="url(#SVGID_9_)" d="M214.776,217.14c-2.695,0-4.881,2.186-4.881,4.881s2.186,4.881,4.881,4.881h6.834
		c2.695,0,4.882-2.186,4.882-4.881s-2.187-4.881-4.882-4.881H214.776z"/>
	<linearGradient id="SVGID_10_" gradientUnits="userSpaceOnUse" x1="-889.6148" y1="851.0698" x2="1118.3954" y2="-240.9339">
		<stop  offset="0" style="stop-color:#00C9FF"/>
		<stop  offset="1" style="stop-color:#3B72DE"/>
	</linearGradient>
	<path fill="url(#SVGID_10_)" d="M177.225,262.639h48.32c2.695,0,4.881-2.186,4.881-4.881c0-2.695-2.186-4.881-4.881-4.881h-48.32
		c-2.695,0-4.881,2.186-4.881,4.881C172.344,260.454,174.529,262.639,177.225,262.639z"/>
	<linearGradient id="SVGID_11_" gradientUnits="userSpaceOnUse" x1="-879.6476" y1="869.405" x2="1128.369" y2="-222.6022">
		<stop  offset="0" style="stop-color:#00C9FF"/>
		<stop  offset="1" style="stop-color:#3B72DE"/>
	</linearGradient>
	<path fill="url(#SVGID_11_)" d="M248.484,252.877h-6.834c-2.695,0-4.881,2.186-4.881,4.881c0,2.695,2.186,4.881,4.881,4.881h6.834
		c2.695,0,4.881-2.186,4.881-4.881C253.365,255.063,251.18,252.877,248.484,252.877z"/>
</g>
</svg>
