<?xml version="1.0" standalone="no"?>
<!DOCTYPE svg PUBLIC "-//W3C//DTD SVG 20010904//EN"
 "http://www.w3.org/TR/2001/REC-SVG-20010904/DTD/svg10.dtd">
<svg version="1.0" xmlns="http://www.w3.org/2000/svg"
 width="1226.000000pt" height="1116.000000pt" viewBox="0 0 1226.000000 1116.000000"
 preserveAspectRatio="xMidYMid meet">

<g transform="translate(0.000000,1116.000000) scale(0.100000,-0.100000)"
fill="#000000" stroke="none">
<path d="M5045 10249 c-74 -20 -119 -29 -255 -53 -119 -20 -191 -49 -250 -102
-27 -25 -50 -50 -50 -54 0 -5 26 1 57 11 31 11 88 23 127 25 l71 5 -45 -17
c-25 -9 -110 -55 -189 -101 -79 -47 -214 -117 -300 -154 -118 -52 -163 -77
-186 -103 -16 -19 -51 -59 -77 -89 -50 -57 -59 -86 -33 -107 26 -22 18 -80
-21 -145 -65 -107 -150 -311 -195 -465 -37 -125 -63 -180 -87 -180 -26 -1 -54
-27 -117 -115 -32 -44 -80 -103 -107 -131 -67 -71 -86 -120 -100 -263 -11
-108 -10 -129 5 -185 22 -84 23 -251 1 -331 -26 -95 -32 -146 -24 -200 4 -27
13 -88 20 -135 6 -47 18 -117 26 -157 9 -39 19 -120 24 -180 5 -59 16 -127 25
-151 8 -24 20 -96 25 -160 6 -64 15 -137 20 -162 14 -71 11 -139 -11 -220 -12
-47 -23 -133 -29 -230 -9 -152 -16 -193 -47 -277 -22 -60 -14 -150 36 -383 44
-203 55 -230 142 -347 30 -39 32 -50 45 -185 27 -296 88 -649 160 -926 62
-243 97 -346 170 -508 103 -232 128 -326 105 -411 -14 -51 -36 -67 -126 -94
-38 -11 -104 -41 -147 -65 -78 -46 -252 -113 -461 -178 -145 -46 -644 -187
-747 -211 -76 -19 -451 -199 -635 -306 -49 -29 -110 -59 -135 -66 -26 -9 -125
-19 -235 -24 -104 -5 -205 -13 -224 -17 l-34 -7 52 -65 c199 -248 512 -556
802 -787 998 -795 2218 -1223 3489 -1223 1215 1 2397 395 3369 1123 383 287
767 666 1064 1049 50 66 95 127 98 136 4 12 -8 21 -57 37 -38 13 -91 43 -136
77 -40 30 -91 65 -113 76 -53 26 -162 49 -305 62 -245 22 -325 50 -496 166
-152 104 -159 106 -397 124 -140 11 -225 31 -397 96 -36 13 -108 31 -161 39
-138 22 -178 36 -262 95 -51 35 -90 55 -123 61 -37 6 -56 17 -76 41 -46 53
-50 138 -9 183 110 121 220 566 178 719 -12 42 -27 15 -27 -46 0 -40 -14 -122
-35 -215 -9 -38 -25 -26 -25 20 0 68 -15 77 -36 21 -10 -27 -31 -70 -47 -96
-27 -43 -42 -114 -46 -215 -1 -7 -14 -26 -31 -43 -36 -37 -100 -168 -107 -221
-6 -39 -16 -49 -29 -28 -4 8 -10 5 -17 -7 -10 -17 -11 -17 -18 1 -4 11 -8 42
-8 69 -1 68 -11 52 -22 -35 -8 -68 -47 -159 -68 -159 -5 0 -16 10 -24 22 l-16
23 -1 -25 c-1 -62 -17 -54 -76 36 -32 49 -77 125 -100 169 -27 53 -53 88 -75
103 -47 33 -48 11 -1 -45 46 -55 197 -307 221 -368 11 -30 -51 44 -74 88 -43
78 -117 186 -168 242 -45 51 -137 110 -159 103 -10 -4 26 -36 136 -121 41 -32
117 -140 141 -202 l16 -40 -45 50 -45 50 24 -70 c25 -70 35 -166 15 -135 -5 8
-10 25 -10 38 0 60 -81 160 -193 240 -106 76 -117 82 -97 56 8 -10 51 -58 96
-105 68 -72 83 -93 92 -135 16 -74 21 -133 12 -139 -5 -3 -25 25 -45 63 -19
38 -56 88 -82 113 l-46 44 46 -61 c29 -37 50 -77 56 -105 5 -24 13 -55 17 -68
12 -39 -11 -17 -65 62 -27 40 -61 84 -76 99 -27 29 -65 38 -65 16 1 -7 25 -69
55 -138 29 -69 52 -127 49 -129 -2 -2 -16 6 -30 20 l-27 24 16 -30 c8 -16 33
-51 55 -76 30 -33 39 -52 35 -67 -3 -12 -6 -22 -7 -22 0 0 -55 53 -121 118
-119 117 -179 183 -249 275 -76 102 -25 -25 59 -143 91 -129 177 -350 136
-350 -6 0 -11 6 -11 13 0 7 -7 4 -15 -7 -18 -23 -18 -23 -34 34 -19 68 -106
242 -131 265 l-23 20 6 -103 c3 -56 3 -101 -1 -98 -4 3 -39 65 -77 140 -38 74
-71 133 -74 131 -2 -2 19 -53 47 -112 28 -59 56 -133 62 -163 6 -30 15 -74 20
-98 13 -56 13 -122 -1 -161 -17 -50 -29 -36 -29 35 0 75 -14 78 -24 5 -4 -27
-15 -59 -25 -72 -18 -22 -18 -22 -14 37 l3 59 -30 -74 c-34 -86 -50 -108 -50
-69 0 15 9 43 21 62 30 51 36 133 13 181 -10 21 -19 34 -20 29 -1 -5 -5 -21
-8 -36 -4 -19 -13 -28 -26 -28 -30 0 -49 -49 -66 -173 -16 -120 -27 -159 -52
-179 -14 -12 -14 -10 0 17 10 19 17 71 21 145 4 78 12 136 26 180 25 74 23
115 -2 56 -9 -21 -38 -68 -65 -105 -71 -99 -67 -50 8 96 47 93 62 133 70 188
5 38 8 71 6 72 -1 2 -17 -4 -34 -13 -24 -11 -41 -33 -65 -85 -17 -38 -35 -69
-39 -69 -5 0 -8 34 -8 75 0 62 -3 75 -16 75 -14 0 -15 -10 -9 -67 5 -55 2 -79
-14 -127 -12 -33 -21 -72 -21 -88 0 -55 -18 -27 -22 35 -3 56 -28 116 -49 117
-3 0 -11 -33 -17 -74 -14 -92 -104 -357 -116 -345 -3 2 7 42 20 89 14 47 28
109 31 138 5 47 3 57 -24 95 -17 23 -36 60 -42 82 -13 49 -15 274 -1 309 14
37 27 32 33 -13 6 -48 53 -154 78 -177 23 -21 23 -15 3 56 -8 30 -19 94 -23
141 -6 57 -16 97 -30 120 -12 19 -21 48 -21 64 0 37 -16 68 -23 45 -23 -75
-47 -276 -47 -386 0 -96 -4 -139 -17 -172 -12 -33 -13 -46 -4 -51 8 -5 -9 -50
-58 -155 -38 -81 -72 -150 -75 -153 -11 -11 -6 17 8 51 7 18 17 57 20 87 l7
54 -21 -24 c-11 -13 -23 -22 -26 -19 -2 3 7 36 20 74 14 38 28 92 31 120 7 52
-10 164 -24 164 -5 0 -10 -51 -13 -112 -4 -102 -9 -127 -54 -260 -27 -81 -51
-148 -54 -148 -3 0 -4 55 -2 121 3 129 -2 167 -19 138 -5 -9 -13 -50 -19 -90
-12 -87 -52 -176 -86 -191 -13 -6 -26 -9 -28 -7 -2 2 7 37 20 78 13 40 24 81
24 91 0 9 9 43 20 75 25 73 25 73 -5 45 -21 -20 -25 -21 -25 -6 0 57 87 242
158 334 20 26 51 71 69 101 36 60 38 57 23 -38 -6 -35 -9 -65 -7 -68 11 -10
49 130 63 226 8 58 17 107 19 110 8 8 6 -95 -6 -218 -6 -65 -9 -135 -7 -157 3
-36 4 -34 21 36 22 94 57 296 57 333 0 34 -45 79 -74 75 -13 -2 -42 -37 -83
-103 -34 -55 -63 -106 -63 -112 0 -18 19 -16 26 2 10 26 24 16 24 -17 0 -38
-15 -67 -91 -180 -32 -46 -92 -152 -135 -235 -43 -84 -80 -150 -83 -148 -2 3
6 39 19 80 25 80 22 99 -10 70 -48 -43 -27 4 53 124 76 113 125 206 114 218
-2 1 -35 -39 -72 -89 -38 -51 -110 -133 -161 -183 -50 -49 -111 -116 -134
-148 -24 -32 -45 -55 -47 -53 -6 6 84 165 131 231 34 47 34 72 1 45 -12 -10
-15 -9 -15 4 0 20 -9 20 -32 -1 -35 -31 -31 -3 6 37 20 22 36 42 36 45 0 13
-21 1 -64 -36 -51 -45 -53 -44 -32 6 14 33 14 35 -6 35 -11 0 -58 -18 -105
-40 -47 -22 -88 -40 -91 -40 -3 0 9 16 28 35 18 19 31 37 29 40 -3 3 -25 -8
-50 -23 -96 -61 -139 -83 -139 -72 0 6 26 39 57 73 96 103 107 117 97 117 -5
0 -49 -34 -98 -75 -148 -124 -123 -65 37 87 56 53 99 99 96 102 -3 3 -34 -12
-69 -34 -34 -23 -64 -39 -67 -37 -2 3 15 26 38 53 23 26 37 50 32 51 -6 2 -40
-15 -77 -38 -37 -23 -69 -39 -73 -35 -3 3 27 37 68 74 167 155 167 155 39 58
-90 -70 -133 -93 -138 -77 -2 6 -14 8 -29 5 -39 -10 -25 15 32 56 26 19 64 50
84 68 34 31 29 30 -72 -22 -71 -37 -120 -56 -143 -56 -50 0 -36 13 56 50 73
29 183 109 153 110 -7 0 -54 -18 -105 -41 -162 -72 -210 -91 -215 -85 -3 2 24
19 58 37 89 44 119 67 119 90 0 11 12 36 26 55 32 41 25 55 -16 31 -39 -23
-120 -47 -120 -36 0 5 15 15 34 23 51 21 56 39 9 31 -33 -6 -27 0 52 45 87 49
145 95 145 112 0 5 -22 -9 -49 -30 -82 -65 -320 -148 -400 -140 -51 5 -60 28
-27 71 35 46 73 69 156 96 73 24 85 33 294 216 235 204 288 254 305 287 9 16
31 39 49 50 l33 21 -7 -39 c-6 -32 -23 -54 -101 -128 -51 -49 -91 -91 -89 -94
10 -9 159 110 241 193 44 44 72 69 62 55 -16 -24 -60 -97 -90 -151 -8 -15 -48
-46 -88 -69 -148 -84 -196 -115 -298 -192 -99 -74 -117 -97 -49 -62 50 26 172
74 176 69 2 -2 -6 -14 -18 -27 -18 -19 -20 -30 -15 -65 5 -38 3 -45 -31 -82
-39 -44 -38 -49 6 -26 32 17 154 50 218 60 57 9 55 -9 -3 -24 -59 -15 -160
-60 -152 -67 3 -4 39 2 79 12 115 29 221 24 356 -15 129 -37 205 -47 242 -33
21 8 26 17 27 45 1 22 -4 38 -13 41 -23 9 -16 55 13 82 32 30 27 34 -57 53
-92 21 -71 28 38 14 53 -7 149 -16 212 -19 124 -6 176 3 432 75 132 37 228 50
228 30 0 -7 -12 -26 -27 -42 l-28 -30 35 7 c37 7 142 67 148 84 5 16 -82 25
-172 18 -44 -4 -141 -24 -216 -46 -188 -54 -282 -72 -375 -71 -74 0 -121 8
-405 71 -77 17 -123 20 -247 18 -84 -1 -155 1 -159 4 -13 13 100 60 158 66 32
2 58 8 58 12 0 4 -25 11 -56 15 -43 5 -53 10 -45 18 8 8 54 12 131 12 104 0
122 2 146 21 15 11 31 32 35 46 4 15 21 46 37 71 17 24 57 99 88 166 43 92 54
125 46 133 -14 14 -7 27 -83 -134 -62 -132 -66 -138 -111 -162 -27 -14 -48
-23 -48 -21 0 2 27 47 60 99 33 52 74 125 92 163 18 37 39 72 46 76 8 6 9 13
2 27 -11 21 -138 111 -225 159 -137 77 -180 135 -180 241 0 53 6 75 29 118 35
62 45 64 14 1 -29 -61 -35 -131 -13 -165 20 -30 71 -54 117 -54 44 0 56 -9 87
-66 33 -62 65 -83 197 -130 129 -45 122 -46 344 57 194 90 217 98 301 105 79
8 83 24 6 24 -73 0 -114 -13 -257 -81 -145 -69 -189 -79 -240 -51 -70 38 -200
234 -200 302 0 26 33 129 65 204 11 25 14 51 10 72 -5 27 3 50 41 122 l46 89
5 126 c5 114 4 131 -17 187 -22 59 -23 70 -17 273 l5 212 -33 90 c-41 114 -82
199 -103 218 -11 9 -50 16 -112 20 l-94 6 69 -37 c74 -41 92 -62 52 -62 -55 0
-242 116 -231 144 3 7 -9 30 -26 51 -17 21 -28 40 -26 43 3 2 21 -6 40 -18 54
-33 43 -9 -27 63 -71 72 -137 105 -184 92 -57 -16 -123 -6 -310 48 -105 31
-220 61 -255 68 -186 35 -334 70 -355 85 -20 12 -24 22 -19 42 3 15 15 90 26
167 23 153 44 244 66 287 18 34 22 35 34 6 9 -23 9 -23 9 2 1 34 36 88 69 107
32 19 48 77 61 229 10 112 28 153 121 273 86 113 125 170 118 176 -2 2 -42
-29 -89 -70 -46 -41 -87 -75 -92 -75 -23 0 120 199 237 330 37 41 109 125 160
185 76 90 107 118 169 155 47 27 72 47 64 52 -17 10 -7 17 72 43 196 67 345
75 531 31 63 -15 151 -30 195 -33 44 -3 90 -12 102 -19 12 -8 25 -14 28 -14
12 0 35 71 35 110 0 22 4 40 9 40 9 0 13 -17 27 -124 8 -56 24 -44 24 18 0 41
18 115 32 131 4 5 8 0 8 -12 0 -36 22 -86 31 -72 6 10 29 13 85 10 65 -2 83
-7 111 -28 41 -32 76 -29 230 21 297 95 311 99 352 93 22 -3 94 -30 159 -60
186 -85 321 -178 471 -327 59 -58 101 -115 187 -255 135 -218 141 -229 199
-388 25 -70 61 -161 80 -203 64 -139 83 -234 47 -234 -34 0 -44 -134 -45 -625
-2 -446 -2 -451 22 -535 23 -82 24 -93 19 -345 l-5 -260 23 115 c14 63 40 174
59 245 19 72 41 175 51 230 21 132 38 149 29 30 -4 -49 -11 -121 -16 -160 -20
-151 -22 -219 -6 -280 9 -33 27 -132 42 -219 29 -176 29 -199 -11 -364 -14
-57 -34 -153 -45 -214 -11 -60 -29 -128 -40 -151 -12 -22 -55 -76 -96 -119
-73 -77 -75 -80 -68 -116 4 -20 10 -89 14 -152 4 -70 9 -105 14 -90 9 33 27
132 37 200 16 104 121 264 200 305 34 17 69 97 81 180 5 33 11 78 15 100 7 46
-32 687 -46 755 -5 25 -11 92 -14 149 -4 57 -13 127 -20 155 -16 57 -37 421
-32 561 4 129 21 265 40 310 9 21 19 79 22 129 3 50 9 116 14 146 20 110 31
369 19 393 -7 12 -15 63 -19 112 -4 66 -6 34 -7 -120 -1 -130 -7 -244 -16
-300 -14 -89 -14 -86 -16 241 l-1 331 -30 106 c-57 199 -127 338 -220 440 -53
59 -149 128 -292 213 -51 30 -85 54 -77 54 18 0 198 -88 247 -120 17 -12 32
-17 32 -12 0 14 -133 101 -306 201 -147 85 -185 99 -144 56 30 -32 23 -39 -16
-16 -38 23 -91 101 -105 155 -13 48 -64 152 -79 161 -6 4 -17 1 -25 -5 -12
-10 -16 -9 -20 1 -2 8 -16 45 -30 83 -14 37 -25 73 -25 79 0 6 18 -7 40 -28
57 -56 49 -34 -16 46 -58 71 -146 152 -249 231 -34 25 -67 54 -75 63 -8 9 -41
30 -74 47 -33 17 -76 43 -96 58 -19 16 -80 51 -135 80 l-100 51 -103 -7 c-94
-6 -111 -4 -185 19 -152 48 -628 66 -846 33 -58 -9 -114 -16 -125 -15 -20 0
-20 1 2 11 12 6 22 15 22 20 0 4 -1 8 -2 7 -2 0 -34 -9 -73 -20z m805 -81
c154 -53 244 -103 326 -180 41 -39 72 -73 70 -75 -2 -3 -31 17 -63 43 -114 93
-284 186 -410 223 -40 12 -73 24 -73 26 0 8 64 -8 150 -37z m173 6 c61 -22
281 -173 252 -174 -6 0 -55 29 -109 65 -54 36 -103 65 -108 65 -19 0 -128 53
-128 62 0 9 32 3 93 -18z m318 -125 c54 -39 125 -100 157 -135 56 -60 130
-179 119 -190 -3 -3 -26 28 -52 68 -72 111 -121 165 -199 218 -78 53 -146 109
-133 110 5 0 53 -32 108 -71z m-536 -4 c166 -39 360 -113 342 -131 -2 -2 -29
7 -60 21 -61 26 -203 73 -307 101 -36 9 -69 21 -74 25 -10 9 -4 8 99 -16z
m745 -63 c67 -60 85 -98 118 -252 23 -102 45 -271 37 -278 -10 -11 -14 7 -34
139 -28 194 -62 270 -183 410 -54 63 -58 70 -29 53 18 -10 59 -43 91 -72z
m-440 3 c33 -17 38 -25 16 -25 -14 0 -67 39 -53 40 4 0 21 -7 37 -15z m-160
-34 c52 -18 115 -45 141 -61 60 -39 207 -206 243 -277 35 -69 13 -61 -36 14
-28 43 -88 114 -132 158 -79 79 -83 81 -181 112 -191 61 -262 73 -436 73 -109
0 -159 3 -159 11 0 8 67 10 233 7 231 -4 232 -4 327 -37z m-1022 -17 c-13 -12
-291 -144 -296 -140 -13 13 198 121 273 139 11 3 22 5 24 6 2 0 2 -2 -1 -5z
m449 -4 c44 -6 107 -19 139 -30 60 -21 140 -67 131 -77 -3 -2 -16 2 -29 11
-72 47 -288 81 -468 73 -88 -4 -107 -3 -80 5 19 5 44 14 55 18 28 12 156 12
252 0z m390 -64 c208 -172 332 -351 350 -508 3 -27 10 -51 14 -54 12 -7 11
-65 -1 -84 -12 -20 -17 -4 -23 80 -4 51 -16 85 -56 165 -70 141 -119 211 -208
296 -56 53 -104 88 -170 122 -51 26 -93 50 -93 52 0 3 22 5 49 5 46 0 54 -4
138 -74z m967 -6 c15 -28 26 -58 24 -68 -3 -11 -18 9 -41 55 -20 40 -37 75
-37 79 0 16 29 -20 54 -66z m-1694 -24 c0 -2 -35 -12 -77 -21 -43 -9 -87 -19
-98 -22 -13 -3 -17 -2 -10 5 19 19 185 53 185 38z m980 -42 c68 -40 173 -148
223 -230 19 -33 48 -95 63 -139 25 -71 28 -94 28 -200 0 -90 -4 -130 -17 -159
-10 -22 -20 -36 -23 -33 -4 4 0 21 7 39 9 22 14 72 14 148 0 131 -22 221 -80
325 -44 79 -115 161 -126 144 -7 -12 -38 11 -158 119 -31 28 -33 32 -12 26 13
-3 49 -21 81 -40z m-575 -3 c61 -7 194 -56 183 -67 -2 -2 -42 10 -88 27 l-85
30 -175 -6 c-156 -6 -290 -21 -360 -41 -22 -7 -23 -5 -12 8 34 42 351 71 537
49z m956 -168 c35 -70 75 -210 67 -234 -2 -7 -15 27 -28 75 -13 49 -41 122
-62 163 -21 41 -32 73 -25 71 6 -3 28 -36 48 -75z m-811 42 c10 -13 9 -15 -10
-15 -15 0 2 -12 46 -35 38 -19 83 -49 99 -66 l30 -33 -30 19 c-126 80 -185 94
-415 102 -126 4 -167 9 -150 16 15 5 100 7 205 4 99 -3 174 -4 167 -1 -6 3
-10 10 -6 15 8 14 50 11 64 -6z m112 -25 c49 -33 74 -57 66 -65 -3 -3 -33 17
-68 45 -70 56 -68 67 2 20z m1218 -21 c0 -10 -4 -21 -10 -24 -5 -3 -10 2 -10
12 0 10 -3 29 -6 43 -5 24 -5 24 10 6 9 -11 16 -28 16 -37z m-936 -109 c19
-65 20 -84 6 -75 -5 3 -10 14 -10 23 0 9 -12 44 -26 77 -37 88 -38 93 -11 61
14 -16 32 -55 41 -86z m-764 90 c-72 -10 -342 -19 -335 -11 9 8 149 18 280 18
91 0 101 -1 55 -7z m916 -55 c4 -21 3 -27 -4 -20 -6 6 -14 24 -18 40 -4 21 -3
27 4 20 6 -5 14 -23 18 -40z m-876 5 c-52 -11 -196 -22 -187 -14 12 12 79 22
152 22 57 0 63 -1 35 -8z m889 -159 c1 -99 -5 -87 -13 24 -4 58 -2 83 3 70 5
-11 10 -53 10 -94z m-890 27 c85 -16 199 -81 305 -174 53 -47 96 -90 96 -95 0
-14 -12 -6 -100 66 -41 34 -96 76 -121 94 -54 38 -182 84 -280 102 -38 7 -69
16 -69 20 0 9 91 2 169 -13z m-14 -52 c28 -7 78 -27 112 -44 68 -35 93 -59 50
-48 -22 5 -25 3 -20 -11 5 -12 2 -15 -8 -11 -111 43 -327 88 -418 88 -17 0
-31 4 -31 9 0 4 44 12 98 18 141 14 162 14 217 -1z m755 -131 c0 -98 -13 -126
-25 -54 -8 48 2 149 16 149 5 0 9 -43 9 -95z m-832 34 c56 -28 102 -55 102
-60 0 -10 -27 -1 -141 53 -82 37 -108 58 -76 58 6 0 58 -23 115 -51z m-104
-44 c58 -15 101 -33 94 -40 -2 -2 -35 5 -73 16 -61 17 -73 18 -95 6 -14 -8
-50 -17 -81 -20 -67 -6 -125 -35 -239 -116 -85 -61 -131 -83 -75 -35 46 39
176 137 210 159 71 45 161 55 259 30z m724 -118 c23 -15 42 -34 42 -43 0 -12
-10 -8 -42 15 -126 93 -158 122 -158 143 0 19 8 15 58 -33 31 -30 76 -67 100
-82z m-1318 50 c0 -2 -21 -19 -47 -38 -27 -18 -83 -65 -126 -102 -43 -38 -80
-67 -83 -64 -7 7 115 113 189 165 59 41 67 46 67 39z m-530 -59 c-30 -28 -81
-75 -112 -105 -64 -61 -74 -54 -27 18 31 48 147 138 179 138 8 1 -10 -22 -40
-51z m944 13 c-40 -15 -115 -51 -168 -80 -53 -28 -99 -51 -102 -51 -31 0 142
106 226 138 30 11 69 21 85 21 23 0 14 -6 -41 -28z m66 -29 c0 -8 -159 -56
-166 -49 -9 9 24 27 77 41 62 17 89 19 89 8z m-731 -395 c-119 -116 -160 -165
-226 -264 -88 -133 -161 -271 -214 -400 -18 -46 -35 -81 -37 -78 -6 6 35 139
75 239 66 167 197 360 328 485 41 39 79 71 84 71 5 0 35 20 67 45 31 25 60 45
63 45 3 0 -60 -64 -140 -143z m3645 13 c57 -53 118 -140 155 -224 12 -27 18
-52 15 -55 -9 -9 -64 60 -71 89 -12 52 -48 107 -111 173 -76 78 -69 90 12 17z
m10 -322 c53 -27 144 -114 168 -161 28 -56 16 -55 -29 2 -46 57 -73 81 -160
140 -35 23 -63 44 -63 47 0 8 39 -5 84 -28z m-44 -46 c104 -67 150 -110 173
-160 10 -24 16 -46 13 -49 -9 -9 -93 63 -188 162 -49 49 -88 91 -88 92 0 9 24
-3 90 -45z m210 -1549 c0 -7 -4 -13 -10 -13 -5 0 -10 12 -10 28 0 21 2 24 10
12 5 -8 10 -21 10 -27z m-4489 -138 l-9 -40 -1 35 c0 19 2 46 6 60 12 41 16
-7 4 -55z m974 -11 c72 -13 146 -30 165 -36 19 -7 58 -15 85 -19 85 -13 164
-38 314 -101 199 -84 248 -133 198 -196 -16 -20 -57 -9 -187 53 -63 30 -142
61 -175 70 -98 25 -312 17 -556 -20 -96 -15 -164 -35 -252 -75 -27 -12 -51
-19 -54 -17 -2 3 12 21 33 40 22 20 35 40 32 48 -3 8 -30 22 -60 32 -29 9 -63
23 -73 32 -19 13 -16 14 30 15 90 0 126 54 65 95 -38 25 -38 33 0 46 38 14 38
22 0 40 -28 13 -16 14 137 16 144 2 187 -1 298 -23z m479 -15 c27 -16 46 -33
43 -36 -7 -6 -93 42 -102 57 -11 18 10 11 59 -21z m-38 -54 c25 -19 3 -19 -46
0 l-35 13 31 1 c16 1 39 -6 50 -14z m-184 -169 c64 -8 149 -26 188 -39 84 -30
208 -105 264 -161 l41 -41 -30 -3 c-40 -4 -156 45 -246 103 -39 25 -106 61
-148 78 -75 31 -79 32 -231 31 -85 0 -179 -6 -209 -12 -73 -17 -76 -8 -4 13
48 14 112 25 248 44 6 0 63 -6 127 -13z m23 -156 c-19 -21 -50 -26 -60 -10
-11 18 6 30 42 30 35 0 36 0 18 -20z m-295 -82 l87 -93 66 1 c96 1 150 31 205
114 23 36 47 67 54 69 14 5 278 -131 278 -142 0 -5 -46 -6 -103 -2 -83 6 -115
4 -165 -10 -67 -19 -99 -43 -41 -30 19 5 84 8 146 8 87 1 120 -3 152 -17 51
-24 57 -48 36 -152 -22 -105 -50 -165 -119 -249 -179 -219 -215 -277 -223
-361 -5 -45 -3 -54 10 -54 14 0 16 -20 14 -154 l-2 -153 50 -73 c27 -40 75
-100 106 -132 l58 -59 -22 -22 c-62 -63 -251 -187 -284 -187 -14 0 -57 -19
-96 -43 -40 -24 -98 -56 -130 -72 -63 -31 -192 -136 -225 -182 -11 -16 -23
-51 -27 -78 -4 -28 -20 -93 -36 -145 -16 -52 -29 -105 -29 -118 0 -22 3 -24
32 -18 17 3 66 32 107 63 42 32 116 77 166 101 49 25 136 80 192 123 111 85
139 92 46 12 -72 -62 -164 -124 -227 -153 -46 -22 -67 -45 -174 -184 -29 -38
-50 -56 -65 -56 -12 0 -49 -18 -82 -40 -70 -46 -82 -49 -59 -15 20 31 12 32
-28 3 -30 -21 -31 -21 -44 -3 -8 10 -14 25 -14 32 0 7 -13 51 -29 97 -16 46
-32 119 -36 162 -4 44 -11 86 -16 94 -5 10 -8 11 -9 3 0 -23 -20 -14 -40 19
-10 17 -22 60 -26 95 -5 52 -3 68 12 90 17 25 19 53 22 243 4 273 -8 452 -32
479 -10 11 -30 68 -46 128 -16 59 -44 153 -64 208 -19 55 -44 156 -56 224 -11
68 -27 142 -35 165 -19 53 -38 286 -33 398 6 129 37 154 127 103 51 -30 51
-30 51 -7 1 43 52 -52 111 -206 56 -148 68 -170 116 -222 61 -66 100 -87 132
-71 27 15 35 50 27 114 -4 29 -10 80 -13 114 -5 61 -5 63 22 73 20 8 42 6 88
-6 34 -9 96 -20 137 -25 76 -8 180 -2 180 11 0 3 -33 12 -72 18 -129 20 -230
57 -282 103 -26 23 -45 43 -42 46 2 2 45 -17 96 -42 50 -25 98 -45 106 -43 8
2 -16 23 -53 48 -37 25 -74 57 -82 72 -13 23 -13 29 2 52 10 14 23 26 29 26 6
0 50 -42 98 -92z m-1121 -312 c-17 -51 -19 -72 -13 -167 4 -60 4 -109 0 -109
-11 0 -36 67 -47 125 -8 43 -7 61 6 92 21 49 66 126 71 121 2 -3 -5 -30 -17
-62z m2013 -1079 c59 -21 171 -87 184 -108 11 -18 -19 -8 -48 17 -36 30 -107
66 -163 84 -41 13 -68 30 -47 30 6 0 39 -10 74 -23z m-842 -617 c-58 -48 -120
-92 -120 -83 1 10 132 112 145 112 6 0 -6 -13 -25 -29z m180 -30 c-8 -5 -22
-9 -30 -9 -10 0 -8 3 5 9 27 12 43 12 25 0z m-90 -13 c0 -7 -19 -18 -42 -25
-24 -7 -50 -15 -58 -19 -8 -3 3 9 25 26 42 32 75 40 75 18z m141 -76 c-15 -28
-285 -285 -353 -336 -93 -70 -114 -57 -25 14 41 33 140 123 220 200 137 133
182 167 158 122z m2846 -298 c-8 -130 -16 -183 -30 -183 -13 0 -3 225 12 263
19 49 24 28 18 -80z m-149 -562 c34 -55 64 -79 175 -142 44 -24 88 -57 99 -72
28 -39 37 -137 26 -266 -16 -178 -72 -333 -186 -514 -166 -264 -364 -487 -529
-595 -172 -112 -504 -268 -663 -311 -215 -58 -604 -75 -860 -38 -421 61 -564
112 -748 266 -129 106 -182 145 -302 216 -63 37 -119 70 -125 73 -5 3 24 -30
65 -73 96 -98 66 -83 -77 39 -179 154 -247 243 -318 417 -59 144 -85 261 -84
369 l2 95 8 -81 c10 -111 64 -263 84 -242 4 3 19 79 34 169 41 235 73 349 97
349 21 0 17 19 -12 57 -14 19 -24 36 -22 39 3 2 30 -15 62 -38 51 -38 145
-151 218 -264 14 -22 84 -102 154 -177 145 -155 228 -217 406 -302 143 -69
221 -83 518 -96 395 -18 587 3 763 82 48 21 93 39 100 39 31 0 121 55 215 131
57 46 117 93 134 104 55 36 117 97 205 199 107 125 175 196 186 196 5 0 -1
-14 -13 -31 -36 -49 -16 -44 31 9 49 54 96 144 141 267 16 44 32 82 34 84 3 3
2 -21 -2 -52 -4 -31 -4 -57 -1 -57 4 0 25 28 48 63 41 60 100 137 105 137 1 0
16 -22 32 -49z m-644 -280 c-7 -7 -74 68 -74 83 1 6 19 -9 41 -33 21 -24 37
-47 33 -50z m-2844 -3 c0 -7 -7 -57 -14 -111 -14 -98 -26 -136 -26 -82 0 53
24 205 32 205 4 0 8 -6 8 -12z m4219 -139 c13 -60 14 -109 2 -109 -4 0 -11 28
-14 63 -3 34 -9 73 -13 86 -5 16 -4 22 4 17 6 -3 15 -29 21 -57z m-1699 -57
c26 -69 25 -96 -6 -162 -25 -53 -26 -54 -36 -30 -5 14 -12 86 -15 160 l-5 135
21 -25 c11 -14 30 -49 41 -78z m-626 -104 c19 -177 19 -234 -3 -283 -25 -57
-36 -55 -22 6 13 57 14 149 1 149 -5 0 -10 -8 -10 -17 -1 -24 -39 -108 -46
-100 -3 3 2 26 10 51 9 26 16 60 16 77 0 42 30 169 40 169 4 0 10 -24 14 -52z
m110 20 c-4 -13 -11 -34 -17 -48 l-11 -25 -4 27 c-4 29 13 68 29 68 6 0 7 -9
3 -22z m-739 -184 c-3 -19 -10 -34 -14 -34 -5 0 -5 19 0 43 4 23 9 47 10 52 1
6 3 2 6 -8 3 -11 2 -34 -2 -53z m3583 -194 c0 -91 -3 -114 -9 -85 -4 22 -7
110 -7 195 1 125 3 142 8 85 4 -38 8 -126 8 -195z m-864 -550 c-10 -16 -20
-28 -22 -26 -4 5 28 56 35 56 2 0 -4 -13 -13 -30z"/>
<path d="M4060 4428 c0 -24 -7 -83 -15 -133 -17 -104 -20 -238 -5 -215 5 8 10
31 10 50 0 19 9 86 21 148 21 109 20 174 -1 187 -6 4 -10 -12 -10 -37z"/>
<path d="M5260 1959 c8 -5 62 -34 120 -63 108 -55 164 -77 145 -58 -15 15
-252 132 -267 132 -10 0 -9 -3 2 -11z"/>
<path d="M5250 8966 c-90 -21 -90 -23 2 -18 143 7 138 -8 -11 -33 -135 -23
-221 -49 -221 -66 0 -14 14 -11 72 13 49 20 68 21 278 20 124 -1 243 2 265 6
l40 7 -43 23 c-88 46 -285 70 -382 48z"/>
<path d="M6880 7781 c0 -12 51 -53 58 -46 7 6 -17 34 -40 46 -11 6 -18 6 -18
0z"/>
<path d="M6568 6842 c-44 -49 -85 -110 -132 -197 -21 -38 -47 -80 -59 -92 -11
-13 -18 -25 -15 -28 13 -13 38 11 63 58 14 29 60 99 101 157 42 58 80 113 85
123 17 30 -7 19 -43 -21z"/>
<path d="M6669 6821 c-70 -22 -102 -64 -92 -123 4 -30 1 -38 -21 -54 -62 -44
-77 -57 -72 -61 4 -5 47 17 186 95 l45 26 -25 -28 c-13 -15 -62 -52 -107 -82
-46 -30 -83 -58 -83 -62 0 -4 37 -2 83 4 45 7 106 13 135 13 29 1 66 8 82 16
29 15 143 33 380 60 132 15 139 16 239 46 64 19 227 25 280 10 32 -9 37 -27
11 -34 l-21 -6 20 -20 c23 -23 18 -56 -10 -74 -11 -7 -19 -17 -19 -24 0 -7
-18 -16 -40 -19 -22 -4 -37 -11 -34 -16 10 -16 63 0 97 28 42 34 56 67 57 130
0 64 -16 82 -120 134 -79 40 -80 40 -192 39 -112 -1 -113 -1 -65 -14 81 -22
68 -28 -47 -21 -60 3 -128 7 -150 7 l-41 2 45 8 c25 4 65 8 90 9 38 2 41 3 20
10 -42 14 -148 11 -310 -7 -146 -16 -158 -16 -189 0 -36 18 -88 21 -132 8z
m356 -41 c-34 -13 -202 -24 -190 -12 14 14 47 19 135 20 49 0 68 -2 55 -8z
m434 -44 c-6 -6 -143 -26 -147 -21 -15 14 19 25 80 25 39 0 69 -2 67 -4z
m-719 -136 c0 -5 -8 -10 -17 -10 -15 0 -16 2 -3 10 19 12 20 12 20 0z"/>
<path d="M6230 6795 c0 -2 15 -25 33 -49 17 -25 44 -63 59 -85 15 -23 32 -41
38 -41 14 0 -31 88 -66 129 -25 30 -64 58 -64 46z"/>
<path d="M6006 6655 c4 -8 12 -15 19 -15 7 0 69 -27 138 -61 70 -33 134 -59
143 -57 15 3 -279 149 -298 148 -4 0 -5 -7 -2 -15z"/>
<path d="M5338 6636 c-58 -14 -72 -26 -27 -25 47 1 82 12 87 27 4 14 4 14 -60
-2z"/>
<path d="M7401 6629 c-24 -5 -46 -11 -49 -14 -8 -7 29 -5 143 10 l100 12 -75
1 c-41 0 -95 -4 -119 -9z"/>
<path d="M7278 6603 c12 -2 32 -2 45 0 12 2 2 4 -23 4 -25 0 -35 -2 -22 -4z"/>
<path d="M6564 6366 c-58 -18 -160 -72 -229 -120 -33 -23 -81 -50 -107 -60
-49 -18 -121 -87 -138 -132 -14 -35 -12 -73 5 -109 13 -29 14 -27 13 41 -1 58
2 77 21 102 33 47 70 69 153 91 95 26 102 29 261 102 72 34 155 70 182 80 l50
18 -85 0 c-47 0 -103 -6 -126 -13z"/>
<path d="M6955 6369 c-3 -3 29 -12 70 -18 90 -13 174 -40 273 -87 95 -46 142
-87 142 -125 0 -48 -32 -36 -120 46 -89 84 -125 103 -250 133 -230 55 -357 32
-556 -98 -132 -88 -124 -107 15 -35 35 19 69 31 76 29 6 -3 22 -24 35 -46 78
-139 185 -182 304 -123 40 19 62 40 101 97 70 101 86 102 225 11 79 -52 99
-69 83 -71 -22 -3 -81 24 -123 57 l-24 19 -42 -36 c-23 -21 -86 -64 -140 -96
-82 -51 -107 -61 -153 -64 -49 -3 -64 1 -121 33 -92 51 -180 91 -244 111 -55
17 -57 17 -94 -3 -20 -11 -52 -24 -69 -28 -72 -15 -48 -25 95 -41 45 -5 69
-13 83 -27 10 -11 17 -22 15 -25 -3 -2 -36 3 -75 12 -95 22 -158 21 -198 -4
-52 -31 -45 -40 40 -55 21 -3 74 -24 119 -46 45 -21 95 -39 110 -39 15 0 28
-4 28 -9 0 -14 -90 0 -168 26 -75 25 -102 25 -102 -1 0 -22 45 -71 80 -88 29
-14 37 -13 109 12 42 14 82 30 89 34 27 17 7 37 -75 76 -89 41 -105 59 -36 41
72 -20 245 -52 250 -47 3 3 -27 19 -66 37 -39 18 -70 34 -67 36 2 2 46 -8 97
-23 84 -24 104 -26 199 -21 73 4 139 16 215 38 61 17 135 37 165 43 39 10 50
15 38 21 -10 4 -62 -5 -119 -19 -57 -14 -105 -23 -108 -20 -9 8 57 60 116 91
51 27 87 25 49 -3 -15 -11 -17 -17 -8 -26 8 -8 39 -9 118 -1 93 9 110 13 126
33 57 71 -19 173 -172 229 -107 39 -324 78 -335 60z m-39 -144 c7 -30 -2 -75
-16 -75 -6 0 -10 23 -10 50 0 53 15 67 26 25z"/>
<path d="M7927 5705 c-4 -22 -14 -128 -22 -235 -8 -107 -19 -226 -24 -265 -17
-123 -22 -237 -12 -231 5 4 20 32 32 64 18 46 23 80 24 172 1 63 8 135 16 160
15 49 15 279 1 340 l-9 35 -6 -40z"/>
<path d="M7570 5725 c0 -5 11 -23 25 -40 13 -16 24 -25 25 -18 0 7 -11 25 -25
40 -13 15 -24 24 -25 18z"/>
<path d="M7831 4728 c-16 -80 -28 -254 -23 -335 3 -60 2 -74 -12 -79 -18 -7
-22 -97 -9 -215 l7 -64 13 75 c8 41 18 129 22 195 4 66 15 138 23 160 13 34
14 63 7 174 -5 74 -11 136 -13 138 -2 3 -9 -19 -15 -49z"/>
<path d="M6101 4538 c-123 -15 -191 -64 -191 -137 0 -51 28 -91 86 -121 44
-22 50 -30 62 -75 8 -27 15 -87 15 -132 2 -76 3 -80 14 -49 6 19 14 63 18 98
7 62 5 68 -35 149 -24 46 -53 98 -66 115 -25 33 -31 54 -14 54 31 0 137 -215
151 -306 11 -70 11 -72 -20 -136 -35 -75 -38 -86 -14 -67 19 17 63 107 63 132
0 26 17 21 42 -13 23 -32 38 -38 38 -17 0 7 -25 61 -56 121 -54 103 -64 148
-23 96 53 -66 179 -265 179 -281 0 -11 5 -19 10 -19 15 0 12 122 -5 170 -8 23
-15 51 -15 62 0 19 1 19 27 -1 14 -12 28 -19 31 -17 10 11 -128 164 -149 166
-9 0 5 -60 20 -89 26 -48 1 -29 -68 53 -39 46 -88 97 -108 112 -46 35 -25 45
25 12 77 -51 85 -47 22 13 l-65 62 45 -24 c24 -13 98 -77 163 -143 65 -65 121
-116 124 -112 3 3 -1 14 -9 23 -9 10 -21 29 -27 43 -19 40 71 -60 133 -149 39
-56 80 -98 143 -148 148 -116 195 -137 142 -62 -11 16 -18 29 -15 29 3 0 42
-25 88 -56 49 -34 84 -52 86 -45 10 31 -141 193 -211 226 -22 10 -74 58 -123
113 -47 53 -113 118 -147 145 -90 71 -99 83 -38 51 61 -32 182 -136 314 -266
48 -48 96 -90 107 -93 11 -3 50 -51 86 -106 36 -55 68 -99 70 -96 9 9 -21 75
-57 123 -21 29 -71 80 -111 115 -96 84 -168 156 -168 169 0 17 27 -2 139 -100
57 -49 106 -88 109 -86 7 7 -61 83 -116 130 -85 72 -143 111 -277 186 -71 40
-153 89 -180 110 -98 73 -132 82 -244 68z m195 -116 c88 -65 222 -200 274
-277 18 -27 46 -65 62 -83 34 -39 37 -57 7 -42 -11 6 -50 50 -87 98 -92 119
-181 212 -204 212 -10 0 -42 25 -70 55 -104 112 -99 122 18 37z"/>
<path d="M5550 4439 c8 -15 8 -29 1 -51 -20 -58 -4 -62 25 -7 14 28 14 33 -1
55 -19 30 -40 33 -25 3z"/>
<path d="M6600 4453 c0 -5 17 -19 38 -30 44 -25 330 -298 321 -307 -3 -3 -32
17 -65 46 -149 130 -246 197 -232 159 2 -5 66 -63 143 -128 154 -131 189 -176
225 -295 12 -39 23 -68 26 -65 2 2 2 62 -2 133 l-7 129 -86 85 c-47 47 -125
113 -171 148 -47 34 -98 75 -115 91 -31 29 -75 49 -75 34z"/>
<path d="M5718 4434 c-13 -4 -16 -12 -12 -32 15 -75 -27 -369 -56 -387 -4 -2
0 15 8 38 9 25 12 52 8 63 -7 17 -10 16 -36 -16 -44 -53 -81 -126 -74 -144 8
-20 55 -46 84 -46 17 0 20 -4 15 -21 -6 -18 -4 -20 17 -14 48 15 142 71 189
112 54 49 70 81 46 94 -8 5 -18 30 -22 56 -3 27 -13 72 -22 101 -8 30 -13 55
-10 58 6 7 117 -233 117 -255 0 -11 5 -23 10 -26 15 -9 12 76 -4 122 -23 64
-111 246 -132 271 -19 22 -89 37 -126 26z m66 -91 c26 -82 44 -280 30 -317
-12 -31 -22 -15 -12 18 9 27 7 51 -10 118 -27 109 -38 198 -24 198 6 0 13 -8
16 -17z m66 -21 c0 -15 -2 -15 -10 -2 -13 20 -13 33 0 25 6 -3 10 -14 10 -23z"/>
<path d="M5588 4323 c-82 -86 -143 -189 -72 -122 25 23 113 131 128 157 16 27
-12 9 -56 -35z"/>
<path d="M6890 4310 c19 -17 49 -41 65 -52 l30 -21 -32 34 c-18 19 -47 42 -65
52 l-33 18 35 -31z"/>
<path d="M5563 4204 c-35 -45 -67 -104 -60 -111 3 -2 26 25 52 61 51 72 58
113 8 50z"/>
<path d="M5579 4133 c-24 -32 -56 -73 -73 -90 -28 -31 -28 -33 -9 -33 13 0 36
17 55 39 36 42 83 129 75 137 -3 3 -24 -21 -48 -53z"/>
<path d="M6624 3929 c68 -74 79 -96 29 -61 -15 10 -44 27 -63 37 -30 14 -25 8
30 -44 36 -34 92 -75 125 -91 33 -16 84 -50 113 -76 29 -25 55 -44 58 -42 2 3
-30 45 -72 94 -42 49 -83 103 -90 121 -12 27 -60 73 -78 73 -3 0 -28 14 -54
30 -27 17 -53 30 -57 30 -4 0 23 -32 59 -71z"/>
<path d="M7477 3891 c-4 -18 -7 -72 -6 -120 l0 -86 19 55 c22 64 24 113 6 155
l-12 30 -7 -34z"/>
<path d="M5743 3843 c-55 -16 -70 -33 -30 -33 21 0 87 34 87 45 0 3 -1 5 -2 4
-2 0 -27 -8 -55 -16z"/>
<path d="M7230 3773 c0 -6 8 -17 18 -24 16 -13 16 -13 2 6 -8 11 -16 22 -17
24 -2 2 -3 0 -3 -6z"/>
<path d="M6021 3729 c-13 -5 -21 -12 -18 -15 3 -3 18 1 34 10 31 17 21 20 -16
5z"/>
<path d="M6285 3643 c-16 -14 -50 -38 -74 -54 -25 -16 -40 -29 -35 -29 21 0
153 95 144 103 -3 3 -18 -6 -35 -20z"/>
<path d="M4951 3555 c-30 -14 -51 -28 -48 -31 9 -9 177 38 171 47 -10 17 -69
9 -123 -16z"/>
<path d="M4955 3505 c-22 -8 -31 -13 -20 -13 11 0 38 5 60 13 22 7 31 13 20
13 -11 0 -38 -6 -60 -13z"/>
<path d="M7020 3482 c0 -5 17 -22 38 -38 l37 -28 -26 34 c-26 35 -49 49 -49
32z"/>
<path d="M5018 3468 c-40 -10 -52 -28 -19 -28 22 0 83 20 96 31 12 12 -29 10
-77 -3z"/>
<path d="M5070 3422 c-64 -28 -79 -38 -61 -40 25 -4 151 53 151 69 0 12 8 14
-90 -29z"/>
<path d="M5153 3407 c-56 -29 -102 -56 -102 -61 -1 -12 66 2 116 24 73 32 140
92 101 89 -7 0 -59 -24 -115 -52z"/>
<path d="M6777 3407 c52 -43 99 -73 84 -53 -16 19 -95 76 -106 76 -4 0 6 -10
22 -23z"/>
<path d="M9505 3390 c3 -5 18 -10 32 -10 32 0 28 5 -10 14 -19 4 -26 3 -22 -4z"/>
<path d="M5476 3331 c-10 -11 -51 -46 -92 -77 -40 -32 -71 -60 -69 -63 3 -2
28 6 56 19 38 18 52 21 58 12 9 -15 30 6 54 53 34 69 30 97 -7 56z"/>
<path d="M6388 3323 c21 -30 107 -113 117 -113 3 0 -4 18 -15 39 -19 38 -47
64 -99 91 l-24 12 21 -29z"/>
<path d="M6112 3322 c12 -27 91 -152 95 -149 10 11 -72 157 -89 157 -5 0 -8
-3 -6 -8z"/>
<path d="M5254 3304 c-18 -14 -18 -15 4 -4 12 6 22 13 22 15 0 8 -5 6 -26 -11z"/>
<path d="M5292 3269 c-56 -43 -64 -61 -15 -36 31 17 92 77 77 77 -5 0 -33 -19
-62 -41z"/>
<path d="M5950 3182 c0 -115 13 -149 26 -67 8 59 1 152 -14 167 -9 9 -12 -15
-12 -100z"/>
<path d="M5825 3171 c-7 -24 21 -221 42 -286 8 -27 22 -57 30 -65 14 -13 15 1
10 130 -7 168 -14 210 -34 210 -7 0 -16 7 -19 15 -8 21 -21 19 -29 -4z"/>
<path d="M9141 2716 c2 -2 15 -9 29 -15 24 -11 24 -11 6 3 -16 13 -49 24 -35
12z"/>
</g>
</svg>
