<?xml version="1.0" encoding="utf-8"?>
<!-- Generator: Adobe Illustrator 21.0.0, SVG Export Plug-In . SVG Version: 6.00 Build 0)  -->
<svg version="1.1" id="Layer_1" xmlns="http://www.w3.org/2000/svg" xmlns:xlink="http://www.w3.org/1999/xlink" x="0px" y="0px"
	 viewBox="0 0 128 128" style="enable-background:new 0 0 128 128;" xml:space="preserve">
<style type="text/css">
	.st0{fill:#CFF1FB;}
	.st1{fill:#91DEF5;}
	.st2{fill:#F6F7F7;}
	.st3{fill:#FFCFB8;}
	.st4{fill:#FFA77B;}
	.st5{fill:#E9EAEB;}
	.st6{fill:#746887;}
	.st7{fill:#F98770;}
	.st8{fill:#9B9B9B;}
	.st9{fill:#FFDDCF;}
	.st10{fill:#FFFFFF;}
	.st11{fill:#B7B7B7;}
	.st12{fill:#FFBC99;}
	.st13{fill:#DBDCDE;}
	.st14{fill:#FECFBA;}
	.st15{fill:#D0F1FA;}
	.st16{fill:#FDA77F;}
	.st17{fill:#94DEF4;}
</style>
<g>
	<path class="st2" d="M107.147,1.5H9.995c-1.655,0-2.997,1.343-2.997,3v119c0,1.657,1.342,3,2.997,3h83.863l16.286-16.304V52H33.599
		c-1.655,0-2.997-1.343-2.997-3V31c0-1.657,1.342-3,2.997-3h76.545V4.5C110.144,2.843,108.802,1.5,107.147,1.5z"/>
	<path class="st0" d="M118.005,28H33.599c-1.655,0-2.997,1.343-2.997,3v18c0,1.657,1.342,3,2.997,3h84.406
		c1.655,0,2.997-1.343,2.997-3V31C121.001,29.343,119.66,28,118.005,28z"/>
	<path class="st4" d="M107.147,1.5H9.995c-1.655,0-2.997,1.343-2.997,3v13.304h103.146V4.5C110.144,2.843,108.802,1.5,107.147,1.5z"
		/>
	<path class="st5" d="M93.858,113.196V126.5l16.286-16.304H96.855C95.2,110.196,93.858,111.539,93.858,113.196z"/>
</g>
<g>
	<path class="st7" d="M107.147,0H9.995C7.516,0,5.5,2.019,5.5,4.5v13.305c0,0.828,0.671,1.5,1.498,1.5h103.145
		c0.827,0,1.498-0.672,1.498-1.5V4.5C111.642,2.019,109.626,0,107.147,0z M108.645,16.305H8.497V4.5c0-0.827,0.672-1.5,1.498-1.5
		h97.152c0.826,0,1.498,0.673,1.498,1.5V16.305z"/>
	<path class="st6" d="M107.147,0H9.995C7.516,0,5.5,2.019,5.5,4.5v102.613c0,0.828,0.671,1.5,1.498,1.5s1.498-0.672,1.498-1.5V4.5
		c0-0.827,0.672-1.5,1.498-1.5h97.152c0.826,0,1.498,0.673,1.498,1.5v22H33.599c-2.479,0-4.495,2.019-4.495,4.5v18
		c0,2.481,2.016,4.5,4.495,4.5h75.046v56.074L93.238,125H9.995c-0.826,0-1.498-0.673-1.498-1.5v-8.461c0-0.828-0.671-1.5-1.498-1.5
		s-1.498,0.672-1.498,1.5v8.461c0,2.481,2.016,4.5,4.495,4.5h83.863c0.397,0,0.778-0.158,1.059-0.439l16.285-16.305
		c0.281-0.281,0.439-0.663,0.439-1.061V52c0-0.828-0.671-1.5-1.498-1.5H33.599c-0.826,0-1.498-0.673-1.498-1.5V31
		c0-0.827,0.672-1.5,1.498-1.5h76.544c0.827,0,1.498-0.672,1.498-1.5V4.5C111.642,2.019,109.626,0,107.147,0z"/>
	<path class="st6" d="M110.144,108.695H96.855c-2.479,0-4.495,2.019-4.495,4.5V126.5c0,0.606,0.365,1.153,0.925,1.386
		c0.185,0.077,0.38,0.114,0.574,0.114c0.389,0,0.773-0.152,1.059-0.439l16.285-16.305c0.428-0.429,0.557-1.074,0.325-1.635
		C111.296,109.061,110.749,108.695,110.144,108.695z M95.357,122.879v-9.684c0-0.827,0.672-1.5,1.498-1.5h9.672L95.357,122.879z"/>
	<path class="st6" d="M118.005,26.5H33.599c-2.479,0-4.495,2.019-4.495,4.5v18c0,2.481,2.016,4.5,4.495,4.5h84.406
		c2.479,0,4.495-2.019,4.495-4.5v-5.105c0-0.828-0.671-1.5-1.498-1.5c-0.827,0-1.498,0.672-1.498,1.5V49
		c0,0.827-0.672,1.5-1.498,1.5H33.599c-0.826,0-1.498-0.673-1.498-1.5V31c0-0.827,0.672-1.5,1.498-1.5h84.406
		c0.826,0,1.498,0.673,1.498,1.5v4.934c0,0.828,0.671,1.5,1.498,1.5c0.827,0,1.498-0.672,1.498-1.5V31
		C122.5,28.519,120.484,26.5,118.005,26.5z"/>
	<path class="st6" d="M98.527,62.5H18.616c-0.827,0-1.498,0.672-1.498,1.5s0.671,1.5,1.498,1.5h79.911
		c0.827,0,1.498-0.672,1.498-1.5S99.354,62.5,98.527,62.5z"/>
	<path class="st6" d="M98.527,74.5H37.094c-0.827,0-1.498,0.672-1.498,1.5s0.671,1.5,1.498,1.5h61.433
		c0.827,0,1.498-0.672,1.498-1.5S99.354,74.5,98.527,74.5z"/>
	<path class="st6" d="M26.793,74.5h-8.176c-0.827,0-1.498,0.672-1.498,1.5s0.671,1.5,1.498,1.5h8.176c0.827,0,1.498-0.672,1.498-1.5
		S27.62,74.5,26.793,74.5z"/>
	<path class="st6" d="M98.527,86.5H18.616c-0.827,0-1.498,0.672-1.498,1.5s0.671,1.5,1.498,1.5h79.911
		c0.827,0,1.498-0.672,1.498-1.5S99.354,86.5,98.527,86.5z"/>
	<path class="st6" d="M98.527,98.5H18.616c-0.827,0-1.498,0.672-1.498,1.5s0.671,1.5,1.498,1.5h79.911
		c0.827,0,1.498-0.672,1.498-1.5S99.354,98.5,98.527,98.5z"/>
	<path class="st6" d="M82.545,110.5H18.616c-0.827,0-1.498,0.672-1.498,1.5s0.671,1.5,1.498,1.5h63.928
		c0.827,0,1.498-0.672,1.498-1.5S83.372,110.5,82.545,110.5z"/>
	<path class="st7" d="M114.509,34.5H75.802c-0.827,0-1.498,0.672-1.498,1.5s0.671,1.5,1.498,1.5h38.707
		c0.827,0,1.498-0.672,1.498-1.5S115.336,34.5,114.509,34.5z"/>
	<path class="st7" d="M114.509,42.5H75.802c-0.827,0-1.498,0.672-1.498,1.5s0.671,1.5,1.498,1.5h38.707
		c0.827,0,1.498-0.672,1.498-1.5S115.336,42.5,114.509,42.5z"/>
	<path class="st7" d="M48.684,33.5c-0.497-0.662-1.435-0.796-2.098-0.3l-7.458,5.6c-0.377,0.283-0.599,0.729-0.599,1.2
		s0.222,0.917,0.599,1.2l7.458,5.6c0.27,0.202,0.585,0.3,0.898,0.3c0.456,0,0.905-0.207,1.2-0.6
		c0.497-0.663,0.362-1.604-0.299-2.101L42.524,40l5.861-4.399C49.046,35.104,49.181,34.163,48.684,33.5z"/>
	<path class="st7" d="M68.895,38.8l-7.458-5.6c-0.662-0.496-1.601-0.362-2.098,0.3c-0.497,0.663-0.362,1.604,0.299,2.101L65.498,40
		l-5.861,4.399c-0.661,0.497-0.796,1.438-0.299,2.101c0.295,0.393,0.744,0.6,1.2,0.6c0.313,0,0.628-0.098,0.898-0.3l7.458-5.6
		c0.377-0.283,0.599-0.729,0.599-1.2S69.271,39.083,68.895,38.8z"/>
	<path class="st7" d="M57.334,31.129c-0.773-0.293-1.639,0.102-1.929,0.878L49.812,46.94c-0.291,0.775,0.101,1.64,0.877,1.931
		c0.173,0.065,0.351,0.096,0.526,0.096c0.607,0,1.177-0.371,1.403-0.974l5.593-14.934C58.501,32.284,58.109,31.42,57.334,31.129z"/>
	<path class="st6" d="M19.924,8.152h-2.979c-0.827,0-1.498,0.672-1.498,1.5s0.671,1.5,1.498,1.5h2.979
		c0.827,0,1.498-0.672,1.498-1.5S20.751,8.152,19.924,8.152z"/>
	<path class="st6" d="M28.86,8.152h-2.978c-0.827,0-1.498,0.672-1.498,1.5s0.671,1.5,1.498,1.5h2.978c0.827,0,1.498-0.672,1.498-1.5
		S29.687,8.152,28.86,8.152z"/>
</g>
<g>
</g>
</svg>
